<?xml version="1.0" standalone="no"?>
<!DOCTYPE svg PUBLIC "-//W3C//DTD SVG 20010904//EN"
 "http://www.w3.org/TR/2001/REC-SVG-20010904/DTD/svg10.dtd">
<svg version="1.0" xmlns="http://www.w3.org/2000/svg"
 width="1024.000000pt" height="1024.000000pt" viewBox="0 0 1024.000000 1024.000000"
 preserveAspectRatio="xMidYMid meet">

<g transform="translate(0.000000,1024.000000) scale(0.100000,-0.100000)"
fill="#000000" stroke="none">
<path d="M0 5120 l0 -5120 5120 0 5120 0 0 5120 0 5120 -5120 0 -5120 0 0
-5120z m5750 4189 c0 -5 -12 -20 -26 -34 -15 -15 -23 -32 -20 -41 4 -10 0 -18
-11 -21 -10 -2 -27 -16 -37 -30 -19 -26 -19 -27 0 -82 19 -53 22 -55 69 -67
27 -7 52 -11 57 -8 12 8 49 -6 43 -16 -3 -4 -36 -7 -74 -5 l-69 2 -4 -59 c-3
-42 -10 -65 -25 -80 -21 -20 -21 -20 -59 -2 -76 38 -164 209 -164 320 0 102
52 119 133 42 38 -36 43 -38 52 -21 31 57 135 135 135 102z m820 -69 c0 -5 -8
-10 -17 -10 -15 0 -16 2 -3 10 19 12 20 12 20 0z m-1281 -4 c-7 -7 -213 -86
-225 -86 -14 0 -39 -28 -32 -36 3 -2 40 10 84 27 62 25 87 30 121 25 31 -4 42
-2 40 7 -1 6 6 11 16 9 9 -2 17 2 17 8 0 6 4 9 9 6 5 -4 11 -2 13 4 1 5 13 11
26 13 13 2 28 10 33 18 6 10 9 1 9 -27 0 -22 5 -67 11 -99 12 -63 4 -79 -37
-72 -11 2 -25 -1 -31 -7 -6 -6 -25 -22 -43 -36 -18 -14 -41 -33 -51 -42 -21
-19 -96 -65 -121 -74 -10 -4 -18 -10 -18 -15 0 -5 -7 -9 -15 -9 -8 0 -15 -5
-15 -12 0 -9 -3 -9 -11 -1 -6 6 -17 9 -24 7 -7 -3 -20 11 -30 32 -15 32 -16
45 -6 108 8 48 9 80 2 97 -5 13 -10 18 -10 12 -1 -8 -14 -12 -33 -11 -18 1
-39 0 -47 -3 -15 -4 -40 56 -28 68 4 3 29 6 56 7 27 1 47 5 44 10 -3 4 8 5 24
2 21 -5 55 3 119 27 49 19 99 37 109 40 27 6 49 8 44 3z m-415 -158 c18 -40
59 -145 89 -233 31 -88 70 -198 86 -245 17 -47 31 -97 31 -111 0 -34 -44 -99
-168 -252 -53 -65 -102 -125 -108 -133 -6 -8 -16 -14 -23 -14 -6 0 -11 -6 -11
-14 0 -8 -5 -18 -12 -22 -8 -5 -9 0 -6 14 4 12 2 22 -3 22 -5 0 -9 -13 -9 -29
0 -20 -23 -59 -79 -133 -43 -57 -91 -126 -106 -152 -28 -48 -75 -86 -106 -86
-8 0 -34 -16 -58 -36 -23 -20 -44 -35 -46 -32 -2 2 -23 42 -46 88 -47 94 -111
169 -166 195 -34 16 -37 16 -49 1 -9 -13 -13 -14 -17 -4 -10 30 -17 -3 -8 -38
13 -50 17 -152 7 -181 -4 -13 -3 -23 2 -23 10 0 2 -45 -12 -81 -4 -8 0 -29 9
-45 8 -16 15 -41 15 -56 0 -15 5 -30 10 -33 6 -3 10 -14 10 -23 0 -10 9 -34
20 -55 11 -21 18 -42 15 -47 -5 -7 41 -167 50 -178 2 -2 13 2 26 8 19 11 21
10 16 -3 -9 -24 12 -26 83 -5 111 32 118 30 28 -6 -118 -47 -128 -53 -121 -72
3 -8 12 -13 19 -10 9 3 14 -2 14 -13 0 -14 -34 -31 -152 -78 -112 -44 -154
-56 -156 -46 -2 7 -8 13 -13 13 -5 0 -9 5 -9 10 0 6 7 10 15 10 8 0 15 5 15
10 0 6 -11 8 -26 4 -43 -11 -21 11 46 47 57 30 72 50 50 64 -6 4 -8 11 -4 16
5 8 -2 31 -34 119 -3 8 -6 20 -6 25 -5 30 -28 93 -42 114 -14 19 -14 25 -3 32
11 6 11 9 -2 14 -10 4 -14 14 -12 29 3 13 -2 30 -12 39 -9 10 -12 17 -7 17 5
0 4 16 -4 38 -7 20 -13 48 -14 62 0 19 -2 22 -9 10 -6 -8 -13 -58 -17 -112 -3
-54 -9 -98 -11 -98 -3 0 -27 16 -53 35 -52 38 -198 110 -245 120 -16 4 -37 9
-45 12 -74 29 -329 14 -420 -23 -32 -14 -36 -13 -48 3 -29 40 -12 57 78 80 47
11 97 24 112 27 22 4 38 30 116 188 50 101 110 215 134 253 181 296 418 544
674 708 94 60 665 365 686 367 4 0 23 -33 42 -72z m2106 -148 c0 -5 -7 -7 -15
-4 -8 4 -15 8 -15 10 0 2 7 4 15 4 8 0 15 -4 15 -10z m-1645 -89 c-7 -12 -170
-110 -188 -114 -7 -1 -12 4 -12 11 0 12 196 124 204 117 1 -2 0 -8 -4 -14z
m185 -76 c-7 -9 -15 -13 -19 -10 -3 3 1 10 9 15 21 14 24 12 10 -5z m-200 -90
c0 -6 -56 -35 -67 -35 -4 1 8 9 27 20 39 22 40 22 40 15z m20 -60 c21 -54 22
-72 6 -72 -9 0 -14 2 -11 5 2 2 -4 21 -15 42 -18 35 -18 50 2 50 5 0 13 -11
18 -25z m-230 -56 c0 -17 -4 -28 -10 -24 -5 3 -10 17 -10 31 0 13 5 24 10 24
6 0 10 -14 10 -31z m210 -1 c0 -4 -9 -8 -20 -8 -13 0 -20 -7 -20 -19 0 -29
-15 -33 -35 -11 -17 18 -16 19 9 26 14 3 26 9 26 13 0 4 9 7 20 7 11 0 20 -4
20 -8z m-10 -28 c0 -5 -4 -10 -10 -10 -5 0 -10 5 -10 10 0 6 5 10 10 10 6 0
10 -4 10 -10z m-107 -31 c28 -23 36 -36 32 -50 -4 -10 -2 -19 3 -19 11 0 10
-103 -1 -111 -4 -3 -11 -30 -14 -60 -4 -44 -1 -62 17 -94 12 -22 32 -58 43
-80 12 -22 27 -43 32 -47 6 -4 6 -8 2 -8 -10 0 25 -60 35 -60 4 0 8 -5 8 -10
0 -22 76 -139 90 -140 10 -1 11 -3 3 -7 -7 -2 -13 -9 -13 -14 0 -4 7 -6 15 -3
8 4 15 1 15 -5 0 -6 -5 -11 -11 -11 -5 0 -8 -4 -4 -10 3 -5 13 -6 22 -3 11 4
14 3 9 -5 -4 -7 -2 -12 3 -12 6 0 11 -7 11 -15 0 -8 8 -15 18 -15 14 0 15 -2
2 -10 -8 -5 -10 -10 -4 -10 7 0 14 -9 17 -21 3 -12 10 -18 16 -14 6 3 11 0 11
-7 0 -21 46 -79 55 -70 5 4 5 2 2 -4 -4 -7 0 -17 8 -24 8 -7 15 -24 16 -39 0
-25 0 -25 9 -3 9 20 22 31 18 15 -3 -16 15 -43 25 -36 6 3 7 1 3 -5 -4 -6 17
-37 48 -69 136 -143 145 -156 147 -198 l2 -40 6 37 6 38 95 -94 c52 -52 106
-101 120 -110 24 -14 39 -56 20 -56 -5 0 -48 23 -96 50 -48 28 -88 50 -90 50
-1 0 -45 25 -96 57 -151 92 -272 188 -448 359 -177 173 -160 162 -297 190 -14
2 -26 17 -34 39 -12 33 -29 47 -29 25 0 -18 -48 -11 -54 8 -7 23 9 90 27 110
12 15 13 29 1 106 -7 50 -16 96 -18 103 -3 8 -23 13 -51 13 -25 0 -45 2 -45 5
0 16 127 161 138 157 7 -2 12 5 12 18 0 11 23 49 50 83 57 70 68 97 51 133
-14 32 -3 30 42 -7z m219 -11 c33 6 71 -113 45 -140 -7 -7 -12 -18 -10 -23 2
-6 -17 -11 -41 -13 -56 -3 -70 12 -58 66 8 33 7 39 -4 35 -8 -3 -14 1 -14 8 0
7 -3 10 -6 6 -9 -9 -34 19 -34 37 0 9 3 17 8 17 4 1 20 3 36 5 15 1 31 5 34 8
2 3 10 2 16 -2 6 -3 19 -5 28 -4z m-83 -145 c0 -25 -1 -26 -9 -8 -12 27 -12
35 0 35 6 0 10 -12 9 -27z m44 -55 c4 -10 8 -10 15 1 7 9 11 10 17 2 5 -8 11
-9 19 -2 9 8 13 3 14 -22 2 -80 6 -97 20 -97 9 0 12 -6 8 -16 -4 -10 -2 -13 6
-8 8 5 9 2 5 -9 -3 -10 -2 -17 3 -17 6 0 10 -5 10 -11 0 -7 8 -18 18 -26 9 -8
11 -11 4 -8 -11 6 -12 3 -2 -14 6 -12 16 -19 21 -15 6 3 10 0 8 -7 -4 -33 2
-49 19 -49 11 0 24 -11 30 -25 9 -19 9 -25 0 -25 -15 0 0 -15 15 -15 7 0 11
-8 11 -18 -1 -9 2 -14 7 -12 4 3 13 -4 19 -15 8 -14 8 -20 0 -20 -6 0 -8 -5
-5 -10 4 -6 10 -8 15 -5 4 3 17 -11 29 -30 12 -21 16 -35 9 -35 -15 0 0 -15
15 -15 7 0 11 -9 9 -19 -2 -10 1 -15 6 -12 12 7 36 -20 28 -32 -7 -12 23 -54
34 -47 13 8 61 -60 55 -77 -3 -8 1 -21 10 -28 13 -11 14 -10 8 6 -6 17 -5 17
11 5 9 -8 14 -21 11 -29 -7 -19 13 -42 37 -42 11 0 22 -9 25 -20 3 -11 10 -20
15 -20 5 0 6 -4 3 -10 -3 -5 -1 -10 5 -10 11 0 69 -60 70 -72 0 -4 -12 -4 -27
-2 -27 5 -26 3 17 -38 25 -24 46 -40 48 -37 2 4 12 4 24 1 20 -5 20 -5 2 -20
-18 -14 -18 -14 7 -10 30 5 46 -9 41 -37 -4 -16 -2 -17 10 -7 20 16 31 3 13
-15 -11 -10 -19 -11 -34 -3 -28 15 -49 14 -33 -2 14 -14 16 -38 3 -38 -5 0
-13 9 -16 20 -4 11 -11 18 -16 14 -6 -3 -7 5 -3 23 7 26 6 27 -11 13 -17 -14
-18 -13 -12 2 3 9 -1 22 -9 28 -11 10 -14 10 -14 1 0 -7 -5 -9 -10 -6 -6 4 -9
14 -8 23 2 10 -6 18 -22 22 -14 4 -24 12 -22 19 1 7 -7 15 -18 18 -11 3 -20
11 -20 18 0 7 -7 15 -15 19 -8 3 -15 12 -15 21 0 8 -4 15 -10 15 -5 0 -10 8
-10 18 -1 21 -23 52 -39 52 -7 0 -9 5 -6 11 4 6 -3 13 -15 16 -13 3 -19 11
-16 19 3 9 -2 14 -14 14 -11 0 -20 7 -20 15 0 8 -5 15 -11 15 -6 0 -9 7 -5 15
3 8 1 15 -4 15 -6 0 -9 6 -8 13 2 6 -3 11 -9 9 -7 -1 -13 7 -13 18 0 11 -4 20
-10 20 -5 0 -10 7 -10 15 0 7 -6 18 -14 22 -14 8 -16 12 -16 33 0 5 -8 6 -17
3 -12 -5 -15 -2 -11 9 4 8 2 21 -3 29 -7 12 -9 12 -10 -1 0 -8 -4 -4 -8 10 -4
14 -16 29 -28 35 -17 7 -21 15 -17 32 5 18 2 23 -12 23 -16 0 -16 -2 -4 -10 8
-5 11 -12 7 -17 -12 -12 -27 20 -16 33 7 8 6 15 -2 19 -6 4 -15 1 -20 -6 -7
-11 -9 -11 -9 3 0 9 5 20 11 23 7 5 5 13 -5 24 -9 10 -13 21 -9 25 4 4 -2 9
-14 12 -24 7 -40 34 -20 35 7 0 1 5 -12 10 -15 6 -21 15 -17 24 3 8 0 14 -7
12 -7 -1 -12 5 -12 13 0 8 -7 20 -15 27 -11 9 -12 12 -2 13 7 0 10 5 7 10 -5
8 -11 8 -20 0 -10 -8 -15 -8 -21 1 -4 7 -3 9 3 6 6 -4 14 0 17 8 3 9 0 18 -8
21 -7 3 -22 24 -32 47 -10 23 -25 47 -34 54 -12 10 -9 20 3 11 8 -6 36 25 31
33 -3 5 -1 9 5 9 5 0 12 -6 14 -12z m-53 -58 c9 -17 8 -20 -12 -20 -19 0 -20
2 -8 10 10 6 11 10 3 10 -7 0 -13 5 -13 10 0 17 19 11 30 -10z m40 -80 c0 -5
-2 -10 -4 -10 -3 0 -8 5 -11 10 -3 6 -1 10 4 10 6 0 11 -4 11 -10z m-451 -242
c20 -7 37 -12 37 -13 1 0 -4 -27 -11 -60 -11 -55 -14 -60 -36 -57 -13 2 -28 7
-34 12 -5 4 -23 11 -40 15 -16 5 -32 9 -35 10 -3 1 -20 6 -38 10 -67 16 -51
53 33 79 63 18 80 19 124 4z m-794 -58 c3 -5 1 -10 -4 -10 -6 0 -11 5 -11 10
0 6 2 10 4 10 3 0 8 -4 11 -10z m-27 -35 c-3 -3 -9 2 -12 12 -6 14 -5 15 5 6
7 -7 10 -15 7 -18z m82 11 c0 -3 -4 -8 -10 -11 -5 -3 -10 -1 -10 4 0 6 5 11
10 11 6 0 10 -2 10 -4z m-35 -36 c3 -5 1 -10 -4 -10 -6 0 -11 5 -11 10 0 6 2
10 4 10 3 0 8 -4 11 -10z m1455 -5 c0 -8 -2 -15 -4 -15 -2 0 -6 7 -10 15 -3 8
-1 15 4 15 6 0 10 -7 10 -15z m-840 -70 c0 -8 -8 -15 -17 -14 -11 0 -13 3 -5
6 6 2 10 9 6 14 -3 5 0 9 5 9 6 0 11 -7 11 -15z m392 -49 c7 4 8 3 4 -4 -10
-17 -43 -15 -50 3 -4 13 -2 14 14 5 11 -6 26 -8 32 -4z m-642 -3 c0 -5 -11
-13 -25 -20 -29 -13 -33 -6 -7 13 19 15 32 18 32 7z m100 -36 c13 4 20 -8 33
-54 10 -33 17 -68 17 -79 0 -11 16 -59 36 -108 20 -48 33 -94 30 -101 -3 -8 0
-16 7 -18 14 -5 -36 -27 -63 -27 -10 0 -21 7 -24 16 -3 8 -2 12 4 9 6 -3 10
-2 10 4 0 5 -5 13 -11 16 -6 4 -8 13 -5 21 3 8 0 13 -5 11 -15 -3 -43 90 -48
157 -1 5 -8 3 -16 -4 -17 -14 -25 -1 -29 47 -1 15 -6 40 -10 54 -9 33 19 73
42 60 8 -5 23 -6 32 -4z m-500 -61 c0 -16 -18 -31 -27 -22 -8 8 5 36 17 36 5
0 10 -6 10 -14z m40 -20 c0 -3 -4 -8 -10 -11 -5 -3 -10 -1 -10 4 0 6 5 11 10
11 6 0 10 -2 10 -4z m1760 -36 c0 -5 -2 -10 -4 -10 -3 0 -8 5 -11 10 -3 6 -1
10 4 10 6 0 11 -4 11 -10z m-2671 -66 c-6 -21 -12 -55 -15 -74 -3 -19 -9 -48
-14 -65 -5 -16 -10 -45 -12 -64 -3 -40 -35 -81 -56 -74 -29 12 -33 52 -12 136
36 144 50 176 78 191 35 19 44 4 31 -50z m129 -86 c-41 -167 -44 -194 -25
-201 6 -3 2 -6 -11 -6 -19 -1 -22 -5 -17 -21 5 -14 2 -20 -10 -20 -9 0 -13 5
-10 10 3 6 1 10 -5 10 -8 0 -9 7 -5 18 4 9 25 86 46 171 22 84 44 162 50 172
25 48 21 7 -13 -133z m762 148 c0 -3 -4 -8 -10 -11 -5 -3 -10 -1 -10 4 0 6 5
11 10 11 6 0 10 -2 10 -4z m1735 -66 c3 -5 1 -10 -4 -10 -6 0 -11 5 -11 10 0
6 2 10 4 10 3 0 8 -4 11 -10z m-1665 -24 c0 -3 -4 -8 -10 -11 -5 -3 -10 -1
-10 4 0 6 5 11 10 11 6 0 10 -2 10 -4z m-300 -41 c0 -5 -5 -3 -10 5 -5 8 -10
20 -10 25 0 6 5 3 10 -5 5 -8 10 -19 10 -25z m250 -5 c0 -5 -4 -10 -10 -10 -5
0 -10 5 -10 10 0 6 5 10 10 10 6 0 10 -4 10 -10z m1907 -47 c-3 -3 -11 -2 -17
2 -9 6 -9 10 1 16 14 8 27 -7 16 -18z m-2142 -3 c3 -5 1 -10 -4 -10 -6 0 -11
5 -11 10 0 6 2 10 4 10 3 0 8 -4 11 -10z m2170 -10 c3 -5 -1 -10 -10 -10 -9 0
-13 5 -10 10 3 6 8 10 10 10 2 0 7 -4 10 -10z m-2150 -46 c19 -46 19 -55 -1
-29 -8 11 -18 19 -22 17 -3 -2 -8 2 -10 10 -2 9 0 8 8 -2 9 -12 10 -10 6 13
-9 38 1 34 19 -9z m899 0 c8 -3 20 -22 27 -41 14 -42 3 -53 -53 -53 -20 0 -44
-3 -54 -7 -15 -5 -16 -2 -11 30 3 21 2 37 -4 37 -24 0 -5 19 29 28 49 13 48
13 66 6z m-654 -14 c0 -5 -4 -10 -10 -10 -5 0 -10 5 -10 10 0 6 5 10 10 10 6
0 10 -4 10 -10z m78 -21 c-2 -6 -8 -10 -13 -10 -5 0 -11 4 -13 10 -2 6 4 11
13 11 9 0 15 -5 13 -11z m-1146 -63 c14 -11 16 -19 8 -46 -7 -24 -6 -36 1 -41
7 -4 8 -9 1 -13 -5 -3 -13 -21 -16 -40 -4 -19 -13 -36 -20 -39 -7 -3 -46 11
-87 31 -43 21 -67 38 -57 40 17 3 62 87 54 101 -3 4 1 17 9 29 14 19 17 20 53
6 20 -9 45 -21 54 -28z m832 -6 c7 -24 6 -24 -8 -6 -9 11 -16 29 -16 40 1 17
2 18 9 6 5 -8 12 -26 15 -40z m51 -51 c6 -21 5 -22 -8 -9 -16 16 -37 73 -37
99 0 16 32 -47 45 -90z m2212 66 c0 -8 -4 -15 -9 -15 -10 0 -11 14 -1 23 9 10
10 9 10 -8z m-57 -3 c0 -9 64 -42 81 -42 5 0 22 -12 37 -27 15 -15 20 -22 12
-16 -14 9 -59 25 -85 28 -20 3 -50 19 -57 29 -11 16 -10 36 2 36 6 0 10 -4 10
-8z m-1216 -39 c7 -16 44 -115 80 -222 62 -184 76 -218 76 -194 0 10 -109 330
-125 368 -8 18 -7 18 8 7 13 -11 157 -418 157 -445 0 -4 -5 -7 -11 -7 -5 0 -7
6 -3 13 6 9 4 9 -7 1 -19 -15 -87 -25 -94 -13 -4 5 -12 9 -18 9 -7 0 -6 -4 3
-10 13 -8 13 -10 -2 -10 -12 0 -16 8 -15 28 1 15 6 30 11 34 18 13 -105 385
-131 395 -26 10 -27 -7 -4 -77 12 -39 19 -75 15 -82 -5 -7 -3 -8 6 -3 10 6 12
3 8 -13 -4 -12 -2 -20 3 -16 9 5 13 -15 9 -50 -1 -12 2 -16 11 -11 8 5 10 4 5
-4 -4 -6 2 -41 14 -77 12 -36 19 -68 16 -71 -9 -9 -8 -12 -80 200 -52 154 -64
202 -56 217 12 23 13 40 1 21 -8 -12 -12 -12 -25 2 -15 14 -13 17 26 25 80 18
106 15 122 -15z m1281 -65 c26 -12 95 -3 95 13 0 5 9 4 20 -3 13 -9 20 -24 20
-45 0 -28 -5 -35 -32 -47 -38 -15 -54 -11 -37 10 14 17 -4 44 -29 44 -29 0
-131 73 -132 94 0 4 16 -6 36 -24 20 -17 47 -36 59 -42z m-2255 52 c0 -5 -2
-10 -4 -10 -3 0 -8 5 -11 10 -3 6 -1 10 4 10 6 0 11 -4 11 -10z m-544 -9 c0 0
-10 -31 -22 -68 -24 -72 -22 -85 19 -130 19 -21 19 -24 4 -41 -12 -13 -26 -17
-47 -14 -29 4 -53 22 -29 22 8 0 8 4 -2 16 -8 10 -22 14 -39 11 -14 -3 -32 -2
-40 4 -11 6 -8 9 14 9 20 0 27 4 23 14 -3 8 2 16 12 19 25 6 65 126 46 134 -8
2 -16 11 -19 18 -3 10 6 12 37 10 23 -1 42 -3 43 -4z m1221 -17 c-3 -3 -12 -4
-19 -1 -8 3 -5 6 6 6 11 1 17 -2 13 -5z m-40 -10 c-3 -3 -12 -4 -19 -1 -8 3
-5 6 6 6 11 1 17 -2 13 -5z m-612 -14 c3 -5 2 -10 -4 -10 -5 0 -13 5 -16 10
-3 6 -2 10 4 10 5 0 13 -4 16 -10z m520 -10 c-11 -5 -27 -9 -35 -9 -9 0 -8 4
5 9 11 5 27 9 35 9 9 0 8 -4 -5 -9z m-149 -50 c-55 -22 -109 -49 -120 -60
l-20 -20 22 0 c24 0 28 -10 11 -27 -8 -8 2 -60 41 -195 29 -101 54 -186 56
-190 7 -11 84 24 84 39 0 8 -25 96 -55 197 -30 100 -55 185 -55 189 0 4 9 7
20 7 12 0 17 -5 14 -14 -6 -15 81 -325 103 -369 12 -25 12 -28 -4 -33 -49 -17
-102 -47 -98 -55 4 -5 -2 -6 -11 -2 -12 4 -15 2 -12 -8 3 -9 16 -13 34 -11 16
2 27 1 24 -1 -4 -4 -250 -99 -315 -122 -18 -6 -18 -5 -4 7 8 7 18 21 22 31 9
23 -13 22 -63 -2 l-39 -19 -20 67 c-11 36 -36 124 -56 194 l-37 128 24 24 c13
14 26 25 30 25 7 0 29 -66 59 -180 7 -25 14 -38 16 -30 2 9 -9 59 -25 112 -28
94 -28 98 -11 114 16 15 17 18 3 32 -9 8 -19 11 -22 6 -7 -9 -62 -16 -62 -8 0
14 215 107 360 155 204 67 247 75 106 19z m344 -3 c0 -5 -4 -5 -10 -2 -5 3
-10 14 -10 23 0 15 2 15 10 2 5 -8 10 -19 10 -23z m78 -129 c52 -164 72 -243
53 -203 -6 11 -32 90 -60 175 -27 85 -53 163 -56 173 -4 9 -3 17 2 17 5 0 33
-73 61 -162z m-1774 122 c51 -24 63 -34 62 -53 -1 -19 -6 -22 -41 -19 -48 4
-121 37 -129 59 -7 18 10 43 30 43 8 0 43 -14 78 -30z m1611 -112 c21 -73 48
-163 60 -200 12 -37 20 -70 17 -73 -4 -4 -131 377 -132 398 0 4 4 7 8 7 4 0
25 -60 47 -132z m-147 80 c0 -13 25 -104 56 -202 30 -99 53 -183 50 -188 -3
-4 -13 -8 -22 -8 -13 0 -14 2 -4 9 10 6 0 49 -47 201 -33 107 -58 197 -55 202
10 16 22 8 22 -14z m-1573 -48 c3 -5 14 -10 23 -10 28 -1 64 -34 60 -57 -3
-19 -6 -20 -51 -8 -60 15 -78 32 -66 63 9 23 24 29 34 12z m523 -131 c-4 -28
-26 -31 -42 -6 -9 15 -7 21 8 33 24 17 39 5 34 -27z m-526 -54 c0 -8 1 -21 2
-27 1 -7 8 -18 16 -25 12 -10 13 -12 1 -13 -8 0 -11 -3 -8 -7 4 -3 2 -12 -5
-20 -8 -10 -7 -16 6 -26 14 -11 15 -19 4 -72 -7 -33 -17 -63 -23 -67 -6 -5 -5
-8 3 -8 14 0 16 -36 2 -45 -5 -3 -10 -1 -10 6 0 25 -12 -1 -14 -31 -1 -18 4
-34 12 -39 11 -6 11 -11 -4 -25 -13 -13 -17 -32 -15 -71 1 -29 -3 -56 -9 -60
-5 -3 -10 -13 -10 -22 0 -9 -7 -25 -17 -35 -9 -10 -11 -18 -5 -18 10 0 5 -36
-8 -55 -4 -5 -11 -23 -15 -40 -5 -16 -9 -32 -10 -35 -11 -33 -20 -54 -44 -102
-16 -32 -25 -58 -21 -58 14 0 20 -32 9 -47 -14 -16 -58 -135 -66 -178 -3 -16
-13 -41 -23 -55 -22 -32 -33 -63 -20 -55 18 11 11 -27 -15 -81 -14 -30 -34
-58 -45 -64 -12 -6 -18 -16 -14 -22 4 -5 2 -13 -3 -17 -6 -3 -13 -26 -17 -51
-4 -24 -4 -41 0 -37 5 4 9 17 11 28 4 28 28 73 48 89 15 12 15 9 -1 -31 -9
-24 -20 -48 -24 -54 -4 -5 -11 -24 -14 -41 -5 -20 -15 -34 -27 -37 -10 -3 -19
-10 -19 -17 0 -6 4 -9 8 -6 5 3 9 -1 9 -9 0 -8 -9 -15 -20 -15 -15 0 -18 -5
-12 -22 3 -13 7 -29 7 -35 1 -7 6 -13 12 -13 5 0 2 -6 -8 -13 -15 -11 -17 -17
-7 -35 9 -17 9 -22 0 -22 -6 0 -9 -8 -6 -19 2 -11 -3 -25 -14 -35 -11 -9 -19
-23 -19 -31 0 -9 -9 -25 -20 -37 -11 -12 -20 -31 -20 -42 0 -17 -14 -15 -16 2
0 4 -4 18 -8 32 -4 16 -1 40 9 64 9 21 11 35 5 31 -12 -7 -7 19 15 90 7 22 18
82 26 133 7 50 17 92 21 92 4 0 8 24 8 52 0 60 61 252 162 513 11 28 23 64 28
80 4 17 31 100 59 185 61 183 107 354 115 430 5 48 17 108 30 160 3 8 5 23 5
33 1 21 20 23 23 2z m2196 -156 c1 -9 -8 -20 -23 -27 -23 -11 -27 -9 -34 11
-5 14 -4 25 3 30 18 12 51 3 54 -14z m-558 -13 c0 -2 -7 -7 -16 -10 -8 -3 -12
-2 -9 4 6 10 25 14 25 6z m535 -86 c4 -11 11 -17 17 -14 8 5 9 1 4 -11 -4 -11
6 -42 29 -86 34 -66 43 -99 27 -99 -24 0 -63 28 -69 50 -12 46 -44 111 -53
105 -4 -3 3 -26 16 -53 25 -49 30 -72 15 -72 -14 0 -33 28 -26 40 3 5 -1 13
-9 16 -9 3 -16 11 -16 18 0 6 -7 23 -14 38 -15 29 -7 44 19 34 18 -6 20 5 4
21 -16 16 -2 33 26 33 15 0 26 -7 30 -20z m-700 -99 c-15 -13 -185 -75 -191
-68 -3 2 16 13 43 23 26 9 68 25 93 35 51 20 69 24 55 10z m60 -101 c-3 -5 -1
-10 5 -10 6 0 8 -4 5 -10 -7 -12 -166 -63 -173 -55 -3 3 0 5 6 5 7 0 12 8 12
17 0 9 3 13 7 10 3 -4 13 -1 21 6 8 6 38 19 66 28 28 10 52 17 54 18 2 1 0 -3
-3 -9z m34 -74 c8 -10 9 -16 1 -21 -17 -11 -11 -21 16 -23 14 -1 34 -6 44 -12
10 -5 28 -10 39 -10 12 0 21 -4 21 -10 0 -5 8 -10 17 -10 22 0 3 -20 -23 -25
-11 -1 -18 -7 -17 -13 3 -13 -112 -59 -160 -63 -24 -2 -44 2 -57 14 -12 10
-25 15 -29 13 -9 -6 -21 50 -21 96 0 30 17 43 85 64 53 17 70 17 84 0z m661
-66 c0 -5 -2 -10 -4 -10 -3 0 -8 5 -11 10 -3 6 -1 10 4 10 6 0 11 -4 11 -10z
m-824 -136 c-4 -9 -9 -15 -11 -12 -3 3 -3 13 1 22 4 9 9 15 11 12 3 -3 3 -13
-1 -22z m1794 -19 c7 -8 9 -15 6 -15 -4 0 -14 7 -22 15 -9 8 -11 15 -6 15 5 0
15 -7 22 -15z m-1279 -10 c1 -17 -18 -17 -25 0 -4 11 -1 15 10 13 8 -2 15 -7
15 -13z m-290 -13 c-6 -2 -11 -12 -11 -23 0 -10 -4 -19 -10 -19 -5 0 -10 7
-10 15 0 8 -9 15 -21 15 -11 0 -18 4 -15 9 3 5 22 9 42 8 20 -1 32 -3 25 -5z
m1464 -29 c111 -56 191 -131 283 -265 18 -26 32 -50 32 -53 0 -4 13 -35 29
-69 16 -34 39 -97 52 -139 12 -42 25 -74 29 -72 6 4 9 -7 11 -42 1 -28 20 -73
31 -73 6 0 7 -7 4 -16 -8 -20 33 -156 44 -149 5 3 6 -4 3 -15 -3 -12 0 -20 6
-20 7 0 10 -4 6 -9 -7 -13 44 -164 59 -173 8 -6 8 -8 -1 -8 -9 0 -7 -16 7 -57
10 -32 27 -85 36 -118 10 -33 24 -65 30 -70 7 -6 33 -80 59 -165 25 -85 52
-173 60 -195 7 -22 40 -125 73 -230 33 -104 83 -262 111 -350 28 -88 71 -230
95 -315 72 -248 121 -385 135 -382 9 2 11 -6 6 -27 -5 -22 0 -42 19 -75 14
-25 21 -48 16 -51 -5 -3 -16 10 -24 28 -19 48 -36 56 -36 18 0 -46 20 -83 42
-78 15 4 21 -6 34 -51 20 -69 69 -204 92 -252 9 -19 17 -44 18 -55 2 -11 19
-74 40 -140 20 -66 41 -138 47 -160 11 -44 16 -309 5 -320 -11 -11 -44 16 -58
49 l-13 31 -4 -33 c-7 -53 -23 -26 -23 37 0 117 -50 312 -119 466 -8 19 -71
219 -86 275 -8 32 -63 185 -80 225 -19 44 -35 106 -35 138 0 15 -4 27 -9 27
-5 0 -13 9 -16 21 -6 16 -13 20 -36 17 -22 -4 -29 -1 -29 13 0 9 6 22 14 28 8
7 12 25 9 51 -4 44 -32 117 -33 87 0 -30 -35 -16 -38 16 -2 15 -8 27 -14 27
-10 0 -8 -16 7 -52 4 -10 3 -18 -3 -18 -5 0 -13 16 -16 35 -4 19 -11 35 -17
35 -6 0 -8 -4 -4 -9 8 -13 -10 -22 -29 -15 -11 4 -15 13 -11 28 5 17 4 18 -4
6 -10 -13 -12 -13 -21 0 -7 11 -4 16 13 21 21 5 20 6 -5 11 -15 3 -25 1 -22
-3 9 -15 -13 -10 -26 6 -7 8 -9 15 -4 15 4 0 -3 11 -15 24 -13 14 -21 31 -18
38 4 9 6 8 6 -4 1 -25 19 -31 37 -13 11 11 15 26 11 53 l-6 37 11 -32 c6 -18
17 -33 24 -33 17 0 17 2 0 42 -8 18 -19 52 -26 76 -10 38 -13 42 -35 36 -19
-5 -25 -2 -26 10 -3 30 -4 34 -13 43 -5 5 -6 2 -1 -6 5 -9 4 -12 -3 -7 -21 13
-12 27 31 47 l42 19 -35 -4 c-33 -5 -32 -4 20 24 58 31 41 32 -47 3 -53 -17
-67 -14 -74 17 -3 14 -10 24 -17 22 -7 -1 -12 2 -12 8 0 5 9 10 20 10 11 0 20
1 20 3 0 1 -9 26 -20 55 -23 60 -26 94 -3 42 19 -45 42 -70 63 -70 31 0 40 53
15 86 -14 18 -15 16 -9 -18 4 -26 3 -38 -5 -38 -15 0 -54 87 -48 105 3 7 1 17
-3 21 -16 16 -22 82 -9 90 7 4 9 3 6 -3 -10 -16 13 -73 29 -73 17 0 18 12 4
26 -6 6 -12 24 -13 40 -2 23 -7 29 -27 29 -17 0 -26 -7 -31 -25 -4 -14 -8 -20
-10 -15 -5 20 -7 30 -8 40 -1 6 -6 3 -11 -5 -8 -12 -10 -10 -10 8 0 15 -7 26
-19 29 -33 9 -13 28 54 53 36 13 65 28 65 32 0 11 2 11 -69 -13 -76 -24 -93
-19 -21 7 27 10 50 22 50 27 0 4 -5 5 -11 1 -24 -14 -109 -32 -102 -21 4 6 7
23 8 37 0 14 5 40 9 59 14 57 -37 139 -73 117 -5 -3 -11 3 -14 14 -3 11 -1 18
4 14 15 -9 10 22 -5 35 -11 9 -15 7 -19 -10 -3 -11 -10 -18 -16 -14 -7 4 -4
14 9 27 18 19 18 23 4 50 -9 17 -13 32 -10 35 3 3 12 -11 20 -32 10 -22 20
-34 27 -29 7 4 8 9 1 13 -5 3 -13 33 -16 66 -4 44 -3 55 5 43 12 -22 33 -24
25 -2 -3 8 -2 12 4 9 6 -3 10 -1 10 6 0 8 4 8 15 -1 13 -11 15 -10 9 6 -5 18
-5 18 10 0 9 -11 16 -15 16 -9 0 7 -6 15 -12 20 -13 8 -18 9 -38 12 -5 0 -10
6 -10 12 0 7 9 9 23 6 21 -6 21 -6 3 8 -15 11 -22 12 -27 4 -4 -7 -16 -10 -27
-7 -10 3 -27 1 -36 -4 -10 -5 -16 -5 -16 1 0 5 15 15 33 22 17 7 41 16 52 20
11 5 -5 6 -35 3 -30 -4 -61 -11 -67 -16 -9 -8 -13 -6 -13 4 0 13 105 56 122
51 4 -2 5 4 2 12 -8 19 -21 19 -74 0 -56 -20 -63 -19 -49 6 10 20 9 21 -23 15
-18 -4 -1 6 37 20 39 14 73 29 77 33 5 4 -6 49 -23 101 -17 52 -48 149 -69
215 -36 114 -94 282 -107 315 -3 8 -7 19 -7 23 -1 4 -7 12 -15 16 -7 5 -11 13
-7 19 3 6 1 14 -6 19 -19 12 -38 50 -38 75 0 28 -19 63 -20 38 -1 -9 -5 -6
-10 8 -5 12 -17 22 -26 22 -10 0 -14 5 -11 14 4 9 -2 17 -14 21 -10 4 -19 13
-19 20 0 8 -12 20 -27 27 -16 7 -28 20 -28 28 0 8 -7 15 -15 15 -8 0 -15 7
-15 15 -1 8 -6 14 -12 13 -6 -1 -21 10 -34 24 -23 24 -23 25 -2 12 12 -7 25
-10 29 -7 7 7 -37 89 -65 122 -15 18 -15 18 19 11 19 -4 58 -18 85 -32z
m-1525 -3 c0 -5 -7 -7 -15 -4 -8 4 -15 8 -15 10 0 2 7 4 15 4 8 0 15 -4 15
-10z m200 -30 c0 -5 -4 -10 -10 -10 -5 0 -10 5 -10 10 0 6 5 10 10 10 6 0 10
-4 10 -10z m-50 -46 c0 -11 5 -14 16 -10 11 4 14 1 12 -12 -2 -11 -14 -18 -37
-20 -22 -2 -31 0 -26 7 3 6 10 9 15 6 5 -3 11 -1 14 4 4 5 2 12 -4 16 -13 8
-13 25 0 25 6 0 10 -7 10 -16z m90 7 c0 -6 -9 -9 -20 -8 -11 1 -20 5 -20 9 0
4 9 8 20 8 11 0 20 -4 20 -9z m877 -23 c-3 -8 -6 -5 -6 6 -1 11 2 17 5 13 3
-3 4 -12 1 -19z m-1357 -8 c0 -5 -2 -10 -4 -10 -3 0 -8 5 -11 10 -3 6 -1 10 4
10 6 0 11 -4 11 -10z m260 1 c0 -5 -11 -11 -25 -13 -14 -3 -25 -2 -25 3 0 4
10 10 23 12 12 2 23 5 25 6 1 0 2 -3 2 -8z m80 -2 c0 -7 -10 -9 -25 -5 -14 4
-25 2 -25 -4 0 -5 -4 -10 -10 -10 -5 0 -7 7 -4 15 7 17 64 21 64 4z m-1420
-34 c0 -5 -5 -3 -10 5 -5 8 -10 20 -10 25 0 6 5 3 10 -5 5 -8 10 -19 10 -25z
m-10 -26 c0 -5 -4 -9 -10 -9 -5 0 -10 7 -10 16 0 8 5 12 10 9 6 -3 10 -10 10
-16z m1565 2 c3 -5 1 -12 -5 -16 -5 -3 -10 1 -10 9 0 18 6 21 15 7z m215 -6
c0 -8 -2 -15 -4 -15 -2 0 -6 7 -10 15 -3 8 -1 15 4 15 6 0 10 -7 10 -15z
m1320 5 c0 -5 -2 -10 -4 -10 -3 0 -8 5 -11 10 -3 6 -1 10 4 10 6 0 11 -4 11
-10z m-546 -25 c3 -8 1 -15 -4 -15 -6 0 -10 7 -10 15 0 8 2 15 4 15 2 0 6 -7
10 -15z m220 -1 c3 -8 2 -12 -4 -9 -6 3 -10 10 -10 16 0 14 7 11 14 -7z
m-1127 0 c-3 -3 -12 -4 -19 -1 -8 3 -5 6 6 6 11 1 17 -2 13 -5z m-1660 -24 c1
-11 -2 -20 -8 -20 -10 0 -12 23 -2 33 9 9 9 10 10 -13z m1064 -17 c-10 -17
-10 -16 -11 3 0 23 13 41 18 25 2 -6 -1 -18 -7 -28z m1804 26 c11 -17 -1 -21
-15 -4 -8 9 -8 15 -2 15 6 0 14 -5 17 -11z m-1604 -12 c-6 -8 -8 -17 -4 -20 3
-4 -1 -7 -11 -7 -14 0 -15 4 -6 20 6 11 16 20 22 20 7 0 7 -4 -1 -13z m54 -47
c4 -6 12 -7 18 -4 7 4 9 4 5 -1 -4 -4 -3 -16 3 -26 8 -16 13 -17 31 -8 18 10
20 9 15 -5 -4 -9 -2 -16 4 -16 6 0 17 -7 25 -15 9 -8 12 -15 8 -15 -4 0 10
-15 29 -34 24 -22 32 -36 24 -39 -7 -3 -5 -6 6 -6 24 -1 22 -12 -12 -58 -26
-37 -82 -130 -134 -225 -13 -23 -28 -38 -39 -38 -11 0 -16 -5 -13 -10 4 -6 11
-8 16 -5 12 8 11 2 -7 -45 -14 -36 -24 -44 -45 -42 -4 1 -5 -7 -2 -17 3 -13
-2 -21 -16 -26 -12 -3 -35 -18 -51 -32 -29 -24 -30 -26 -14 -44 14 -16 15 -21
3 -35 -11 -14 -11 -18 4 -29 9 -7 17 -14 17 -17 0 -6 -152 -8 -172 -2 -10 3
-18 12 -18 20 0 8 -5 14 -11 14 -5 0 -7 -5 -4 -10 9 -15 -34 -27 -90 -25 -100
4 -110 5 -123 13 -20 13 -26 49 -25 147 1 81 5 99 37 175 20 47 41 93 47 103
6 11 8 21 6 23 -7 8 -37 -26 -37 -42 0 -8 -4 -14 -9 -14 -6 0 -6 11 0 29 7 20
23 34 52 46 26 11 56 36 78 65 56 71 147 138 304 221 79 42 81 43 90 29z m737
-22 c-9 -9 -12 -7 -12 12 0 19 3 21 12 12 9 -9 9 -15 0 -24z m-532 3 c0 -6 -4
-13 -10 -16 -5 -3 -10 1 -10 9 0 9 5 16 10 16 6 0 10 -4 10 -9z m1694 -51 c7
-24 6 -24 -8 -6 -9 11 -16 27 -16 35 0 21 16 2 24 -29z m-1447 8 c-3 -8 -6 -5
-6 6 -1 11 2 17 5 13 3 -3 4 -12 1 -19z m1083 -23 c10 -12 10 -15 -4 -15 -9 0
-16 7 -16 15 0 8 2 15 4 15 2 0 9 -7 16 -15z m180 -55 c0 -5 -2 -10 -4 -10 -3
0 -8 5 -11 10 -3 6 -1 10 4 10 6 0 11 -4 11 -10z m-47 -27 c7 -39 1 -40 -11
-4 -6 17 -7 31 -3 31 5 0 11 -12 14 -27z m-2173 -3 c0 -5 -5 -10 -11 -10 -5 0
-7 5 -4 10 3 6 8 10 11 10 2 0 4 -4 4 -10z m1060 -9 c0 -11 -4 -22 -9 -25 -11
-7 -20 14 -13 32 7 19 22 14 22 -7z m1080 -23 c0 -19 -2 -20 -10 -8 -13 19
-13 30 0 30 6 0 10 -10 10 -22z m-1296 -10 c8 -32 7 -38 -4 -38 -13 0 -32 38
-25 50 10 17 22 11 29 -12z m60 6 c3 -8 2 -12 -4 -9 -6 3 -10 10 -10 16 0 14
7 11 14 -7z m115 -54 c0 -10 -3 -8 -9 5 -12 27 -12 43 0 25 5 -8 9 -22 9 -30z
m-924 20 c3 -5 1 -10 -4 -10 -6 0 -11 5 -11 10 0 6 2 10 4 10 3 0 8 -4 11 -10z
m725 -30 c0 -11 -4 -20 -10 -20 -5 0 -10 9 -10 20 0 11 5 20 10 20 6 0 10 -9
10 -20z m1257 -12 c-3 -8 -6 -5 -6 6 -1 11 2 17 5 13 3 -3 4 -12 1 -19z m400
-10 c-3 -7 -5 -2 -5 12 0 14 2 19 5 13 2 -7 2 -19 0 -25z m-2576 5 c-15 -28
-40 -59 -41 -50 0 8 41 67 47 67 2 0 -1 -8 -6 -17z m2409 -35 c0 -6 -7 -5 -15
2 -8 7 -15 17 -15 22 0 6 7 5 15 -2 8 -7 15 -17 15 -22z m-7 -38 c3 -11 1 -23
-4 -26 -6 -3 -5 -11 2 -20 9 -12 9 -13 -3 -9 -8 3 -14 19 -14 40 0 38 11 47
19 15z m-2451 -12 c-7 -7 -12 -8 -12 -2 0 14 12 26 19 19 2 -3 -1 -11 -7 -17z
m1231 -21 c-4 -19 -8 -25 -13 -16 -5 7 -3 20 3 30 15 23 16 20 10 -14z m-1252
-24 c-12 -20 -14 -14 -5 12 4 9 9 14 11 11 3 -2 0 -13 -6 -23z m2727 2 c-3 -3
-9 2 -12 12 -6 14 -5 15 5 6 7 -7 10 -15 7 -18z m-2816 -17 c-7 -7 -12 -8 -12
-2 0 14 12 26 19 19 2 -3 -1 -11 -7 -17z m834 -84 c-3 -8 -10 -12 -16 -9 -7 4
-6 14 2 28 12 24 24 8 14 -19z m1431 -1 c-3 -10 -5 -4 -5 12 0 17 2 24 5 18 2
-7 2 -21 0 -30z m56 -23 c-7 -8 -33 32 -33 49 0 9 8 3 19 -14 10 -16 16 -32
14 -35z m524 38 c-3 -8 -6 -5 -6 6 -1 11 2 17 5 13 3 -3 4 -12 1 -19z m-2796
-29 c-5 -13 -10 -19 -10 -12 -1 15 10 45 15 40 3 -2 0 -15 -5 -28z m1493 -15
c3 -8 2 -12 -4 -9 -6 3 -10 10 -10 16 0 14 7 11 14 -7z m-129 -33 c-8 -14 -32
-14 -41 0 -4 8 0 9 15 4 14 -4 21 -2 21 6 0 7 3 10 6 6 3 -3 3 -10 -1 -16z
m206 -8 c-12 -20 -14 -14 -5 12 4 9 9 14 11 11 3 -2 0 -13 -6 -23z m-464 10
c-12 -3 -16 -10 -12 -21 5 -13 3 -14 -6 -5 -14 14 -3 33 19 32 15 -1 14 -2 -1
-6z m173 -13 c0 -11 -7 -20 -15 -20 -18 0 -19 6 -2 25 16 19 17 18 17 -5z
m635 10 c3 -5 1 -10 -4 -10 -6 0 -11 5 -11 10 0 6 2 10 4 10 3 0 8 -4 11 -10z
m-380 -9 c7 -12 -12 -24 -25 -16 -11 7 -4 25 10 25 5 0 11 -4 15 -9z m-485
-21 c-8 -5 -17 -7 -19 -4 -3 3 1 9 9 14 8 5 17 7 19 4 3 -3 -1 -9 -9 -14z
m730 -20 c0 -5 -4 -10 -10 -10 -5 0 -10 5 -10 10 0 6 5 10 10 10 6 0 10 -4 10
-10z m594 -45 c3 -8 1 -15 -4 -15 -6 0 -10 7 -10 15 0 8 2 15 4 15 2 0 6 -7
10 -15z m484 -21 c-3 -14 -5 -12 -10 9 -3 19 -2 25 4 19 6 -6 8 -18 6 -28z
m-2124 -16 c-10 -18 -19 -28 -21 -21 -5 15 15 53 28 53 5 0 2 -15 -7 -32z
m-685 -54 c1 -30 9 -90 17 -132 9 -42 19 -95 23 -117 5 -22 27 -84 49 -139 26
-61 36 -93 26 -85 -14 12 -16 11 -12 -6 2 -11 9 -19 15 -18 6 1 32 -63 59
-142 40 -121 46 -147 35 -157 -11 -10 -12 -10 -7 0 7 12 -4 16 -31 13 -7 -1
-13 3 -13 9 0 5 6 10 13 11 6 0 2 5 -10 11 -15 7 -23 20 -23 35 0 13 -4 22 -9
18 -6 -3 -8 5 -5 19 3 17 -1 25 -16 29 -11 3 -20 10 -20 16 0 6 7 8 16 4 14
-5 16 -2 11 20 -5 16 -2 27 6 30 6 3 2 6 -10 6 -13 1 -23 -5 -24 -11 -1 -15
-27 50 -28 70 -1 6 3 11 8 10 9 -3 11 2 11 23 0 8 -4 9 -13 0 -19 -15 -27 -4
-27 38 0 36 -19 83 -20 51 -1 -8 -10 3 -22 25 -11 22 -27 48 -36 58 -14 15
-14 17 1 17 15 0 15 4 2 41 -15 42 -16 119 -1 119 5 0 6 13 3 29 -3 15 -1 33
5 39 9 9 8 18 -1 38 -9 21 -9 30 1 42 10 12 10 14 1 8 -16 -9 -17 8 -2 36 16
29 26 9 28 -58z m2550 -87 l0 -22 -10 24 c-5 13 -19 37 -30 55 l-21 31 31 -33
c17 -18 31 -42 30 -55z m-2034 43 c3 -5 1 -10 -4 -10 -6 0 -11 5 -11 10 0 6 2
10 4 10 3 0 8 -4 11 -10z m265 3 c0 -5 -5 -15 -10 -23 -8 -12 -10 -11 -10 8 0
12 5 22 10 22 6 0 10 -3 10 -7z m-430 -32 c0 -12 -20 -25 -27 -18 -7 7 6 27
18 27 5 0 9 -4 9 -9z m990 -77 c20 -75 19 -98 -4 -43 -13 33 -29 125 -20 116
2 -2 13 -35 24 -73z m-2706 31 c3 -8 1 -15 -4 -15 -6 0 -10 7 -10 15 0 8 2 15
4 15 2 0 6 -7 10 -15z m1646 11 c0 -3 -4 -8 -10 -11 -5 -3 -10 -1 -10 4 0 6 5
11 10 11 6 0 10 -2 10 -4z m2603 -38 c6 -22 5 -22 -8 -4 -17 22 -20 40 -6 32
5 -3 11 -16 14 -28z m-1288 3 c-6 -5 -21 -11 -35 -15 -21 -5 -20 -3 5 9 35 17
42 18 30 6z m-705 -38 c0 -5 -5 -15 -10 -23 -8 -12 -10 -11 -10 8 0 12 5 22
10 22 6 0 10 -3 10 -7z m555 -25 c-90 -46 -136 -80 -125 -93 8 -9 -8 -26 -61
-66 -39 -30 -76 -53 -81 -51 -5 1 -7 -1 -4 -6 3 -5 -11 -24 -30 -43 -43 -41
-115 -140 -140 -192 l-18 -38 -206 -66 -205 -66 0 -81 c0 -100 -16 -148 -66
-195 l-38 -37 24 -80 c13 -43 67 -221 120 -394 53 -173 120 -394 149 -490 l53
-175 57 -14 c68 -16 155 -88 182 -152 10 -21 25 -39 33 -39 9 0 84 19 166 41
83 23 170 47 195 53 41 11 50 10 95 -10 64 -29 219 -74 255 -74 39 0 60 -9 60
-26 0 -8 7 -14 15 -14 9 0 12 6 9 15 -4 8 -1 15 5 15 6 0 11 -9 11 -20 0 -17
-7 -20 -47 -20 -68 0 -186 26 -271 61 -41 16 -83 29 -95 29 -13 0 -99 -22
-192 -49 -246 -71 -228 -69 -249 -24 -49 106 -121 165 -201 167 l-43 1 -27 95
c-15 52 -56 185 -90 295 -98 313 -244 797 -250 830 -5 26 -1 33 27 50 50 31
72 79 73 155 0 36 -3 79 -7 97 l-7 32 112 35 c62 19 158 49 214 66 l101 31 42
71 c50 83 179 217 270 278 71 49 199 120 215 119 6 0 -8 -9 -30 -21z m1455 12
c0 -5 -4 -10 -10 -10 -5 0 -10 5 -10 10 0 6 5 10 10 10 6 0 10 -4 10 -10z
m-40 -9 c0 -5 3 -18 6 -28 5 -16 4 -16 -10 1 -18 23 -20 36 -6 36 6 0 10 -4
10 -9z m-2375 -43 c-4 -13 -9 -31 -11 -40 -3 -10 -10 -18 -15 -18 -5 0 -9 8
-9 18 0 34 13 62 27 62 10 0 12 -7 8 -22z m-525 -31 c0 -5 -4 -5 -10 -2 -5 3
-10 14 -10 23 0 15 2 15 10 2 5 -8 10 -19 10 -23z m2580 29 c0 -3 -4 -8 -10
-11 -5 -3 -10 -1 -10 4 0 6 5 11 10 11 6 0 10 -2 10 -4z m-2252 -28 c-6 -18
-28 -21 -28 -4 0 9 7 16 16 16 9 0 14 -5 12 -12z m2252 -24 c0 -8 -4 -12 -10
-9 -5 3 -10 10 -10 16 0 5 5 9 10 9 6 0 10 -7 10 -16z m-1145 -38 c-55 -33
-177 -130 -222 -178 -47 -50 -102 -128 -144 -204 -13 -25 -31 -34 -114 -59
-237 -71 -290 -91 -293 -109 -4 -16 -2 -16 16 2 10 10 55 29 98 41 207 57 280
81 292 98 7 10 35 53 62 96 28 43 73 101 102 129 59 58 168 141 176 133 3 -2
11 3 18 13 12 16 13 16 14 0 0 -9 5 -18 12 -20 7 -3 9 -12 4 -24 -7 -18 -8
-18 -20 -1 -13 16 -14 16 -19 -3 -5 -19 -2 -21 28 -17 26 4 34 1 38 -14 3 -11
1 -17 -3 -14 -13 8 -37 -5 -37 -20 0 -11 4 -12 13 -4 8 6 29 11 49 12 19 1 35
5 35 10 0 4 -4 6 -9 3 -12 -8 -21 18 -11 34 11 18 28 4 28 -25 0 -18 -11 -31
-36 -47 -30 -19 -33 -23 -17 -28 18 -6 18 -7 0 -18 -11 -6 -16 -14 -11 -19 4
-4 24 10 43 32 20 22 31 30 24 18 -25 -48 -78 -93 -110 -93 -24 0 -31 4 -31
19 0 11 5 23 12 27 8 5 9 2 5 -9 -4 -11 -1 -17 8 -17 22 0 29 20 13 36 -20 21
-48 7 -55 -27 -4 -20 -13 -30 -32 -34 -14 -3 -34 -17 -44 -31 -22 -29 -11 -31
23 -4 17 14 41 20 77 20 45 0 58 5 89 32 21 18 46 32 56 30 10 -2 21 3 24 11
3 9 14 12 29 9 16 -3 27 2 36 15 12 20 59 21 59 1 0 -5 -4 -6 -10 -3 -5 3 -18
1 -27 -4 -16 -9 -16 -10 5 -11 16 0 22 -5 20 -17 -2 -10 4 -19 14 -21 14 -3
16 1 11 15 -3 10 -3 15 2 11 4 -4 15 -2 24 5 14 10 14 10 3 -5 -10 -13 -10
-17 0 -21 9 -3 7 -9 -7 -20 -13 -10 -22 -12 -26 -5 -4 7 -9 6 -13 -1 -14 -22
5 -31 30 -15 13 9 24 12 24 6 0 -6 -4 -12 -9 -14 -5 -1 -11 -9 -13 -17 -4 -18
40 -25 60 -9 12 10 14 10 8 1 -4 -8 -2 -13 4 -13 6 0 8 -5 4 -11 -5 -8 -9 -8
-14 1 -5 8 -9 8 -13 -4 -3 -8 -2 -16 3 -18 5 -2 2 -14 -6 -28 -14 -23 -14 -23
-9 -2 4 12 3 22 -1 22 -10 0 -54 -53 -48 -59 3 -3 9 1 15 9 8 13 10 13 19 0 9
-13 13 -12 26 5 16 19 16 19 12 -7 -4 -21 -2 -25 11 -20 14 5 13 2 -1 -15 -20
-22 -25 -44 -6 -25 8 8 15 9 25 1 10 -9 13 -7 13 10 0 11 5 21 11 21 6 0 9 -7
6 -15 -4 -8 -2 -17 3 -20 13 -8 13 -35 0 -35 -5 0 -7 7 -3 16 5 14 3 15 -15 5
-12 -7 -22 -14 -22 -17 0 -3 5 -2 10 1 6 3 10 1 10 -5 0 -7 -6 -10 -12 -7 -7
2 -12 11 -12 20 1 12 -4 14 -19 8 -25 -9 -30 -21 -18 -40 5 -8 14 -10 22 -5 7
4 23 8 35 9 27 1 38 -29 18 -46 -9 -7 -14 -8 -14 -1 0 6 6 13 13 15 6 3 -4 6
-23 6 -28 0 -32 -2 -17 -10 23 -13 22 -23 -6 -38 -13 -7 -29 -22 -36 -34 -13
-21 -12 -21 5 -5 16 16 18 16 30 0 8 -11 13 -12 14 -4 0 14 20 17 20 3 0 -15
-33 -22 -43 -9 -5 9 -7 3 -3 -14 4 -19 2 -28 -6 -28 -7 -1 -2 -7 12 -15 l25
-13 -25 -10 c-14 -5 -159 -51 -322 -103 -163 -51 -296 -95 -294 -97 2 -2 139
38 304 87 166 50 305 91 309 90 31 -3 -993 -319 -1033 -319 -15 0 -39 38 -29
48 3 4 10 0 15 -8 8 -13 10 -12 10 3 0 18 -25 24 -35 8 -3 -5 0 -21 6 -35 21
-45 -15 -54 812 195 148 45 271 78 274 75 4 -3 2 -6 -4 -6 -6 0 -17 -20 -24
-43 -9 -33 -19 -47 -41 -55 -24 -9 -28 -14 -20 -29 19 -36 70 -226 65 -240 -5
-12 -1 -14 15 -9 11 4 23 3 25 -1 3 -5 -6 -10 -19 -11 -18 -1 -36 10 -63 39
-38 39 -39 41 -24 70 12 23 12 36 3 64 -21 63 -80 90 -143 66 l-25 -10 34
-113 c38 -127 40 -138 21 -138 -15 0 -37 41 -37 70 0 10 -6 23 -14 27 -15 9
-66 103 -66 123 0 8 -9 10 -27 5 -16 -4 -28 -7 -29 -8 -1 -1 3 -42 8 -92 5
-49 8 -114 6 -143 -3 -52 1 -57 34 -44 13 5 15 11 8 22 -16 25 -11 39 19 54
28 15 29 15 35 -10 4 -14 4 -29 1 -34 -8 -14 0 -12 42 5 20 8 38 13 41 10 3
-3 12 1 20 8 13 10 14 9 8 -1 -7 -11 -4 -12 13 -3 22 12 29 31 11 31 -11 0
-34 50 -26 57 3 3 27 -16 55 -42 56 -52 93 -61 116 -28 7 11 32 32 54 47 30
21 42 38 48 65 6 34 7 34 13 11 4 -14 3 -30 -2 -36 -10 -14 51 -17 72 -4 14 9
47 -16 36 -27 -4 -4 4 -13 16 -21 l23 -13 -22 4 c-13 3 -25 1 -28 -4 -9 -14
-535 -181 -915 -289 -118 -34 -221 -66 -227 -72 -17 -14 -16 -40 1 -63 12 -16
16 -17 29 -6 21 16 10 44 -14 38 -22 -6 -25 6 -6 21 6 5 57 22 112 37 128 34
685 196 790 229 44 14 85 25 90 25 20 -1 -215 -77 -507 -164 -164 -49 -296
-91 -294 -93 4 -4 332 91 676 195 118 36 225 66 238 68 12 1 26 5 29 9 4 3 14
-1 23 -9 19 -17 40 -17 53 0 7 10 27 -11 27 -30 0 -5 -5 -3 -10 5 -7 12 -12
12 -22 2 -9 -9 -9 -12 2 -12 25 0 -7 -23 -37 -27 -46 -5 -52 -6 -51 -12 0 -3
0 -15 -1 -26 -1 -18 -2 -18 -17 -3 -13 13 -22 14 -48 6 -17 -6 -32 -11 -33
-12 -1 -1 8 -37 21 -81 24 -87 24 -87 99 -69 16 4 27 2 27 -4 0 -6 -8 -9 -17
-7 -10 1 -12 0 -5 -2 8 -3 12 -13 9 -24 -7 -28 2 -23 13 6 5 14 16 25 25 25
20 0 19 -10 -1 -25 -17 -12 -28 -65 -14 -65 4 0 13 7 20 15 20 24 32 17 15 -9
-15 -23 -11 -61 5 -51 5 3 11 1 15 -5 3 -5 0 -10 -8 -10 -8 0 -18 -7 -21 -16
-3 -9 -11 -12 -18 -8 -9 4 -8 2 1 -7 10 -11 15 -11 18 -1 3 6 9 12 15 12 5 0
1 -11 -10 -25 -38 -48 9 -111 55 -74 15 12 16 12 10 -3 -4 -11 -2 -18 5 -18 6
0 9 -2 7 -4 -3 -3 -22 -1 -44 5 -22 5 -48 12 -59 14 -28 7 -29 10 -10 47 15
30 15 32 1 19 -15 -12 -21 -9 -19 11 3 15 -54 -10 -63 -29 -9 -18 -13 -19 -28
-8 -18 13 -57 9 -57 -5 0 -12 28 -20 32 -9 3 10 48 -17 48 -30 0 -5 -30 3 -67
16 -87 32 -156 28 -189 -10 -31 -36 -82 -61 -98 -48 -10 8 -21 7 -42 -4 l-29
-15 30 2 c17 1 36 -2 43 -6 7 -4 27 1 46 12 33 20 34 20 39 1 3 -10 17 -24 32
-31 25 -11 29 -10 47 12 16 20 17 25 4 38 -8 8 -19 11 -26 7 -8 -5 -6 -11 7
-20 17 -13 17 -14 1 -20 -29 -12 -48 2 -48 34 0 41 29 55 96 48 29 -3 61 -10
71 -16 15 -9 11 -10 -19 -11 -25 0 -38 -5 -38 -13 0 -9 10 -12 33 -9 30 4 31
3 12 -11 -11 -9 -16 -19 -11 -24 5 -4 11 -2 13 5 3 6 15 12 28 12 32 0 76 -21
68 -33 -3 -5 -9 -3 -14 4 -6 10 -9 8 -9 -8 0 -13 -5 -23 -11 -23 -6 0 -9 9 -6
20 3 11 2 20 -2 20 -14 0 -40 -40 -38 -59 1 -23 12 -28 21 -8 5 10 7 10 12 0
9 -20 21 -15 28 10 5 18 8 19 15 7 8 -11 12 -9 20 14 7 17 17 26 28 24 23 -4
27 -23 8 -41 -8 -9 -15 -23 -15 -31 0 -18 -8 -20 -30 -7 -8 6 -18 7 -23 4 -5
-3 -4 -9 3 -13 8 -5 2 -12 -18 -21 -31 -13 -49 -54 -28 -63 6 -2 3 -5 -6 -5
-23 -1 -32 17 -17 35 16 19 4 30 -16 14 -10 -8 -15 -9 -15 -2 0 6 9 16 21 23
16 8 18 14 10 22 -8 8 -17 6 -33 -11 -20 -19 -20 -23 -6 -39 26 -31 30 -43 14
-43 -9 0 -16 8 -17 18 0 10 -3 12 -6 5 -2 -7 -17 -13 -32 -13 -42 0 -170 36
-241 68 l-64 28 -195 -56 -195 -57 -40 54 c-22 29 -43 53 -48 53 -4 0 -8 5 -8
10 0 6 8 10 17 10 14 0 14 3 5 12 -10 10 -15 10 -22 -2 -8 -12 -11 -12 -27 1
-20 17 -88 46 -117 51 -13 2 -24 20 -36 58 -22 69 -25 57 -4 -16 12 -44 20
-54 37 -54 59 -1 165 -77 209 -148 12 -21 22 -38 23 -40 2 -3 161 39 317 84
l87 25 48 -24 c26 -13 80 -34 118 -46 39 -13 77 -25 85 -28 19 -7 64 -13 118
-15 58 -2 53 -17 -5 -17 -76 1 -225 35 -299 69 l-68 31 -71 -22 c-109 -33
-316 -89 -329 -89 -7 0 -18 11 -24 25 -18 40 -99 121 -140 141 -20 10 -52 20
-71 23 -33 6 -35 9 -58 86 -14 44 -69 224 -123 400 -54 176 -118 389 -144 473
l-45 153 33 34 c41 41 65 108 73 202 7 82 -1 75 133 113 41 12 118 35 172 51
l96 29 32 58 c43 76 90 134 169 207 71 66 191 146 205 137 6 -3 2 -10 -9 -16z
m112 2 c2 -17 0 -19 -6 -9 -5 8 -16 11 -25 8 -16 -6 -22 4 -9 16 15 15 39 6
40 -15z m-2856 -32 c54 -25 56 -28 45 -51 -13 -29 -22 -30 -76 -9 -44 18 -60
39 -60 79 0 21 3 24 18 17 9 -5 42 -21 73 -36z m1526 22 c-3 -8 -6 -5 -6 6 -1
11 2 17 5 13 3 -3 4 -12 1 -19z m1263 -3 c-7 -8 -17 -15 -23 -15 -6 0 -2 7 9
15 25 19 30 19 14 0z m-1470 -20 c0 -8 -2 -15 -4 -15 -2 0 -6 7 -10 15 -3 8
-1 15 4 15 6 0 10 -7 10 -15z m198 -10 c-3 -3 -9 2 -12 12 -6 14 -5 15 5 6 7
-7 10 -15 7 -18z m2402 -82 c0 -8 -7 -10 -22 -4 -18 6 -22 17 -24 62 l-2 54
24 -50 c13 -27 24 -55 24 -62z m-2317 77 c3 -11 1 -20 -4 -20 -5 0 -9 9 -9 20
0 11 2 20 4 20 2 0 6 -9 9 -20z m1247 -20 c0 -5 -4 -10 -9 -10 -6 0 -13 5 -16
10 -3 6 1 10 9 10 9 0 16 -4 16 -10z m40 -10 c0 -5 -4 -10 -10 -10 -5 0 -10 5
-10 10 0 6 5 10 10 10 6 0 10 -4 10 -10z m-2500 -24 c0 -3 -4 -16 -10 -30 -10
-28 -53 -38 -45 -11 3 8 7 22 10 30 4 13 45 23 45 11z m2575 -29 c6 -5 3 -7
-7 -3 -12 3 -18 0 -18 -10 0 -8 5 -12 10 -9 6 3 10 2 10 -4 0 -5 -8 -9 -19 -8
-16 1 -17 5 -9 30 6 15 13 24 17 20 3 -4 11 -12 16 -16z m-2912 -13 c9 -9 -4
-35 -14 -28 -5 3 -9 12 -9 20 0 14 12 19 23 8z m1649 -36 c-15 -15 -26 -4 -18
18 5 13 9 15 18 6 9 -9 9 -15 0 -24z m2633 -31 c-20 -11 -29 -3 -21 19 5 13 9
14 22 3 14 -11 14 -13 -1 -22z m-4320 9 c0 0 6 -11 13 -23 17 -32 15 -76 -5
-99 -10 -10 -19 -30 -21 -44 -6 -46 -29 -70 -67 -70 -28 0 -38 5 -47 25 -14
30 5 105 26 105 8 0 13 6 13 13 -1 6 9 34 22 60 19 41 25 47 44 41 12 -3 22
-7 22 -8z m2932 8 c-3 -3 -12 -4 -19 -1 -8 3 -5 6 6 6 11 1 17 -2 13 -5z m988
-14 c3 -5 1 -10 -4 -10 -6 0 -11 5 -11 10 0 6 2 10 4 10 3 0 8 -4 11 -10z
m-2020 -30 c-3 -5 0 -10 7 -10 8 0 7 -5 -5 -17 -9 -9 -19 -14 -23 -11 -8 9 5
48 17 48 6 0 7 -4 4 -10z m2136 -20 c14 -19 17 -32 11 -55 l-8 -30 -8 25 c-5
14 -7 29 -7 34 1 5 -5 6 -12 3 -11 -4 -13 0 -9 15 3 11 -1 24 -9 30 -11 7 -10
8 5 6 10 -2 27 -14 37 -28z m-1948 -15 c-12 -25 -23 -35 -40 -35 -13 0 -23 4
-23 9 0 18 42 61 61 61 18 0 18 -1 2 -35z m-1853 -11 c0 -3 5 -37 11 -75 12
-77 6 -119 -15 -119 -8 0 -17 15 -20 35 -4 19 -11 35 -17 35 -12 0 -4 82 11
110 10 18 30 28 30 14z m3735 -3 c3 -5 2 -12 -3 -15 -5 -3 -9 1 -9 9 0 17 3
19 12 6z m55 -66 c0 -5 -5 -3 -10 5 -5 8 -10 20 -10 25 0 6 5 3 10 -5 5 -8 10
-19 10 -25z m-30 -50 c0 -13 7 -28 16 -33 14 -8 13 -10 -6 -15 -12 -3 -19 -3
-16 0 3 3 -1 21 -9 39 -12 30 -12 34 1 34 8 0 14 -10 14 -25z m34 10 c3 -8 1
-15 -4 -15 -6 0 -10 7 -10 15 0 8 2 15 4 15 2 0 6 -7 10 -15z m410 -120 c3
-22 3 -32 0 -22 -3 9 -10 17 -16 17 -5 0 -8 6 -5 13 2 6 0 23 -5 37 -8 22 -7
23 6 10 8 -8 17 -33 20 -55z m-426 -35 c5 -22 6 -40 2 -40 -8 0 -11 8 -26 63
-3 9 -1 17 4 17 5 0 14 -18 20 -40z m-776 -59 c0 -23 4 -43 8 -46 5 -3 6 -14
3 -25 -5 -19 -7 -19 -28 6 -13 15 -28 23 -34 20 -6 -4 -11 -3 -11 3 0 5 6 11
13 14 9 3 9 7 -1 19 -13 16 -7 48 9 48 6 0 6 -8 0 -19 -10 -19 -6 -31 12 -31
5 0 6 7 3 16 -6 16 12 49 21 40 2 -2 4 -22 5 -45z m-1412 19 c0 -5 -4 -10 -10
-10 -5 0 -10 5 -10 10 0 6 5 10 10 10 6 0 10 -4 10 -10z m2644 -39 c-6 -6 -24
19 -24 34 1 6 7 1 15 -9 8 -11 12 -22 9 -25z m-397 7 c-3 -8 -6 -5 -6 6 -1 11
2 17 5 13 3 -3 4 -12 1 -19z m-937 -2 c0 -3 -4 -8 -10 -11 -5 -3 -10 -1 -10 4
0 6 5 11 10 11 6 0 10 -2 10 -4z m1009 -66 c0 -9 -4 -8 -9 5 -5 11 -9 27 -9
35 0 9 4 8 9 -5 5 -11 9 -27 9 -35z m-959 10 c0 -5 -2 -10 -4 -10 -3 0 -8 5
-11 10 -3 6 -1 10 4 10 6 0 11 -4 11 -10z m350 -15 c-7 -9 -15 -13 -17 -11 -6
6 20 36 26 30 2 -2 -2 -10 -9 -19z m-380 5 c0 -5 8 -10 18 -10 16 -1 16 -1 0
-14 -10 -7 -18 -18 -18 -24 0 -6 -6 -14 -12 -18 -7 -4 -10 -4 -7 0 4 4 3 23
-1 42 -6 26 -5 34 6 34 8 0 14 -4 14 -10z m1320 -30 c0 -5 -2 -10 -4 -10 -3 0
-8 5 -11 10 -3 6 -1 10 4 10 6 0 11 -4 11 -10z m-1300 -76 c0 -9 5 -12 11 -8
9 5 10 -1 5 -20 -5 -21 -4 -26 6 -20 11 6 11 4 0 -7 -11 -12 -14 -12 -22 1 -5
8 -6 18 -4 22 3 4 0 16 -6 25 -8 14 -10 7 -5 -32 7 -63 0 -74 -41 -60 l-32 10
35 53 c35 53 53 65 53 36z m60 6 c0 -5 -7 -10 -16 -10 -8 0 -12 5 -9 10 3 6
10 10 16 10 5 0 9 -4 9 -10z m0 -30 c0 -5 -5 -10 -11 -10 -5 0 -7 5 -4 10 3 6
8 10 11 10 2 0 4 -4 4 -10z m1318 -50 c-2 -7 -10 1 -17 16 -12 27 -11 28 4 12
10 -9 16 -21 13 -28z m27 -71 c10 -30 2 -32 -12 -3 -6 13 -7 24 -3 24 5 0 12
-9 15 -21z m-1457 -25 c4 -39 -23 -55 -32 -19 -3 13 -9 31 -12 40 -5 13 -2 16
17 13 19 -2 25 -10 27 -34z m-1408 -8 c-14 -14 -24 0 -16 21 6 15 8 15 16 3 6
-9 5 -19 0 -24z m1483 8 c-7 -3 -9 -13 -6 -22 4 -14 3 -14 -5 -2 -12 16 -7 30
11 29 9 0 9 -2 0 -5z m-235 -27 c21 -25 25 -66 7 -93 -9 -14 -18 -24 -20 -22
-3 2 -13 32 -24 66 l-19 62 23 0 c12 0 27 -6 33 -13z m250 -12 c-1 -14 -6 -25
-11 -25 -5 0 -6 7 -3 16 3 9 6 20 6 25 0 5 2 9 5 9 3 0 4 -11 3 -25z m1022
-20 c0 -8 4 -15 10 -15 10 0 34 -79 27 -87 -3 -2 -10 13 -17 34 -7 21 -17 43
-24 48 -15 13 -19 35 -6 35 6 0 10 -7 10 -15z m-1069 -36 c15 -23 10 -58 -9
-68 -16 -9 -21 -3 -34 39 l-16 48 25 -3 c14 -1 29 -9 34 -16z m-1371 -5 c0 -8
-5 -12 -10 -9 -6 4 -8 11 -5 16 9 14 15 11 15 -7z m2510 -5 c0 -6 -4 -7 -10
-4 -5 3 -10 11 -10 16 0 6 5 7 10 4 6 -3 10 -11 10 -16z m-1498 -107 c-15 -11
-18 -9 -23 15 -4 15 -7 42 -7 58 -1 29 0 28 23 -15 22 -42 22 -46 7 -58z
m1826 33 c-3 -3 -9 2 -12 12 -6 14 -5 15 5 6 7 -7 10 -15 7 -18z m20 -70 c-3
-3 -9 2 -12 12 -6 14 -5 15 5 6 7 -7 10 -15 7 -18z m-2823 -43 c-8 -8 -25 10
-19 20 4 6 9 5 15 -3 4 -7 6 -15 4 -17z m1460 8 c-11 -5 -27 -9 -35 -9 -9 0
-8 4 5 9 11 5 27 9 35 9 9 0 8 -4 -5 -9z m1069 -109 c3 -5 -1 -11 -9 -14 -9
-4 -12 -1 -8 9 6 16 10 17 17 5z m-974 -22 c0 -6 -4 -7 -10 -4 -5 3 -10 11
-10 16 0 6 5 7 10 4 6 -3 10 -11 10 -16z m1108 -34 c1 -25 -3 -45 -9 -45 -6 0
-8 9 -4 20 8 24 7 24 -40 4 -20 -8 -40 -13 -43 -9 -3 3 13 13 36 22 23 9 44
24 47 34 9 29 12 23 13 -26z m-83 25 c3 -5 1 -10 -4 -10 -6 0 -11 5 -11 10 0
6 2 10 4 10 3 0 8 -4 11 -10z m45 -4 c0 -3 -4 -8 -10 -11 -5 -3 -10 -1 -10 4
0 6 5 11 10 11 6 0 10 -2 10 -4z m-1165 -15 c3 -5 1 -12 -5 -16 -5 -3 -10 1
-10 9 0 18 6 21 15 7z m1065 5 c0 -3 -4 -8 -10 -11 -5 -3 -10 -1 -10 4 0 6 5
11 10 11 6 0 10 -2 10 -4z m25 -46 c3 -5 -1 -10 -9 -10 -9 0 -16 5 -16 10 0 6
4 10 9 10 6 0 13 -4 16 -10z m85 -9 c0 -13 -28 -22 -35 -11 -3 4 1 11 7 13 20
8 28 8 28 -2z m-786 -16 c-4 -8 -8 -15 -10 -15 -2 0 -4 7 -4 15 0 8 4 15 10
15 5 0 7 -7 4 -15z m-364 -5 c0 -5 -5 -10 -11 -10 -5 0 -7 5 -4 10 3 6 8 10
11 10 2 0 4 -4 4 -10z m1168 -55 c-3 -3 -9 2 -12 12 -6 14 -5 15 5 6 7 -7 10
-15 7 -18z m-1041 -27 c2 -18 0 -20 -7 -8 -12 18 -13 30 -2 30 4 0 9 -10 9
-22z m181 -6 c2 -15 -2 -22 -12 -22 -11 0 -16 9 -16 26 0 31 23 28 28 -4z
m817 19 c3 -5 1 -12 -5 -16 -5 -3 -10 1 -10 9 0 18 6 21 15 7z m-2635 -21 c0
-5 -2 -10 -4 -10 -3 0 -8 5 -11 10 -3 6 -1 10 4 10 6 0 11 -4 11 -10z m3000
-111 c5 -16 5 -29 0 -29 -4 0 -10 10 -13 23 -3 12 -8 33 -12 47 -6 22 -5 23 5
7 7 -10 16 -32 20 -48z m-307 -9 c-6 -6 -33 30 -33 43 0 5 9 -1 19 -14 11 -13
17 -26 14 -29z m-1023 -54 c14 -18 14 -19 -9 -7 -19 11 -25 11 -32 0 -6 -10
-9 -10 -9 -2 0 9 33 38 35 30 0 -1 7 -11 15 -21z m930 -40 c0 -12 -5 -7 -19
24 -11 24 -11 24 3 6 9 -11 16 -24 16 -30z m-1064 18 c-3 -9 -6 -21 -6 -27 0
-7 -5 -4 -11 6 -11 18 -5 37 13 37 5 0 7 -7 4 -16z m1492 -19 c-3 -3 -9 2 -12
12 -6 14 -5 15 5 6 7 -7 10 -15 7 -18z m-284 -65 c9 -22 16 -50 15 -63 -1 -19
-2 -19 -9 5 -4 15 -18 44 -30 63 -17 28 -19 35 -7 35 8 0 22 -18 31 -40z
m-1284 20 c8 -5 11 -10 5 -10 -5 0 -17 5 -25 10 -8 5 -10 10 -5 10 6 0 17 -5
25 -10z m153 -4 c4 -10 1 -13 -9 -9 -15 6 -19 23 -5 23 5 0 11 -7 14 -14z m42
-6 c-3 -5 -11 -10 -16 -10 -6 0 -7 5 -4 10 3 6 11 10 16 10 6 0 7 -4 4 -10z
m1380 -60 c3 -5 1 -10 -4 -10 -6 0 -11 5 -11 10 0 6 2 10 4 10 3 0 8 -4 11
-10z m-1462 -78 c-10 -25 -11 -37 -3 -42 6 -4 8 -14 4 -23 -3 -9 -10 -14 -16
-11 -5 3 -7 12 -4 20 3 7 1 16 -5 20 -6 4 -4 14 5 29 11 17 12 25 4 27 -9 3
-8 9 2 20 23 24 30 1 13 -40z m307 14 c-14 -14 -24 0 -16 21 6 15 8 15 16 3 6
-9 5 -19 0 -24z m1180 -14 c0 -15 -2 -15 -10 -2 -13 20 -13 33 0 25 6 -3 10
-14 10 -23z m-2791 -127 c16 -49 32 -102 35 -117 2 -14 9 -36 15 -47 7 -11 12
-36 13 -56 1 -19 5 -32 10 -29 4 3 8 -4 8 -15 0 -12 -2 -21 -5 -21 -9 0 -36
61 -31 69 3 5 -1 14 -9 21 -9 7 -14 24 -13 39 2 19 -2 26 -13 25 -11 -1 -14 5
-11 23 3 16 -3 32 -18 49 -13 13 -21 24 -17 24 3 0 0 12 -8 27 -12 23 -12 28
2 38 14 11 14 14 -1 37 -9 13 -13 28 -9 31 11 12 20 -5 52 -98z m2809 70 c-3
-3 -9 2 -12 12 -6 14 -5 15 5 6 7 -7 10 -15 7 -18z m-1568 11 c0 -3 -4 -8 -10
-11 -5 -3 -10 -1 -10 4 0 6 5 11 10 11 6 0 10 -2 10 -4z m-33 -20 c-3 -8 -1
-17 6 -20 7 -2 4 -5 -5 -5 -10 -1 -18 1 -18 3 0 10 13 36 17 36 3 0 3 -6 0
-14z m43 -136 c0 -5 -4 -10 -10 -10 -5 0 -10 5 -10 10 0 6 5 10 10 10 6 0 10
-4 10 -10z m1220 -41 c18 -33 7 -41 -12 -9 -9 17 -13 30 -8 30 5 0 14 -9 20
-21z m-1734 -87 c-23 -23 -33 -6 -10 19 12 13 20 16 22 9 3 -7 -3 -19 -12 -28z
m1848 22 c9 -24 2 -26 -12 -4 -7 11 -8 20 -3 20 5 0 12 -7 15 -16z m-2363 -17
c-1 -12 -15 -9 -19 4 -3 6 1 10 8 8 6 -3 11 -8 11 -12z m-131 -112 c0 -8 -4
-15 -10 -15 -5 0 -10 7 -10 15 0 8 5 15 10 15 6 0 10 -7 10 -15z m1050 11 c0
-2 -8 -10 -17 -17 -16 -13 -17 -12 -4 4 13 16 21 21 21 13z m-943 -32 c-3 -3
-12 -4 -19 -1 -8 3 -5 6 6 6 11 1 17 -2 13 -5z m-81 -54 c10 -33 9 -39 -5 -43
-13 -3 -17 6 -19 46 -3 56 7 55 24 -3z m351 -2 c-12 -11 -16 -17 -9 -13 6 3
12 1 12 -5 0 -7 -7 -9 -16 -6 -9 3 -18 6 -20 6 -11 0 -2 24 13 35 28 21 46 6
20 -17z m235 -30 c-7 -7 -12 -8 -12 -2 0 14 12 26 19 19 2 -3 -1 -11 -7 -17z
m-562 -52 c0 -12 5 -27 12 -34 18 -18 3 -25 -24 -11 -13 7 -18 14 -11 16 8 3
10 15 6 35 -4 22 -3 29 5 24 7 -4 12 -17 12 -30z m650 -56 c-12 -17 -26 -28
-31 -24 -16 9 15 54 38 54 11 0 9 -7 -7 -30z m180 20 c0 -5 -5 -10 -11 -10 -5
0 -7 5 -4 10 3 6 8 10 11 10 2 0 4 -4 4 -10z m-800 -40 c0 -5 -2 -10 -4 -10
-3 0 -8 5 -11 10 -3 6 -1 10 4 10 6 0 11 -4 11 -10z m931 -93 c-10 -9 -11 -8
-5 6 3 10 9 15 12 12 3 -3 0 -11 -7 -18z m-287 -32 c-4 -8 -8 -15 -10 -15 -2
0 -4 7 -4 15 0 8 4 15 10 15 5 0 7 -7 4 -15z m1906 -30 c0 -5 -5 -3 -10 5 -5
8 -10 20 -10 25 0 6 5 3 10 -5 5 -8 10 -19 10 -25z m-1990 -65 c0 -5 -4 -10
-10 -10 -5 0 -10 5 -10 10 0 6 5 10 10 10 6 0 10 -4 10 -10z m2198 -2 c-6 -18
-87 -62 -96 -53 -4 4 -2 10 5 12 7 2 27 15 45 28 38 27 51 30 46 13z m-2661
-70 c-3 -8 -6 -5 -6 6 -1 11 2 17 5 13 3 -3 4 -12 1 -19z m1312 -10 c-8 -14
-14 -18 -17 -10 -4 13 17 46 25 38 3 -2 -1 -15 -8 -28z m-759 -8 c0 -5 -4 -10
-10 -10 -5 0 -10 5 -10 10 0 6 5 10 10 10 6 0 10 -4 10 -10z m-160 -65 c0 -8
-4 -15 -10 -15 -5 0 -10 7 -10 15 0 8 5 15 10 15 6 0 10 -7 10 -15z m-311
-235 c0 -9 -4 -8 -9 5 -5 11 -9 27 -9 35 0 9 4 8 9 -5 5 -11 9 -27 9 -35z m21
-41 c0 -6 -4 -7 -10 -4 -5 3 -10 11 -10 16 0 6 5 7 10 4 6 -3 10 -11 10 -16z
m20 -44 c0 -8 -2 -15 -4 -15 -2 0 -6 7 -10 15 -3 8 -1 15 4 15 6 0 10 -7 10
-15z m26 -52 c-7 -7 -26 7 -26 19 0 6 6 6 15 -2 9 -7 13 -15 11 -17z"/>
<path d="M5501 9227 c2 -10 8 -17 13 -17 5 1 13 -4 17 -12 7 -11 11 -10 19 2
7 11 5 16 -8 19 -9 2 -23 8 -31 14 -10 9 -13 8 -10 -6z"/>
<path d="M5571 9184 c0 -11 3 -14 6 -6 3 7 2 16 -1 19 -3 4 -6 -2 -5 -13z"/>
<path d="M5515 9073 c8 -25 20 -50 27 -54 7 -5 13 -14 14 -21 3 -34 5 -39 14
-33 6 4 8 15 5 25 -4 12 1 22 12 28 16 9 16 12 2 29 -8 10 -20 30 -27 46 -8
19 -19 27 -36 27 l-25 0 14 -47z"/>
<path d="M5474 9079 c-4 -7 -2 -15 4 -17 7 -2 12 -10 12 -18 0 -8 5 -14 10
-14 14 0 12 22 -4 43 -11 14 -16 15 -22 6z"/>
<path d="M5646 8925 c-3 -8 -1 -15 4 -15 6 0 10 7 10 15 0 8 -2 15 -4 15 -2 0
-6 -7 -10 -15z"/>
<path d="M5000 9131 c0 -5 5 -13 10 -16 6 -3 10 -2 10 4 0 5 -4 13 -10 16 -5
3 -10 2 -10 -4z"/>
<path d="M5155 9000 c-49 -22 -98 -39 -107 -40 -17 0 -25 -30 -12 -43 4 -3 30
6 58 20 106 54 190 83 199 70 6 -8 7 -6 3 6 -3 10 -6 21 -6 23 0 13 -56 -2
-135 -36z"/>
<path d="M4750 9066 c-119 -59 -479 -255 -584 -319 -126 -76 -367 -283 -381
-327 -9 -27 12 -60 38 -60 12 0 47 14 77 31 30 17 147 82 260 144 113 62 235
129 273 150 37 20 67 39 67 41 0 6 -36 -13 -198 -103 -164 -90 -252 -135 -252
-128 0 9 33 41 55 53 11 6 14 12 8 12 -7 0 -13 5 -13 11 0 5 4 8 9 4 5 -3 12
3 14 12 4 17 5 17 6 1 0 -10 6 -18 12 -18 6 0 9 9 6 20 -3 10 1 24 9 31 11 9
14 8 14 -4 0 -10 6 -14 15 -11 8 4 15 12 15 20 0 8 3 13 8 13 20 -3 30 3 35
21 6 24 20 25 41 4 14 -13 16 -13 16 -1 0 9 -5 17 -11 19 -7 2 -10 10 -8 17 4
11 8 10 21 -2 15 -15 16 -15 22 6 3 12 18 31 33 41 14 11 23 14 19 8 -3 -6 -2
-13 4 -17 5 -3 10 1 10 10 0 14 38 37 65 39 6 1 10 8 10 16 1 8 7 14 14 12 7
-1 18 4 25 12 6 9 29 18 50 20 22 3 43 11 47 18 5 7 9 9 9 4 0 -5 8 1 19 12
10 12 26 22 35 22 9 0 16 4 16 10 0 5 7 7 15 4 8 -4 15 -1 15 6 0 17 30 39 53
40 9 0 17 5 17 11 0 5 5 7 10 4 6 -3 10 -2 10 4 0 6 13 9 29 7 l29 -3 -12 40
c-17 60 -41 70 -96 43z"/>
<path d="M4810 8880 c-41 -22 -93 -44 -115 -51 -40 -11 -185 -86 -185 -95 0
-3 33 13 73 35 l73 40 95 -40 c118 -51 157 -59 175 -34 17 23 18 35 3 35 -18
0 -159 61 -159 69 0 4 27 20 60 36 33 16 60 32 60 37 0 10 6 13 -80 -32z"/>
<path d="M4343 8708 c-11 -19 -13 -39 -2 -32 5 3 9 12 9 20 0 8 5 12 10 9 6
-3 10 -1 10 4 0 15 -17 14 -27 -1z"/>
<path d="M4250 8660 c0 -5 5 -10 10 -10 6 0 10 5 10 10 0 6 -4 10 -10 10 -5 0
-10 -4 -10 -10z"/>
<path d="M4980 8545 c0 -2 5 -16 10 -31 17 -44 4 -66 -36 -61 -30 4 -32 3 -24
-13 13 -25 42 -33 73 -21 48 19 47 104 0 122 -13 5 -23 7 -23 4z"/>
<path d="M4323 8163 c9 -14 47 -24 47 -12 0 5 -4 9 -9 9 -5 0 -17 3 -27 7 -11
4 -15 3 -11 -4z"/>
<path d="M3551 8101 c-20 -21 -49 -62 -64 -92 -100 -189 -142 -264 -149 -267
-13 -6 -9 -77 5 -94 14 -19 147 -35 147 -18 0 5 5 10 11 10 6 0 9 -6 6 -14 -4
-10 4 -17 26 -21 18 -4 74 -25 126 -47 l95 -40 18 24 c18 21 19 37 13 203 -6
173 -7 182 -36 242 -31 64 -100 136 -141 146 -17 5 -31 -3 -57 -32z m-101
-281 c0 -5 7 -10 15 -10 17 0 20 -23 6 -49 -13 -24 -83 -17 -74 8 17 44 53 79
53 51z m54 -111 c14 -7 26 -23 29 -38 7 -33 6 -34 -34 -23 -34 8 -46 29 -35
58 6 17 8 17 40 3z m-59 -50 c0 -9 -14 -15 -42 -17 -38 -3 -43 -1 -43 18 0 19
5 21 43 17 27 -3 42 -9 42 -18z"/>
<path d="M4150 8120 c0 -5 5 -10 10 -10 6 0 10 5 10 10 0 6 -4 10 -10 10 -5 0
-10 -4 -10 -10z"/>
<path d="M4507 8114 c-11 -11 -8 -26 3 -19 6 3 15 -4 20 -17 9 -22 10 -21 7 6
-2 29 -17 43 -30 30z"/>
<path d="M4035 8080 c-3 -5 -2 -10 4 -10 5 0 13 5 16 10 3 6 2 10 -4 10 -5 0
-13 -4 -16 -10z"/>
<path d="M4340 7962 c0 -5 7 -9 15 -9 8 0 15 4 15 9 0 4 -7 8 -15 8 -8 0 -15
-4 -15 -8z"/>
<path d="M4197 7943 c-4 -3 -7 -11 -7 -17 0 -6 5 -5 12 2 6 6 9 14 7 17 -3 3
-9 2 -12 -2z"/>
<path d="M3828 7718 c0 -18 -2 -52 -4 -76 -2 -26 1 -40 7 -36 6 3 8 -5 4 -23
l-5 -28 12 25 c7 14 17 28 23 32 6 5 5 8 -3 8 -9 0 -10 5 -3 17 6 11 6 24 0
35 -6 10 -7 23 -4 28 8 13 -4 50 -16 50 -5 0 -10 -15 -11 -32z"/>
<path d="M3957 6943 c-4 -3 -7 -11 -7 -17 0 -6 5 -5 12 2 6 6 9 14 7 17 -3 3
-9 2 -12 -2z"/>
<path d="M5052 8235 c0 -16 2 -22 5 -12 2 9 2 23 0 30 -3 6 -5 -1 -5 -18z"/>
<path d="M5062 8145 c0 -16 2 -22 5 -12 2 9 2 23 0 30 -3 6 -5 -1 -5 -18z"/>
<path d="M5177 8103 c-12 -12 -7 -19 12 -19 15 0 17 3 9 13 -12 15 -13 15 -21
6z"/>
<path d="M5135 7848 c-4 -13 -6 -29 -6 -35 1 -7 -3 -13 -10 -13 -7 0 -9 10 -5
30 3 17 1 30 -4 30 -6 0 -10 -16 -10 -35 0 -24 5 -35 14 -35 19 0 29 16 33 52
3 34 -2 36 -12 6z"/>
<path d="M5316 7833 c4 -16 13 -37 21 -48 13 -19 13 -18 8 12 -6 37 6 48 35
33 13 -7 20 -7 20 -1 0 15 -34 31 -65 31 -23 0 -25 -3 -19 -27z"/>
<path d="M5410 7595 c0 -32 2 -34 19 -23 16 9 17 16 8 35 -15 33 -27 28 -27
-12z"/>
<path d="M5535 7580 c-7 -12 3 -67 14 -74 4 -3 5 11 3 30 -4 33 10 47 22 22 3
-7 5 -4 3 7 -2 22 -31 32 -42 15z"/>
<path d="M5716 7344 c-17 -16 -20 -41 -10 -68 9 -23 23 -20 17 3 -3 13 2 21
16 26 17 5 19 10 11 25 -7 13 -6 20 3 23 7 3 5 6 -5 6 -9 1 -24 -6 -32 -15z"/>
<path d="M5781 7274 c0 -11 3 -14 6 -6 3 7 2 16 -1 19 -3 4 -6 -2 -5 -13z"/>
<path d="M5912 7158 c7 -13 14 -25 16 -28 2 -2 7 2 12 10 8 13 10 12 10 -2 0
-9 5 -20 10 -23 6 -3 10 3 10 15 0 11 -8 23 -17 26 -10 3 -26 10 -36 15 -16 9
-16 7 -5 -13z"/>
<path d="M5372 8230 c0 -14 2 -19 5 -12 2 6 2 18 0 25 -3 6 -5 1 -5 -13z"/>
<path d="M5575 7960 c3 -5 8 -10 11 -10 2 0 4 5 4 10 0 6 -5 10 -11 10 -5 0
-7 -4 -4 -10z"/>
<path d="M5615 7830 c3 -5 11 -10 16 -10 6 0 7 5 4 10 -3 6 -11 10 -16 10 -6
0 -7 -4 -4 -10z"/>
<path d="M5795 7630 c3 -5 8 -10 11 -10 2 0 4 5 4 10 0 6 -5 10 -11 10 -5 0
-7 -4 -4 -10z"/>
<path d="M5820 7600 c0 -5 5 -10 11 -10 5 0 7 5 4 10 -3 6 -8 10 -11 10 -2 0
-4 -4 -4 -10z"/>
<path d="M5925 7390 c3 -5 11 -10 16 -10 6 0 7 5 4 10 -3 6 -11 10 -16 10 -6
0 -7 -4 -4 -10z"/>
<path d="M5975 7390 c3 -5 8 -10 11 -10 2 0 4 5 4 10 0 6 -5 10 -11 10 -5 0
-7 -4 -4 -10z"/>
<path d="M4810 7081 c0 -5 5 -13 10 -16 6 -3 10 -2 10 4 0 5 -4 13 -10 16 -5
3 -10 2 -10 -4z"/>
<path d="M4912 7079 c2 -8 30 -94 62 -191 38 -118 63 -178 72 -178 8 0 14 3
13 8 -3 33 -127 367 -137 370 -8 2 -12 -2 -10 -9z"/>
<path d="M4143 6853 c-6 -14 17 -101 79 -305 12 -40 25 -68 33 -68 23 0 23 13
0 85 -13 39 -40 123 -60 188 -20 64 -38 117 -41 117 -3 0 -7 -7 -11 -17z"/>
<path d="M4050 6813 c0 -22 89 -335 100 -354 21 -33 22 7 3 74 -74 255 -87
297 -95 297 -4 0 -8 -8 -8 -17z"/>
<path d="M3985 6760 c9 -48 94 -343 100 -349 15 -15 14 15 -4 75 -11 38 -34
119 -52 179 -31 108 -58 167 -44 95z"/>
<path d="M3930 6754 c0 -34 99 -368 107 -361 2 3 -10 52 -27 109 -17 56 -40
137 -51 178 -19 71 -29 95 -29 74z"/>
<path d="M3951 6575 c1 -21 27 -98 28 -80 0 6 -6 30 -13 55 -8 25 -15 36 -15
25z"/>
<path d="M4010 6546 c0 -8 4 -17 9 -20 5 -4 7 3 4 14 -6 23 -13 26 -13 6z"/>
<path d="M4027 6489 c4 -13 8 -18 11 -10 2 7 -1 18 -6 23 -8 8 -9 4 -5 -13z"/>
<path d="M3981 6465 c1 -19 18 -51 18 -35 0 8 -4 22 -9 30 -5 8 -9 11 -9 5z"/>
<path d="M4041 6450 c0 -8 4 -24 9 -35 5 -13 9 -14 9 -5 0 8 -4 24 -9 35 -5
13 -9 14 -9 5z"/>
<path d="M4390 6145 c0 -8 2 -15 4 -15 2 0 6 7 10 15 3 8 1 15 -4 15 -6 0 -10
-7 -10 -15z"/>
<path d="M4410 6070 c0 -5 5 -10 10 -10 6 0 10 5 10 10 0 6 -4 10 -10 10 -5 0
-10 -4 -10 -10z"/>
<path d="M6006 5851 c-7 -11 55 -90 72 -90 16 -1 15 24 -3 58 -18 36 -56 53
-69 32z m59 -31 c3 -5 1 -10 -4 -10 -6 0 -11 5 -11 10 0 6 2 10 4 10 3 0 8 -4
11 -10z"/>
<path d="M6237 5573 c-3 -5 1 -24 9 -42 17 -42 41 -30 25 11 -11 29 -27 43
-34 31z"/>
<path d="M6266 5408 c8 -27 12 -33 19 -27 7 8 -7 49 -17 49 -5 0 -6 -10 -2
-22z"/>
<path d="M6400 5051 c0 -5 9 -19 20 -32 19 -23 19 -23 20 -3 0 20 -17 44 -32
44 -4 0 -8 -4 -8 -9z"/>
<path d="M6362 4761 c-11 -7 -11 -9 2 -14 10 -4 16 -1 16 8 0 17 -1 17 -18 6z"/>
<path d="M6534 4697 c4 -53 11 -66 27 -50 8 8 5 23 -10 54 l-21 44 4 -48z"/>
<path d="M6465 4451 c7 -25 44 -91 51 -91 2 0 -6 21 -17 48 -23 53 -46 82 -34
43z"/>
<path d="M6430 4380 c0 -5 5 -10 10 -10 6 0 10 5 10 10 0 6 -4 10 -10 10 -5 0
-10 -4 -10 -10z"/>
<path d="M6720 4218 c0 -18 18 -34 28 -24 3 4 -2 14 -11 23 -16 16 -17 16 -17
1z"/>
<path d="M6644 4036 c-3 -8 9 -58 26 -113 40 -125 47 -143 59 -143 17 0 22 18
8 27 -12 7 -77 187 -77 213 0 7 7 10 14 7 10 -4 13 -1 9 9 -7 18 -32 18 -39 0z"/>
<path d="M6810 3651 c0 -6 4 -13 10 -16 6 -3 7 1 4 9 -7 18 -14 21 -14 7z"/>
<path d="M6783 3540 l6 -35 -15 28 c-27 50 -27 21 0 -47 14 -35 26 -69 26 -75
0 -6 5 -11 11 -11 6 0 8 9 5 20 -3 11 -9 29 -12 40 -3 11 -7 39 -8 61 -2 22
-7 43 -11 47 -4 4 -5 -9 -2 -28z"/>
<path d="M6880 3380 c0 -5 5 -10 11 -10 5 0 7 5 4 10 -3 6 -8 10 -11 10 -2 0
-4 -4 -4 -10z"/>
<path d="M6730 3342 c0 -5 12 -14 27 -21 28 -13 28 -13 9 8 -20 22 -36 27 -36
13z"/>
<path d="M6896 3253 c-4 -9 -2 -21 4 -27 8 -8 9 -6 5 7 -4 10 -2 17 4 17 6 0
11 5 11 10 0 16 -17 11 -24 -7z"/>
<path d="M7082 3069 c1 -12 8 -24 15 -26 7 -3 9 3 6 17 -8 29 -25 37 -21 9z"/>
<path d="M7170 2595 c0 -26 28 -85 41 -85 13 0 3 67 -13 88 -14 17 -28 15 -28
-3z"/>
<path d="M7295 2360 c3 -5 8 -10 11 -10 2 0 4 5 4 10 0 6 -5 10 -11 10 -5 0
-7 -4 -4 -10z"/>
<path d="M7330 2245 c7 -9 15 -13 17 -11 7 7 -7 26 -19 26 -6 0 -6 -6 2 -15z"/>
<path d="M7390 2118 c0 -16 5 -28 10 -28 13 0 13 20 0 40 -8 12 -10 9 -10 -12z"/>
<path d="M7400 1916 c0 -14 5 -28 10 -31 6 -3 10 5 10 19 0 14 -4 28 -10 31
-6 3 -10 -5 -10 -19z"/>
<path d="M4340 5589 c0 -5 5 -7 10 -4 6 3 10 8 10 11 0 2 -4 4 -10 4 -5 0 -10
-5 -10 -11z"/>
<path d="M4480 5579 c0 -24 23 -21 28 4 2 10 -3 17 -12 17 -10 0 -16 -9 -16
-21z"/>
<path d="M4223 5525 c-21 -24 -15 -40 7 -20 20 18 26 35 13 35 -5 -1 -14 -7
-20 -15z"/>
<path d="M4305 5520 c-10 -11 -15 -23 -11 -27 3 -4 13 3 22 15 23 34 37 27 30
-14 -7 -32 -6 -34 12 -25 10 5 24 17 32 25 32 39 -50 64 -85 26z"/>
<path d="M4476 5501 c-4 -7 -5 -15 -2 -18 9 -9 19 4 14 18 -4 11 -6 11 -12 0z"/>
<path d="M4536 5472 c-3 -6 -1 -14 5 -17 15 -10 25 3 12 16 -7 7 -13 7 -17 1z"/>
<path d="M4450 5424 c0 -8 5 -12 10 -9 6 3 10 10 10 16 0 5 -4 9 -10 9 -5 0
-10 -7 -10 -16z"/>
<path d="M4110 5415 c-7 -8 -9 -22 -6 -31 5 -13 9 -14 21 -4 16 13 21 50 6 50
-5 0 -14 -7 -21 -15z"/>
<path d="M4371 5413 c-7 -8 -11 -16 -8 -19 2 -2 10 2 17 11 17 20 9 27 -9 8z"/>
<path d="M4222 5328 c-14 -14 -16 -28 -3 -28 9 0 24 30 18 36 -2 2 -9 -2 -15
-8z"/>
<path d="M4052 5269 c-7 -11 -11 -24 -8 -27 10 -9 28 15 24 32 -2 14 -5 13
-16 -5z"/>
<path d="M4217 5239 c-4 -16 -3 -18 9 -8 7 6 11 15 8 20 -8 13 -11 11 -17 -12z"/>
<path d="M4310 5219 c0 -11 5 -17 10 -14 6 3 10 13 10 21 0 8 -4 14 -10 14 -5
0 -10 -9 -10 -21z"/>
<path d="M3967 5163 c5 -11 3 -14 -6 -8 -9 5 -12 2 -9 -9 1 -10 8 -17 13 -17
13 0 19 51 6 51 -6 0 -7 -7 -4 -17z"/>
<path d="M3890 5065 c0 -8 5 -15 10 -15 6 0 10 7 10 15 0 8 -4 15 -10 15 -5 0
-10 -7 -10 -15z"/>
<path d="M4050 5011 c0 -35 13 -47 30 -26 16 19 9 49 -13 53 -13 3 -17 -3 -17
-27z"/>
<path d="M4194 5016 c-3 -14 -3 -30 1 -35 3 -6 -1 -11 -10 -11 -9 0 -15 -6
-12 -12 7 -22 31 -14 45 15 13 28 8 67 -8 67 -6 0 -12 -11 -16 -24z"/>
<path d="M3760 4591 c0 -19 17 -38 25 -29 7 7 -7 48 -16 48 -5 0 -9 -9 -9 -19z"/>
<path d="M5005 4564 c-77 -58 -155 -135 -196 -193 -39 -56 -29 -47 48 44 69
81 166 160 184 149 7 -4 9 -3 5 4 -8 13 28 35 39 24 5 -4 5 -1 1 6 -11 18 -15
16 -81 -34z"/>
<path d="M5106 4465 c-3 -8 -1 -15 4 -15 13 0 22 18 11 24 -5 3 -11 -1 -15 -9z"/>
<path d="M5390 4324 c0 -8 5 -12 10 -9 6 3 10 10 10 16 0 5 -4 9 -10 9 -5 0
-10 -7 -10 -16z"/>
<path d="M5405 4299 c-4 -6 -5 -13 -2 -16 7 -7 27 6 27 18 0 12 -17 12 -25 -2z"/>
<path d="M5348 4221 c-38 -14 -68 -31 -68 -38 0 -7 4 -13 9 -13 5 0 12 -13 16
-30 4 -16 13 -30 21 -30 16 0 17 10 4 44 -5 14 -6 28 -1 30 10 7 83 -193 75
-206 -9 -14 49 3 66 20 8 8 10 12 4 9 -17 -10 -28 8 -63 104 -34 93 -35 99
-22 99 5 0 11 -13 15 -30 4 -21 11 -30 26 -30 11 0 20 7 20 15 0 8 -4 15 -10
15 -15 0 -12 57 3 63 6 3 3 4 -8 4 -11 -1 -50 -12 -87 -26z"/>
<path d="M5471 4216 c-13 -16 -2 -29 16 -18 7 4 8 13 4 20 -6 10 -10 10 -20
-2z"/>
<path d="M5215 4168 c-27 -15 -35 -28 -35 -59 0 -31 21 -52 78 -74 28 -12 44
-25 48 -41 11 -44 -20 -61 -36 -19 -10 27 -17 30 -39 16 -12 -8 -12 -13 2 -34
22 -34 52 -42 82 -23 58 38 36 104 -46 138 -49 21 -70 51 -50 71 8 8 14 3 23
-21 13 -32 31 -41 44 -21 3 6 2 14 -4 18 -6 3 -14 19 -17 34 -8 29 -19 33 -50
15z"/>
<path d="M5079 4100 l-37 -19 49 -98 c27 -54 49 -104 49 -110 0 -7 5 -13 12
-13 20 0 101 52 91 59 -6 3 -13 16 -17 29 -8 25 -29 20 -24 -6 3 -19 -9 -42
-21 -42 -4 0 -13 11 -19 25 -10 21 -9 25 3 25 8 0 15 9 15 20 0 11 -4 20 -10
20 -5 0 -10 -4 -10 -10 0 -5 -4 -10 -10 -10 -13 0 -62 98 -55 110 11 17 24 11
31 -15 3 -14 12 -25 19 -25 22 0 27 19 11 36 -9 8 -16 22 -16 30 0 19 -17 17
-61 -6z"/>
<path d="M4539 4033 c-1 -5 -1 -16 0 -25 2 -19 -14 -25 -22 -8 -3 6 -4 5 -3
-2 5 -24 24 -18 39 11 13 26 13 31 1 31 -8 0 -15 -3 -15 -7z"/>
<path d="M4461 3998 c1 -16 3 -18 6 -6 2 9 12 19 21 21 12 3 10 5 -5 6 -18 1
-23 -4 -22 -21z"/>
<path d="M4430 3999 c0 -5 5 -7 10 -4 6 3 10 8 10 11 0 2 -4 4 -10 4 -5 0 -10
-5 -10 -11z"/>
<path d="M4388 3937 c-8 -67 -48 -160 -77 -179 -12 -7 -21 -22 -20 -33 0 -19
1 -19 9 1 5 12 14 25 20 29 38 24 87 158 78 215 -2 15 -6 1 -10 -33z"/>
<path d="M4416 3964 c-6 -16 8 -33 27 -34 12 0 8 27 -7 39 -11 9 -15 8 -20 -5z"/>
<path d="M4495 3968 c8 -21 -5 -24 -23 -6 -9 9 -12 9 -12 0 0 -18 29 -27 43
-13 8 8 8 14 -2 24 -10 10 -11 9 -6 -5z"/>
<path d="M4892 3940 c-18 -11 -50 -48 -71 -82 -22 -35 -53 -82 -71 -106 -20
-29 -25 -40 -13 -34 10 6 47 54 83 108 45 67 76 103 100 116 19 10 28 18 20
18 -8 0 -30 -9 -48 -20z"/>
<path d="M4920 3903 c-18 -15 -56 -63 -84 -107 -29 -45 -67 -94 -85 -109 -38
-31 -84 -35 -115 -9 -20 16 -20 16 -6 -2 53 -68 146 -19 226 117 20 34 52 79
72 100 42 43 38 49 -8 10z"/>
<path d="M4426 3905 c4 -8 8 -15 10 -15 2 0 4 7 4 15 0 8 -4 15 -10 15 -5 0
-7 -7 -4 -15z"/>
<path d="M4400 3877 c0 -14 4 -28 9 -31 4 -3 7 6 5 20 -3 35 -14 43 -14 11z"/>
<path d="M4974 3880 c1 -18 34 -26 48 -12 6 6 1 8 -15 5 -16 -3 -27 0 -30 9
-3 9 -4 9 -3 -2z"/>
<path d="M4430 3859 c0 -5 5 -7 10 -4 6 3 10 8 10 11 0 2 -4 4 -10 4 -5 0 -10
-5 -10 -11z"/>
<path d="M4385 3820 c-6 -10 4 -40 14 -40 9 0 24 12 38 30 9 12 6 15 -18 17
-15 1 -31 -2 -34 -7z m35 -14 c0 -11 -19 -15 -25 -6 -3 5 1 10 9 10 9 0 16 -2
16 -4z"/>
<path d="M4629 3773 c-13 -15 -12 -15 8 -5 30 16 53 5 54 -27 2 -24 2 -24 6
-3 9 45 -40 70 -68 35z"/>
<path d="M4341 3737 c-15 -16 -19 -30 -14 -43 13 -37 63 -60 63 -29 0 14 -11
19 -37 16 -8 -1 -13 9 -13 25 0 19 4 25 14 21 10 -4 14 0 13 14 -2 23 1 24
-26 -4z"/>
<path d="M4612 3725 c0 -16 2 -22 5 -12 2 9 2 23 0 30 -3 6 -5 -1 -5 -18z"/>
<path d="M4311 3654 c0 -11 3 -14 6 -6 3 7 2 16 -1 19 -3 4 -6 -2 -5 -13z"/>
<path d="M4340 3636 c0 -9 5 -16 10 -16 6 0 10 4 10 9 0 6 -4 13 -10 16 -5 3
-10 -1 -10 -9z"/>
<path d="M4321 3625 c0 -5 8 -37 19 -70 11 -33 17 -44 13 -25 -6 38 -31 111
-32 95z"/>
<path d="M4855 3610 c-13 -5 -14 -9 -5 -9 8 0 24 4 35 9 13 5 14 9 5 9 -8 0
-24 -4 -35 -9z"/>
<path d="M4368 3583 c7 -3 16 -2 19 1 4 3 -2 6 -13 5 -11 0 -14 -3 -6 -6z"/>
<path d="M4778 3583 c7 -3 16 -2 19 1 4 3 -2 6 -13 5 -11 0 -14 -3 -6 -6z"/>
<path d="M4370 3545 c0 -8 5 -15 10 -15 6 0 10 7 10 15 0 8 -4 15 -10 15 -5 0
-10 -7 -10 -15z"/>
<path d="M4655 3550 c-13 -5 -14 -9 -5 -9 8 0 24 4 35 9 13 5 14 9 5 9 -8 0
-24 -4 -35 -9z"/>
<path d="M4585 3530 c-13 -5 -14 -9 -5 -9 8 0 24 4 35 9 13 5 14 9 5 9 -8 0
-24 -4 -35 -9z"/>
<path d="M5030 3522 c-53 -17 -62 -23 -53 -35 5 -6 25 -64 44 -128 32 -110 35
-116 55 -109 12 5 25 6 28 3 3 -4 6 -1 6 5 0 6 6 9 14 6 19 -7 36 26 36 69 0
23 -8 43 -25 61 -17 19 -23 34 -19 50 10 40 -46 91 -86 78z m34 -38 c20 -20
20 -48 1 -64 -9 -7 -17 -11 -19 -9 -5 6 -26 71 -26 80 0 15 27 10 44 -7z m33
-102 c19 -12 31 -55 22 -79 -13 -36 -35 -27 -48 20 -7 23 -15 48 -17 55 -6 13
23 16 43 4z"/>
<path d="M4822 3461 c-28 -11 -39 -20 -32 -27 11 -11 70 -201 70 -228 0 -19
16 -18 74 3 23 9 24 12 14 50 -13 49 -32 55 -23 7 5 -26 3 -35 -11 -40 -21 -8
-22 -7 -30 32 -4 21 -3 32 5 32 6 0 11 7 11 15 0 9 -7 15 -16 13 -12 -2 -22
12 -36 52 -10 30 -16 60 -13 67 8 23 23 14 30 -18 4 -17 13 -33 21 -36 20 -7
32 6 16 16 -8 4 -14 23 -16 41 -3 41 -9 43 -64 21z"/>
<path d="M4727 3433 c-12 -3 -15 -9 -9 -16 5 -7 17 -36 27 -66 17 -53 17 -55
-1 -68 -18 -13 -20 -10 -36 39 -9 29 -17 63 -17 76 -1 24 -2 25 -25 16 -13 -5
-13 -10 -1 -42 19 -51 56 -180 58 -203 1 -18 17 -25 30 -13 3 3 0 25 -7 48
-12 39 -11 44 5 54 22 14 26 8 35 -46 6 -36 10 -41 30 -40 14 2 20 6 14 13
-10 12 -25 84 -22 103 2 6 -1 12 -6 12 -10 0 -47 109 -43 128 2 12 -1 13 -32
5z"/>
<path d="M4381 3425 c0 -5 10 -44 23 -85 13 -41 24 -70 25 -65 0 6 -10 44 -23
85 -13 41 -24 71 -25 65z"/>
<path d="M5745 3420 c-3 -5 -1 -10 4 -10 6 0 11 5 11 10 0 6 -2 10 -4 10 -3 0
-8 -4 -11 -10z"/>
<path d="M4563 3383 l-43 -15 15 -28 c8 -16 15 -36 15 -45 0 -8 5 -15 11 -15
6 0 8 9 5 20 -3 11 -9 29 -12 40 -3 11 -1 20 5 20 5 0 22 -39 36 -87 14 -49
30 -100 35 -115 4 -14 5 -30 2 -34 -4 -4 1 -4 11 -1 10 4 20 7 22 7 1 0 -12
48 -31 108 -38 119 -44 173 -13 104 11 -23 24 -40 29 -37 5 3 2 18 -6 33 -7
15 -11 35 -8 45 7 21 -14 21 -73 0z"/>
<path d="M5706 3274 c-4 -9 -4 -19 -1 -22 2 -3 7 3 11 12 4 9 4 19 1 22 -2 3
-7 -3 -11 -12z"/>
<path d="M5597 3173 c-4 -3 -7 -18 -7 -32 l0 -26 -20 25 c-13 17 -22 22 -29
15 -7 -7 -1 -25 19 -55 16 -24 32 -57 35 -72 9 -41 39 -38 31 3 -3 17 -6 58
-6 90 0 55 -7 69 -23 52z"/>
<path d="M5475 3130 c-3 -5 -1 -35 4 -67 16 -82 14 -93 -9 -63 -11 14 -19 32
-19 40 4 53 -20 85 -55 74 -37 -11 -38 -19 -15 -95 26 -86 24 -83 44 -75 13 4
14 10 5 26 -6 12 -10 29 -8 38 3 12 8 8 18 -15 8 -18 19 -33 25 -33 31 1 55
14 55 31 0 24 19 25 36 2 12 -17 13 -17 19 -1 4 10 -7 42 -30 82 -35 62 -56
79 -70 56z m-55 -71 c0 -10 -4 -19 -10 -19 -5 0 -10 12 -10 26 0 14 4 23 10
19 6 -3 10 -15 10 -26z m97 -11 c-3 -8 -6 -5 -6 6 -1 11 2 17 5 13 3 -3 4 -12
1 -19z"/>
<path d="M4481 3090 c0 -8 4 -24 9 -35 5 -13 9 -14 9 -5 0 8 -4 24 -9 35 -5
13 -9 14 -9 5z"/>
<path d="M5289 3080 c-14 -8 -14 -16 5 -85 16 -57 25 -75 39 -75 20 0 21 4 6
32 -9 16 -7 24 11 40 16 15 20 27 15 47 -12 48 -39 63 -76 41z m49 -48 c4 -25
-13 -30 -22 -6 -9 25 -7 36 7 32 6 -3 13 -14 15 -26z"/>
<path d="M5201 3047 c-17 -22 2 -63 39 -82 16 -8 30 -22 30 -30 0 -17 -16 -20
-25 -5 -9 15 -25 12 -25 -5 0 -8 9 -19 20 -25 15 -8 24 -6 39 9 26 26 17 58
-25 83 -19 11 -34 26 -34 34 0 17 12 18 29 2 10 -11 12 -9 9 7 -4 24 -40 32
-57 12z"/>
<path d="M4798 3033 c7 -3 16 -2 19 1 4 3 -2 6 -13 5 -11 0 -14 -3 -6 -6z"/>
<path d="M4728 3013 c7 -3 16 -2 19 1 4 3 -2 6 -13 5 -11 0 -14 -3 -6 -6z"/>
<path d="M5067 3014 c-3 -3 -2 -16 3 -27 5 -12 17 -48 25 -80 18 -62 41 -69
31 -8 -5 31 -4 33 7 18 30 -46 36 -52 42 -45 4 3 -1 20 -9 37 -9 16 -16 43
-16 59 0 15 -5 33 -12 40 -12 12 -60 17 -71 6z m57 -30 c7 -19 -2 -37 -15 -29
-12 8 -12 45 0 45 5 0 12 -7 15 -16z"/>
<path d="M5017 2998 c-19 -7 -26 -15 -23 -26 3 -10 12 -43 21 -74 19 -66 22
-69 53 -57 27 10 30 33 2 26 -26 -7 -40 32 -16 45 9 5 14 14 11 19 -4 5 -11 6
-17 3 -11 -7 -28 13 -28 34 0 6 6 12 14 12 17 0 30 16 19 23 -5 2 -21 0 -36
-5z"/>
<path d="M4511 2994 c-1 -15 30 -106 35 -101 2 2 -5 28 -15 58 -11 30 -20 49
-20 43z"/>
<path d="M4928 2973 c-22 -5 -24 -23 -4 -23 10 0 21 -22 32 -60 15 -55 29 -78
39 -68 2 2 -5 33 -16 68 -13 41 -16 66 -9 68 5 2 10 8 10 13 0 9 -22 10 -52 2z"/>
<path d="M4867 2953 c-7 -13 15 -163 24 -163 5 0 9 11 9 25 0 27 17 34 26 10
4 -8 12 -15 20 -15 10 0 3 22 -23 75 -36 71 -46 84 -56 68z m37 -78 c3 -8 1
-15 -4 -15 -6 0 -10 7 -10 15 0 8 2 15 4 15 2 0 6 -7 10 -15z"/>
<path d="M4825 2908 c4 -18 8 -42 11 -53 2 -11 -6 1 -17 28 -12 26 -26 47 -31
47 -6 0 -8 -19 -4 -47 l5 -48 -15 43 c-16 43 -41 61 -28 20 16 -54 54 -128 64
-128 11 0 10 11 -6 85 l-4 20 10 -20 c5 -11 14 -32 20 -47 10 -31 30 -38 30
-11 0 40 -23 143 -32 143 -6 0 -7 -14 -3 -32z"/>
<path d="M5707 2902 c-19 -21 -22 -32 -7 -32 10 0 34 39 27 46 -2 2 -11 -4
-20 -14z"/>
<path d="M4570 2895 c0 -8 4 -15 10 -15 5 0 7 7 4 15 -4 8 -8 15 -10 15 -2 0
-4 -7 -4 -15z"/>
<path d="M4551 2870 c0 -8 4 -22 9 -30 12 -18 12 -2 0 25 -6 13 -9 15 -9 5z"/>
<path d="M4592 2842 c-1 -24 0 -25 9 -9 7 11 7 23 2 28 -5 5 -9 -3 -11 -19z"/>
<path d="M4630 2802 c0 -7 5 -12 11 -12 6 0 8 -7 4 -17 -5 -15 -4 -16 6 -5 11
10 10 15 -4 29 -11 11 -17 13 -17 5z"/>
<path d="M4610 2765 c0 -25 23 -65 37 -65 7 0 13 5 13 10 0 6 -5 9 -11 8 -6
-2 -14 3 -17 11 -3 10 0 12 12 8 10 -4 15 -3 11 3 -3 6 -13 10 -22 10 -9 0
-13 6 -9 15 3 8 1 15 -4 15 -6 0 -10 -7 -10 -15z"/>
<path d="M4675 2719 c-4 -6 -4 -13 -1 -16 3 -4 6 -1 6 5 0 7 7 12 15 12 8 0
15 -9 15 -19 0 -11 5 -23 10 -26 6 -3 10 -2 10 3 0 6 6 12 13 15 10 4 13 -2 9
-18 -4 -23 14 -43 26 -30 4 4 1 10 -5 12 -10 3 -10 10 -2 24 8 15 6 21 -6 25
-8 4 -21 1 -29 -5 -11 -9 -15 -7 -19 9 -5 21 -31 27 -42 9z"/>
<path d="M4796 2665 c-3 -8 -1 -15 4 -15 6 0 10 7 10 15 0 8 -2 15 -4 15 -2 0
-6 -7 -10 -15z"/>
<path d="M4820 2630 c0 -5 5 -10 11 -10 5 0 7 5 4 10 -3 6 -8 10 -11 10 -2 0
-4 -4 -4 -10z"/>
<path d="M4883 2604 c-3 -8 4 -25 17 -40 20 -21 21 -24 6 -24 -20 0 -46 23
-46 40 0 6 -5 8 -12 4 -8 -5 -9 -2 -5 9 3 10 2 17 -3 17 -21 0 -18 -19 7 -46
15 -16 26 -32 25 -36 -3 -12 20 -9 47 6 19 11 21 14 7 19 -10 4 -13 12 -9 23
5 13 3 16 -10 11 -18 -7 -24 8 -8 18 9 5 46 -34 54 -58 3 -9 14 -7 42 6 l38
18 -28 15 c-15 8 -36 12 -45 9 -9 -3 -23 1 -30 10 -16 19 -39 19 -47 -1z m103
-43 c-4 -5 -13 -8 -22 -4 -11 4 -12 8 -3 20 14 16 36 2 25 -16z"/>
<path d="M5570 3699 c0 -5 5 -7 10 -4 6 3 10 8 10 11 0 2 -4 4 -10 4 -5 0 -10
-5 -10 -11z"/>
<path d="M4540 2291 c0 -6 4 -13 10 -16 6 -3 7 1 4 9 -7 18 -14 21 -14 7z"/>
</g>
</svg>
