<?xml version="1.0" standalone="no"?>
<!DOCTYPE svg PUBLIC "-//W3C//DTD SVG 20010904//EN"
 "http://www.w3.org/TR/2001/REC-SVG-20010904/DTD/svg10.dtd">
<svg version="1.0" xmlns="http://www.w3.org/2000/svg"
 width="1024.000000pt" height="1024.000000pt" viewBox="0 0 1024.000000 1024.000000"
 preserveAspectRatio="xMidYMid meet">

<g transform="translate(0.000000,1024.000000) scale(0.100000,-0.100000)"
fill="#000000" stroke="none">
<path d="M0 5120 l0 -5120 5120 0 5120 0 0 5120 0 5120 -5120 0 -5120 0 0
-5120z m7945 1931 c39 -11 114 -29 167 -40 110 -23 169 -50 283 -129 284 -197
506 -453 574 -665 10 -30 22 -42 64 -64 145 -73 309 -222 362 -328 27 -54 30
-70 30 -155 0 -79 -4 -103 -23 -142 -31 -64 -88 -120 -153 -152 -50 -24 -625
-186 -659 -186 -41 1 60 35 314 104 303 83 337 95 361 132 l15 24 -43 0 c-24
0 -77 -11 -117 -25 -87 -30 -103 -30 -141 -8 -28 16 -53 63 -79 148 -17 56
-25 61 -40 26 -7 -17 -18 -35 -26 -42 -14 -12 11 68 60 190 30 74 29 71 17 71
-9 0 -54 -108 -81 -195 -7 -22 -16 -44 -20 -50 -4 -5 -26 -57 -50 -114 -23
-57 -53 -122 -68 -143 -27 -42 -166 -152 -220 -175 -18 -7 -153 -47 -300 -88
-335 -93 -1026 -288 -1277 -361 -104 -30 -192 -60 -194 -67 -2 -6 -17 -24 -32
-39 -32 -32 -83 -38 -115 -12 -19 15 -19 16 1 9 72 -25 98 -17 126 36 20 39
104 251 117 294 5 18 3 18 -11 6 -9 -7 -24 -10 -33 -7 -14 5 -14 8 0 21 8 9
12 23 9 32 -4 9 1 21 12 29 16 12 16 15 -6 43 -22 27 -59 45 -44 21 4 -6 -1
-7 -12 -4 -17 5 -17 5 1 -10 24 -19 14 -34 -29 -42 -29 -5 -42 -1 -70 20 -19
15 -35 33 -35 40 0 16 42 16 52 0 10 -15 90 7 96 26 3 8 0 10 -8 5 -8 -5 -11
-4 -7 2 4 6 0 29 -8 52 -20 58 -9 51 19 -12 13 -30 40 -78 60 -107 20 -29 36
-62 36 -74 0 -21 -31 -113 -78 -232 l-21 -51 107 33 c210 64 928 268 1262 359
458 123 525 158 574 296 10 30 38 94 61 144 23 49 46 101 50 115 4 14 28 61
52 104 24 44 45 87 46 95 1 9 6 22 10 28 6 10 2 11 -19 3 -15 -6 -27 -9 -28
-8 -1 2 -8 16 -16 32 -8 16 -21 30 -30 33 -8 2 -23 9 -33 14 -13 7 -19 5 -23
-6 -4 -8 -11 -15 -18 -15 -7 0 -12 29 -14 82 -4 99 -32 211 -69 281 -15 29
-55 80 -89 114 -69 70 -70 68 44 99 99 27 99 38 -2 139 -47 47 -88 85 -91 85
-4 0 -13 7 -22 16 -9 8 -29 14 -47 13 -17 -1 -40 -1 -51 0 -18 2 -18 3 4 12
35 14 17 23 -20 10 -40 -14 -62 -14 -54 0 7 10 -33 -9 -45 -21 -3 -3 -52 -15
-110 -27 l-105 -22 -33 40 c-19 21 -38 39 -42 39 -5 0 -37 18 -72 39 -131 82
-272 110 -443 88 -33 -4 -91 -12 -130 -17 -38 -5 -119 -14 -180 -20 -60 -6
-171 -18 -245 -26 -74 -8 -180 -19 -235 -24 -106 -11 -135 -14 -282 -34 -51
-7 -132 -12 -182 -12 -49 1 -87 -2 -84 -6 2 -5 -16 -8 -41 -8 -25 0 -48 -5
-52 -12 -5 -7 -3 -8 5 -3 10 6 11 3 2 -14 -7 -11 -14 -21 -17 -21 -3 0 -2 5 1
10 3 6 1 10 -4 10 -6 0 -11 -4 -11 -10 0 -13 -41 -13 -60 0 -11 8 -9 9 11 5
17 -4 30 -1 39 10 13 15 8 16 -56 10 -38 -4 -71 -12 -73 -17 -2 -7 -6 -7 -10
0 -4 6 -46 5 -121 -4 -63 -7 -140 -16 -170 -19 -30 -3 -111 -13 -180 -22 -69
-8 -135 -15 -147 -14 -12 0 -27 -7 -32 -17 -6 -9 -11 -12 -11 -4 0 14 -40 17
-40 3 0 -5 8 -12 18 -14 9 -3 -1 -5 -23 -5 -22 0 -34 2 -27 5 22 9 3 20 -28
15 -19 -3 -30 -10 -31 -21 -1 -14 -2 -13 -6 2 -5 20 -25 22 -55 6 -15 -8 -19
-8 -14 0 10 15 -7 14 -23 -1 -11 -10 -13 -10 -7 0 5 8 -1 12 -21 12 -21 0 -24
-3 -13 -10 10 -6 -10 -8 -58 -5 -40 2 -77 7 -82 10 -16 10 -51 -5 -43 -18 4
-8 1 -7 -9 1 -9 7 -22 12 -30 11 -34 -4 -39 1 -34 34 3 19 8 41 12 50 4 12 1
17 -13 17 -14 0 -23 -11 -32 -37 -7 -21 -15 -44 -17 -50 -4 -8 3 -13 18 -14
14 -1 8 -5 -17 -10 -42 -9 -61 -12 -185 -29 -41 -5 -95 -14 -120 -19 -25 -5
-48 -7 -52 -5 -5 3 -8 1 -8 -3 0 -5 -31 -10 -70 -11 l-70 -3 16 36 c8 20 13
42 11 48 -2 7 3 18 12 25 12 11 13 12 1 6 -8 -4 -4 4 10 18 19 19 43 28 105
37 44 7 91 15 104 18 l25 6 -21 -29 c-17 -26 -53 -106 -53 -120 0 -11 45 2 46
14 1 6 2 13 3 15 3 3 11 39 14 62 1 11 8 24 15 28 7 5 10 12 7 17 -18 29 185
51 560 60 295 7 391 13 725 50 252 27 434 42 528 43 79 0 145 4 148 9 3 5 12
4 20 -3 11 -9 17 -9 29 1 8 6 19 9 25 5 6 -4 18 -1 26 6 13 10 17 10 24 0 5
-10 9 -10 15 -1 4 6 17 10 28 9 12 0 24 0 27 1 7 4 49 9 101 13 25 2 52 7 59
12 7 4 16 2 20 -6 7 -10 14 -7 30 12 12 13 19 18 15 11 -9 -17 25 -28 35 -12
6 10 12 11 22 2 16 -13 44 1 34 17 -5 7 1 11 16 10 13 0 17 -3 11 -6 -7 -2
-13 -9 -13 -14 0 -11 80 -6 99 5 7 4 18 5 26 3 7 -3 16 1 19 10 5 12 9 13 20
4 11 -9 16 -9 21 -1 4 7 17 9 28 6 12 -3 27 0 34 6 9 7 17 7 28 -2 10 -9 15
-9 15 -1 0 15 30 14 30 -1 1 -8 6 -6 14 5 15 20 32 22 39 5 4 -10 8 -10 15 1
6 8 18 11 31 6 12 -4 21 -2 21 4 0 15 27 14 34 -1 5 -10 7 -10 12 0 7 14 34
16 34 2 0 -5 5 -10 10 -10 6 0 10 7 10 15 0 18 26 20 33 3 3 -9 10 -7 21 7 14
17 17 18 27 5 8 -11 12 -12 16 -2 6 14 43 16 43 2 0 -5 4 -10 8 -10 5 0 9 7 9
15 0 8 -5 15 -11 15 -7 0 -7 3 0 10 12 12 175 37 249 39 28 1 82 -8 120 -18z
m-972 -108 c-7 -2 -21 -2 -30 0 -10 3 -4 5 12 5 17 0 24 -2 18 -5z m778 -154
c59 -28 139 -93 139 -113 0 -6 -6 -4 -13 5 -15 20 -98 30 -123 16 -18 -10 -17
-11 6 -17 14 -4 31 -2 38 3 8 6 12 6 12 -2 0 -6 12 -11 26 -11 22 0 25 -2 14
-15 -9 -10 -9 -15 -1 -15 6 0 11 -5 11 -11 0 -5 -5 -7 -10 -4 -6 4 -24 3 -42
0 -19 -5 -26 -10 -19 -15 8 -4 -4 -10 -28 -14 -22 -3 -43 -11 -47 -17 -11 -19
116 -1 154 21 24 15 32 16 32 6 0 -29 -37 -41 -208 -67 -185 -29 -247 -35
-238 -21 5 8 105 29 166 35 22 2 25 7 28 46 3 36 -1 48 -25 74 -34 36 -144
119 -150 113 -3 -2 26 -33 63 -68 37 -36 65 -70 62 -78 -2 -8 -22 6 -53 40
-28 28 -63 59 -80 67 -21 10 -7 -8 48 -63 42 -42 75 -79 73 -82 -3 -2 -48 34
-99 82 -87 79 -117 99 -117 78 0 -5 10 -19 22 -32 13 -13 21 -32 20 -42 -2
-12 6 -21 22 -28 14 -5 26 -13 26 -18 0 -4 15 -16 33 -26 89 -51 81 -66 -38
-66 -91 0 -165 28 -222 83 -34 32 -46 28 -15 -6 16 -18 16 -19 -3 -16 -24 5
-65 64 -65 95 0 35 41 60 127 74 43 7 92 19 108 26 20 8 76 12 170 11 128 -2
145 -4 196 -28z m268 -103 c20 -32 24 -34 54 -26 46 12 168 22 137 11 -17 -6
-19 -9 -7 -10 19 -1 24 -21 5 -22 -7 0 -23 -2 -35 -5 -13 -2 -23 1 -23 6 0 6
-15 10 -32 9 -31 -1 -32 -1 -8 -9 23 -7 21 -8 -12 -9 -20 -1 -39 4 -42 12 -3
6 -2 -7 1 -30 8 -64 -2 -90 -45 -112 -42 -22 -150 -52 -178 -50 -11 1 16 10
59 20 94 23 129 40 146 72 20 37 7 84 -39 145 -26 34 -33 49 -21 43 11 -6 29
-26 40 -45z m-1933 22 c4 -6 3 -8 -4 -4 -5 3 -12 0 -15 -6 -2 -7 -8 -9 -13 -5
-5 4 -2 12 6 17 19 12 17 12 26 -2z m46 -3 c14 0 20 -15 6 -15 -9 0 -22 8 -29
17 -12 15 -12 16 1 8 8 -6 18 -10 22 -10z m850 -30 c9 -20 9 -20 -6 -1 -9 11
-16 27 -15 35 0 14 1 14 6 1 3 -8 10 -24 15 -35z m-2846 -18 c-13 -13 -29 -40
-37 -60 -7 -20 -17 -37 -23 -37 -5 0 -1 -9 9 -20 18 -20 11 -27 -14 -11 -11 7
-11 15 -1 45 6 19 8 41 4 47 -5 8 -3 9 6 4 8 -5 11 -3 8 6 -5 16 30 48 54 49
14 0 13 -4 -6 -23z m1604 19 c0 -3 -4 -8 -10 -11 -5 -3 -10 -1 -10 4 0 6 5 11
10 11 6 0 10 -2 10 -4z m-1658 -23 c-11 -10 -32 -40 -46 -66 l-26 -48 23 -9
c18 -7 13 -9 -28 -11 -27 -1 -54 -1 -58 0 -5 1 -21 3 -35 5 -15 2 -53 14 -84
25 -32 12 -65 21 -75 20 -10 0 -5 -5 12 -10 67 -22 107 -44 117 -62 6 -13 7
-17 0 -13 -6 3 -12 1 -14 -5 -4 -12 -109 -39 -148 -38 -14 0 10 9 52 18 73 16
110 31 77 31 -35 -1 -311 -60 -369 -80 -441 -149 -826 -412 -1037 -707 -25
-35 -46 -63 -48 -63 -2 0 -11 24 -20 53 -10 28 -27 59 -38 68 l-21 17 28 66
c101 237 397 491 721 620 152 60 454 128 625 140 30 2 62 6 70 9 8 3 30 8 48
11 30 5 32 4 22 -14 -15 -28 2 -25 24 5 22 30 42 32 42 6 0 -11 -4 -18 -7 -15
-13 7 -22 -17 -11 -28 12 -12 47 36 37 52 -3 5 -3 10 2 10 4 0 19 3 33 7 l25
7 -28 -33 c-31 -37 -36 -64 -9 -59 9 2 17 12 17 23 0 11 6 24 13 28 6 4 12 14
12 22 0 8 10 17 23 19 12 3 31 7 42 9 11 3 28 5 39 6 17 1 17 0 -2 -16z m1563
7 c3 -5 1 -10 -4 -10 -6 0 -11 5 -11 10 0 6 2 10 4 10 3 0 8 -4 11 -10z m1375
-35 c13 -14 21 -25 18 -25 -2 0 -15 11 -28 25 -13 14 -21 25 -18 25 2 0 15
-11 28 -25z m-1587 8 c-7 -2 -21 -2 -30 0 -10 3 -4 5 12 5 17 0 24 -2 18 -5z
m2912 -3 c-3 -5 -14 -10 -23 -10 -15 0 -15 2 -2 10 20 13 33 13 25 0z m-3105
-10 c0 -5 -8 -10 -17 -10 -15 0 -16 2 -3 10 19 12 20 12 20 0z m113 3 c-7 -2
-21 -2 -30 0 -10 3 -4 5 12 5 17 0 24 -2 18 -5z m1562 -7 c41 -18 67 -62 44
-77 -23 -14 -44 -11 -80 14 -37 25 -49 55 -27 68 18 12 23 11 63 -5z m-1830
-16 c3 -5 1 -10 -4 -10 -6 0 -11 5 -11 10 0 6 2 10 4 10 3 0 8 -4 11 -10z
m2096 -7 c13 -16 12 -17 -3 -4 -10 7 -18 15 -18 17 0 8 8 3 21 -13z m-47 -43
c6 0 1 6 -10 14 -10 8 -16 18 -12 22 11 11 37 -15 35 -36 -1 -18 -3 -18 -40 3
-21 12 -44 28 -50 36 -7 8 6 3 28 -12 22 -15 44 -27 49 -27z m-2151 33 c-7 -2
-19 -2 -25 0 -7 3 -2 5 12 5 14 0 19 -2 13 -5z m2957 3 c0 -2 -8 -10 -17 -17
-16 -13 -17 -12 -4 4 13 16 21 21 21 13z m-3536 -35 c8 -12 -20 -22 -41 -14
-15 6 -15 7 3 14 26 10 32 10 38 0z m1716 -65 c73 -48 76 -106 5 -106 -63 0
-151 45 -175 90 -30 56 92 68 170 16z m-229 -12 c24 -12 30 -20 25 -38 -5 -19
2 -25 51 -46 31 -13 51 -26 46 -27 -5 -2 -36 8 -68 22 -74 33 -100 27 -60 -15
54 -57 8 -30 -68 39 -57 52 -72 71 -59 74 39 10 105 6 133 -9z m1606 10 c-3
-3 -12 -4 -19 -1 -8 3 -5 6 6 6 11 1 17 -2 13 -5z m773 -21 c-245 -44 -1092
-216 -1129 -229 -67 -25 -76 -56 -56 -195 18 -130 20 -326 3 -418 -6 -36 -13
-60 -15 -53 -3 6 -14 12 -24 12 -11 0 -18 4 -15 9 4 5 0 12 -6 15 -7 3 1 4 17
1 23 -4 26 -3 13 5 -19 12 -158 -5 -168 -20 -3 -5 -21 -12 -40 -15 -19 -3 -52
-10 -74 -16 -47 -13 -61 -4 -15 10 49 14 6 12 -80 -3 -41 -7 -91 -11 -110 -9
-20 1 -79 -8 -131 -22 -52 -13 -108 -27 -125 -29 -120 -21 -155 -65 -159 -201
-1 -26 -74 -74 -120 -77 -42 -3 -87 -40 -106 -91 -7 -17 -27 -47 -44 -64 -18
-20 -24 -33 -16 -33 9 0 8 -5 -6 -16 -19 -15 -18 -15 3 -9 30 8 35 -30 9 -70
-14 -22 -3 -15 40 25 54 50 53 49 -11 -18 -38 -39 -74 -71 -80 -69 -5 2 -21
-4 -34 -14 -37 -29 -41 -23 -19 34 11 28 21 75 21 102 2 45 0 50 -20 53 -14 2
-32 -6 -48 -22 -14 -14 -25 -22 -25 -18 0 4 9 70 20 147 21 151 26 375 10 485
-7 47 -6 68 3 79 9 12 9 13 0 7 -7 -4 -13 -3 -13 2 0 14 48 21 54 8 3 -8 7 -8
13 0 4 6 22 15 38 19 l30 8 -30 7 -30 6 40 12 c22 7 46 12 53 12 6 0 31 20 55
44 48 48 131 88 222 107 33 7 69 18 80 25 24 14 123 36 135 29 4 -2 47 4 96
14 49 11 125 25 168 31 44 7 89 18 100 25 26 16 209 66 256 70 19 1 40 3 46 4
6 0 18 17 27 37 11 22 29 40 50 49 30 12 1089 229 1162 237 66 8 55 -7 -15
-19z m-2529 -31 c37 -33 33 -47 -12 -56 l-32 -6 23 -25 c13 -14 22 -27 19 -29
-6 -6 -158 132 -152 138 4 3 33 6 65 6 49 0 62 -4 89 -28z m2062 11 c-7 -2
-19 -2 -25 0 -7 3 -2 5 12 5 14 0 19 -2 13 -5z m-50 -10 c-7 -2 -19 -2 -25 0
-7 3 -2 5 12 5 14 0 19 -2 13 -5z m-88 -18 c-27 -7 -61 -13 -75 -13 -14 0 0 6
30 13 72 17 110 16 45 0z m-2346 -9 c10 -12 7 -15 -17 -21 l-29 -6 71 -69 c63
-62 68 -70 46 -70 -17 0 -44 19 -88 63 -59 58 -66 62 -109 62 -72 0 -61 19 19
37 94 20 94 20 107 4z m2234 -13 c-7 -2 -19 -2 -25 0 -7 3 -2 5 12 5 14 0 19
-2 13 -5z m-2002 -29 c26 -31 -20 -46 -59 -18 -27 18 -28 31 -4 36 24 6 49 -2
63 -18z m1946 20 c-3 -3 -12 -4 -19 -1 -8 3 -5 6 6 6 11 1 17 -2 13 -5z
m-2326 -86 c43 -45 77 -84 75 -85 -4 -4 -71 18 -176 56 l-85 31 57 -54 c46
-43 53 -55 39 -59 -12 -3 -45 20 -99 70 -119 108 -109 118 51 52 54 -22 103
-39 109 -37 5 2 -13 25 -40 50 -45 42 -49 55 -18 57 5 1 44 -36 87 -81z m2276
76 c-3 -3 -12 -4 -19 -1 -8 3 -5 6 6 6 11 1 17 -2 13 -5z m-49 -9 c-7 -7 -245
-55 -266 -54 -9 1 42 14 113 29 136 29 162 33 153 25z m-4028 -31 c0 -8 -4
-13 -8 -10 -4 2 -13 -4 -20 -15 -7 -11 -8 -19 -2 -19 5 0 10 4 10 9 0 6 9 9
20 8 20 -1 27 -21 11 -31 -5 -3 -7 -20 -5 -38 1 -18 3 -37 3 -41 1 -4 11 -3
24 3 16 8 14 4 -8 -14 -16 -14 -38 -26 -48 -26 -10 0 -16 -4 -13 -9 4 -5 -8
-12 -25 -16 -19 -4 -33 -15 -36 -26 -8 -29 -69 -62 -100 -55 -24 7 -24 6 -9
-10 9 -9 14 -19 11 -22 -3 -4 -10 0 -14 7 -5 7 -14 10 -20 7 -6 -4 -11 -2 -11
4 0 6 -5 8 -10 5 -6 -4 -8 -11 -4 -16 7 -12 -18 -7 -27 4 -4 5 -17 -2 -31 -16
-18 -18 -32 -23 -52 -20 -20 4 -39 -3 -72 -26 -24 -18 -44 -27 -44 -22 0 6 4
11 10 11 12 0 50 40 50 53 0 5 -7 4 -15 -3 -8 -6 -20 -8 -26 -4 -7 4 -9 3 -6
-3 10 -15 -26 -44 -42 -34 -9 6 -10 11 -2 15 6 4 11 2 11 -4 0 -6 5 -8 10 -5
6 3 10 10 10 15 0 14 -53 0 -66 -18 -12 -16 -13 -15 -14 5 0 12 -6 23 -12 26
-51 18 267 223 484 312 98 41 88 39 88 19z m1505 -80 c55 -29 109 -60 120 -69
19 -16 19 -16 -10 -12 -16 3 -44 10 -61 17 -18 8 -44 10 -67 6 -33 -6 -37 -10
-35 -34 2 -21 -2 -28 -17 -30 -17 -2 -25 12 -52 87 -17 49 -29 92 -25 95 9 10
41 -3 147 -60z m1560 47 c-15 -26 -83 -45 -387 -111 -555 -119 -947 -213
-1483 -354 -203 -54 -257 -66 -205 -45 142 58 874 239 1706 423 161 35 307 73
329 85 39 21 53 21 40 2z m668 2 c-7 -2 -19 -2 -25 0 -7 3 -2 5 12 5 14 0 19
-2 13 -5z m-50 -10 c-7 -2 -19 -2 -25 0 -7 3 -2 5 12 5 14 0 19 -2 13 -5z
m-3652 -30 c-12 -20 -14 -14 -5 12 4 9 9 14 11 11 3 -2 0 -13 -6 -23z m3589
17 c-14 -4 -36 -8 -50 -8 -22 0 -22 1 5 8 17 4 39 8 50 8 16 0 15 -2 -5 -8z
m-2325 -80 c70 -70 76 -80 55 -80 -17 0 -49 24 -102 76 -43 41 -78 77 -78 79
0 3 10 5 23 5 15 0 49 -27 102 -80z m3772 58 c-3 -8 -6 -5 -6 6 -1 11 2 17 5
13 3 -3 4 -12 1 -19z m-1552 1 c-47 -14 -297 -61 -301 -56 -3 2 62 18 143 35
146 30 218 39 158 21z m-2440 -80 l73 -71 56 12 c53 11 76 8 76 -9 0 -5 -34
-14 -74 -21 l-75 -13 -85 79 c-81 76 -86 86 -47 93 2 1 36 -31 76 -70z m3892
29 c-3 -8 -6 -5 -6 6 -1 11 2 17 5 13 3 -3 4 -12 1 -19z m-1434 5 c-7 -2 -21
-2 -30 0 -10 3 -4 5 12 5 17 0 24 -2 18 -5z m-2600 -68 c65 -36 123 -65 128
-65 5 0 9 -4 9 -10 0 -16 -33 -11 -68 10 -29 18 -38 19 -80 9 -58 -15 -56 -13
-43 -37 9 -16 7 -21 -10 -25 -22 -6 -20 -9 -58 101 -20 58 -21 82 -3 82 4 0
60 -29 125 -65z m3854 43 c-3 -8 -6 -5 -6 6 -1 11 2 17 5 13 3 -3 4 -12 1 -19z
m-1592 6 c-5 -2 -127 -28 -270 -58 -301 -64 -468 -100 -545 -120 -30 -8 -68
-17 -84 -21 -28 -6 -28 -7 -22 -53 4 -32 3 -42 -4 -32 -14 21 -12 76 3 88 16
13 865 200 912 200 11 0 16 -1 10 -4z m-2495 -29 c0 -15 -8 -29 -22 -36 -21
-11 -22 -11 -9 4 11 14 11 18 -4 23 -17 7 -17 8 1 21 26 19 34 16 34 -12z
m4255 5 c3 -5 1 -10 -4 -10 -6 0 -11 5 -11 10 0 6 2 10 4 10 3 0 8 -4 11 -10z
m-1140 -38 c-1 -41 -10 -62 -27 -62 -13 0 -4 66 13 86 15 19 15 19 14 -24z
m-3815 8 c0 -5 -5 -10 -11 -10 -5 0 -7 5 -4 10 3 6 8 10 11 10 2 0 4 -4 4 -10z
m525 -4 c12 -12 12 -16 0 -26 -10 -9 -21 -7 -47 6 l-33 18 30 7 c17 4 31 7 33
8 2 0 10 -5 17 -13z m-579 -31 c-8 -8 -18 -15 -22 -15 -3 0 -1 7 6 15 7 8 17
15 22 15 5 0 3 -7 -6 -15z m788 -42 c9 -26 16 -50 16 -55 0 -16 -33 -7 -103
29 -86 44 -80 39 -76 52 3 6 25 1 57 -14 29 -14 51 -29 47 -35 -3 -6 1 -7 10
-4 12 5 14 14 9 40 -10 54 21 44 40 -13z m-759 16 c-6 -32 -12 -34 -12 -4 0
14 3 25 8 25 4 0 6 -10 4 -21z m4615 -14 c14 -19 14 -19 -2 -6 -10 7 -18 18
-18 24 0 6 1 8 3 6 1 -2 9 -13 17 -24z m-4650 4 c0 -13 -29 -31 -39 -24 -6 3
-20 1 -32 -5 -34 -19 -32 -4 3 18 30 19 68 26 68 11z m3857 -66 c-3 -10 -5 -4
-5 12 0 17 2 24 5 18 2 -7 2 -21 0 -30z m-4017 7 c0 -5 -4 -10 -10 -10 -5 0
-10 5 -10 10 0 6 5 10 10 10 6 0 10 -4 10 -10z m-36 -18 c2 -4 -4 -8 -14 -8
-10 0 -16 4 -14 8 3 4 9 8 14 8 5 0 11 -4 14 -8z m4053 -44 c-3 -7 -5 -2 -5
12 0 14 2 19 5 13 2 -7 2 -19 0 -25z m-4847 -210 c50 -136 162 -315 281 -452
69 -78 68 -77 -29 21 l-100 101 -42 -9 c-24 -6 -49 -8 -56 -5 -7 3 -27 1 -45
-4 -18 -6 -38 -6 -47 -1 -11 6 -20 4 -29 -7 -12 -16 -14 -16 -23 0 -17 27 -42
11 -35 -22 5 -22 1 -32 -17 -44 -12 -9 -28 -16 -35 -16 -20 0 -44 31 -38 50 5
15 2 17 -15 13 -11 -3 -20 -11 -20 -18 0 -16 -50 -17 -69 -1 -11 8 -13 8 -8 0
9 -15 -16 -25 -34 -13 -22 14 -33 11 -19 -6 7 -8 8 -15 2 -15 -5 0 -15 7 -22
15 -16 19 -25 19 -44 -1 -10 -9 -16 -11 -16 -4 0 6 -12 11 -27 9 -16 -1 -44 5
-63 13 -19 8 -43 18 -52 21 -25 9 -22 22 8 42 15 9 23 12 19 5 -6 -9 -3 -9 14
0 12 6 19 15 16 21 -4 5 -3 9 2 8 19 -3 34 2 29 10 -3 5 2 8 12 7 9 0 16 4 15
10 -1 7 5 11 15 10 9 0 16 5 14 12 -1 8 2 11 7 7 6 -3 43 11 83 32 40 21 80
38 88 38 8 0 21 4 28 8 7 5 12 3 12 -5 0 -9 3 -9 10 2 9 13 11 13 19 1 8 -13
12 -13 27 0 10 8 15 9 11 2 -4 -6 -3 -14 2 -17 5 -4 12 -2 15 2 3 5 20 9 37
10 18 0 35 6 39 13 6 8 9 8 13 -2 5 -12 7 -12 15 0 12 17 44 24 52 10 4 -5 14
-4 24 4 17 13 16 17 -14 77 -17 34 -33 71 -35 81 -6 31 12 21 25 -13z m-95
-14 c-33 -20 -72 -45 -87 -56 -16 -11 -28 -17 -28 -13 0 8 152 105 165 105 6
0 -17 -16 -50 -36z m2348 -1 c-7 -2 -19 -2 -25 0 -7 3 -2 5 12 5 14 0 19 -2
13 -5z m-98 -24 c-33 -10 -64 -18 -70 -18 -15 1 97 38 115 37 8 0 -12 -8 -45
-19z m-2375 -53 c0 -3 -47 -36 -105 -71 -49 -30 -15 -1 45 39 55 36 60 39 60
32z m2035 -70 c-196 -93 -411 -232 -565 -365 -41 -35 -61 -50 -45 -32 48 53
171 149 295 230 110 73 370 212 393 211 7 -1 -28 -20 -78 -44z m1572 2 c-3 -8
-6 -5 -6 6 -1 11 2 17 5 13 3 -3 4 -12 1 -19z m-1000 -20 c-3 -8 -6 -5 -6 6
-1 11 2 17 5 13 3 -3 4 -12 1 -19z m2443 -88 c-6 -10 -9 1 -9 35 1 48 1 49 9
15 5 -19 4 -41 0 -50z m-2418 -180 c0 -122 -5 -198 -21 -290 -20 -121 -59
-273 -60 -237 -1 21 -20 22 -49 1 -13 -9 -35 -20 -50 -24 -15 -4 -26 -13 -24
-19 1 -7 -2 -10 -7 -7 -5 3 -14 -1 -21 -10 -7 -8 -20 -12 -29 -9 -8 3 -12 3
-9 -1 17 -16 -44 -45 -114 -54 -40 -5 -84 -12 -98 -16 -20 -4 -22 -3 -10 5 11
8 12 11 2 11 -7 0 -12 8 -10 18 1 9 -1 23 -5 30 -5 7 -4 12 3 12 6 0 15 11 20
25 5 14 14 25 20 25 6 0 8 4 5 10 -3 5 16 31 42 56 33 32 41 45 26 40 -14 -4
1 16 43 60 35 37 61 70 59 74 -3 4 3 11 12 14 14 6 15 9 4 15 -16 10 -6 31 15
31 16 0 29 9 80 58 19 17 40 32 47 33 7 1 1 4 -13 9 l-25 8 33 12 c18 7 31 15
28 18 -3 3 4 10 17 16 12 7 22 17 22 24 0 7 5 16 11 20 6 4 14 15 17 26 6 14
4 17 -10 12 -14 -6 -14 -4 3 15 l19 21 7 -33 c4 -19 6 31 4 111 -2 112 -1 135
7 100 5 -25 9 -119 9 -210z m-1852 225 c0 -8 5 -15 11 -15 6 0 9 -10 7 -22 -2
-16 -9 -22 -21 -20 -15 3 -17 -1 -12 -17 3 -11 2 -28 -3 -36 -8 -15 -10 -15
-22 -1 -23 28 1 126 31 126 5 0 9 -7 9 -15z m-1821 -127 c30 -10 70 -27 88
-38 31 -18 36 -19 57 -5 36 24 155 55 206 55 25 -1 55 -6 67 -13 33 -19 173
-153 173 -166 0 -7 -5 -9 -10 -6 -6 4 -18 1 -26 -6 -19 -16 -9 -46 29 -86 l30
-32 -29 -6 c-16 -4 -71 -20 -123 -36 -52 -16 -96 -27 -99 -25 -6 7 84 50 145
70 52 17 77 35 51 37 -37 3 -81 -5 -163 -31 -49 -16 -105 -31 -123 -35 -28 -6
-32 -10 -27 -28 5 -20 5 -20 -5 -4 -18 28 -5 47 31 47 17 0 63 15 103 34 39
18 87 40 106 49 l35 16 -47 0 c-26 1 -82 -10 -125 -24 -42 -13 -79 -22 -81
-20 -5 5 79 47 141 70 26 10 47 22 47 27 0 14 -79 1 -170 -28 -120 -38 -100
-11 26 35 74 27 106 51 69 51 -30 0 -196 -42 -223 -56 -15 -8 -39 -14 -54 -14
-16 0 -28 -5 -28 -13 0 -7 18 -50 40 -95 21 -45 37 -82 34 -82 -11 0 -93 185
-85 193 5 5 28 11 52 14 24 3 46 9 49 13 5 7 113 51 158 65 26 8 30 25 5 25
-54 -1 -159 -23 -194 -41 -39 -19 -40 -19 -30 -1 9 18 6 20 -47 25 -31 4 -69
10 -84 13 -23 5 -28 3 -28 -12 0 -19 58 -128 155 -291 51 -85 72 -106 35 -34
-36 71 -12 45 31 -34 49 -89 66 -94 20 -5 -49 95 -29 70 34 -41 31 -55 59 -98
62 -96 2 3 -23 57 -57 121 -34 64 -59 116 -56 116 3 0 19 -27 36 -60 45 -89
131 -232 137 -227 2 3 -18 45 -45 93 -85 150 -127 243 -117 253 16 16 65 25
65 12 0 -6 -11 -11 -24 -11 -14 0 -27 -4 -31 -10 -8 -14 142 -304 189 -365
l16 -20 -7 20 c-4 11 -35 73 -70 139 -36 65 -63 120 -61 121 2 2 46 -75 97
-171 52 -96 96 -173 98 -170 2 2 -32 77 -77 166 -44 89 -80 168 -80 175 0 13
21 25 46 25 9 0 12 -4 9 -10 -3 -5 -15 -10 -26 -10 -16 0 -19 -4 -13 -22 7
-25 96 -203 152 -306 61 -112 45 -58 -23 78 -36 73 -65 134 -63 135 2 2 36
-60 76 -138 39 -78 81 -153 92 -167 11 -14 -15 48 -59 138 -44 89 -78 169 -75
177 4 8 19 15 34 15 15 0 65 17 111 39 46 21 92 41 103 45 12 4 16 12 12 24
-4 10 2 7 14 -8 11 -14 20 -28 20 -32 0 -4 -19 -12 -42 -18 -24 -7 -76 -23
-116 -36 -40 -13 -81 -24 -93 -24 -11 0 -22 -7 -26 -16 -6 -16 57 -153 134
-292 63 -114 46 -57 -26 87 -39 77 -71 147 -71 155 0 8 7 17 16 20 24 9 31 -2
10 -17 -16 -12 -11 -26 63 -174 44 -88 84 -164 90 -168 16 -9 2 23 -68 163
-34 67 -61 124 -61 126 0 9 60 24 65 16 3 -4 -7 -11 -21 -14 -20 -5 -24 -11
-18 -29 12 -38 136 -281 157 -307 25 -31 24 -30 -45 113 -32 64 -58 121 -58
125 0 4 33 -56 73 -133 68 -133 107 -198 107 -182 0 4 -29 66 -65 137 -72 144
-79 175 -40 182 14 3 25 1 25 -3 0 -5 -9 -9 -20 -9 -30 0 -25 -30 16 -113 61
-122 126 -238 130 -234 3 2 -25 65 -62 140 -38 78 -64 142 -61 151 4 10 18 16
34 15 27 0 28 -1 6 -11 -13 -6 -23 -19 -23 -28 0 -22 134 -295 149 -305 14 -8
5 14 -58 145 -28 58 -51 112 -51 121 0 19 20 29 54 29 13 0 63 20 112 45 98
50 104 51 104 31 0 -12 -26 -27 -50 -29 -3 -1 -16 -6 -29 -13 -13 -7 -57 -23
-97 -36 -56 -18 -74 -27 -74 -42 0 -21 148 -331 155 -324 3 2 -18 56 -46 119
-27 63 -46 110 -40 104 5 -5 26 -47 45 -93 37 -86 86 -176 92 -169 2 2 -16 46
-40 98 -78 169 -83 201 -29 198 16 -1 68 18 122 45 71 36 96 45 102 35 12 -20
4 -26 -53 -40 -29 -6 -75 -23 -103 -35 -27 -13 -60 -24 -72 -24 -13 0 -23 -5
-23 -11 0 -14 68 -178 89 -214 10 -16 30 -52 45 -78 48 -85 39 -43 -12 60 -92
179 -96 204 -38 202 l31 -1 -28 -10 c-24 -9 -28 -14 -23 -37 8 -35 121 -260
146 -291 l20 -25 -10 29 c-6 16 -26 57 -45 91 -19 34 -44 87 -54 118 -19 56
-19 57 -1 67 23 12 40 13 40 1 0 -5 -9 -11 -20 -14 -17 -4 -20 -10 -14 -34 7
-29 101 -222 136 -281 44 -72 25 -18 -38 111 -38 78 -64 142 -61 151 4 11 18
16 44 15 l38 -1 -33 -11 c-29 -9 -33 -14 -27 -36 14 -59 150 -320 161 -308 2
2 -12 34 -32 71 -20 37 -34 69 -31 72 2 3 15 -14 27 -38 48 -93 93 -169 97
-165 2 3 -23 60 -57 127 -62 127 -71 163 -44 174 28 11 39 6 20 -9 -28 -22
-17 -65 54 -198 87 -164 115 -189 36 -32 -79 157 -83 176 -40 185 17 4 74 30
127 58 53 28 99 46 102 41 4 -5 1 -9 -4 -9 -6 0 -10 -5 -9 -11 2 -6 -31 -24
-72 -39 -42 -16 -74 -33 -72 -40 1 -6 -2 -9 -8 -5 -6 4 -26 1 -45 -5 -31 -10
-34 -15 -29 -38 13 -55 184 -360 184 -327 0 6 -23 51 -51 100 -96 171 -106
209 -61 219 38 9 142 65 172 93 27 25 36 28 45 13 7 -12 -42 -60 -62 -60 -8 0
-33 -11 -56 -23 -23 -13 -59 -29 -80 -36 -32 -11 -37 -16 -31 -34 15 -51 172
-332 181 -324 4 5 -39 93 -102 205 -44 80 -46 112 -6 112 15 0 39 8 52 18 13
10 38 24 56 31 17 7 46 24 64 37 33 24 49 24 49 -1 0 -16 -54 -48 -64 -38 -3
4 -6 2 -6 -4 0 -6 -18 -13 -40 -17 -22 -3 -40 -11 -40 -16 0 -6 -3 -9 -7 -8
-5 2 -23 -3 -40 -11 -22 -9 -33 -20 -33 -33 0 -34 177 -348 196 -348 3 0 -13
34 -35 75 -140 258 -132 238 -101 255 16 9 22 6 35 -20 16 -32 94 -77 173
-101 34 -10 48 -21 63 -50 26 -52 24 -63 -4 -15 -18 32 -33 42 -83 61 -34 12
-78 31 -98 43 -44 26 -50 27 -43 8 12 -30 222 -352 277 -425 32 -42 99 -142
150 -224 l91 -147 82 56 c45 32 89 64 99 71 10 9 18 11 22 4 4 -5 -24 -31 -61
-57 -38 -26 -82 -58 -100 -71 -17 -13 -38 -23 -46 -23 -23 0 -87 47 -163 121
-49 47 -80 69 -96 69 -43 0 -194 118 -175 137 4 4 21 -9 37 -28 16 -19 29 -29
30 -23 0 6 -9 19 -20 29 -11 10 -20 23 -20 30 0 6 -25 34 -55 62 -59 55 -74
58 -24 5 17 -18 29 -38 27 -44 -2 -6 -14 4 -25 23 -12 19 -80 90 -152 157 -73
69 -128 128 -125 134 4 6 2 8 -4 4 -14 -8 -134 103 -125 117 3 5 2 7 -3 4 -6
-3 -68 48 -139 113 -70 66 -132 117 -137 114 -4 -3 -17 -2 -28 1 -25 8 -131
100 -161 140 l-23 30 24 -20 c13 -11 32 -29 41 -40 31 -36 30 -9 -2 34 -23 33
-35 42 -51 38 -15 -4 -24 2 -36 25 -10 17 -45 67 -80 111 -96 122 -127 168
-124 183 1 7 -3 16 -9 20 -8 5 -9 3 -4 -7 5 -8 4 -11 -1 -6 -9 8 -10 12 -13
38 0 6 -16 25 -33 42 -18 17 -26 27 -18 23 8 -4 5 1 -7 11 -12 10 -49 55 -82
100 -33 46 -69 91 -78 101 -34 33 -80 97 -108 147 -15 28 -35 61 -45 75 -26
36 -110 207 -110 223 0 23 22 37 49 30 14 -3 50 -14 80 -25z m1566 -75 c38
-43 54 -64 36 -48 -33 30 -116 125 -109 125 2 0 35 -35 73 -77z m-935 63 c0
-2 -8 -10 -17 -17 -16 -13 -17 -12 -4 4 13 16 21 21 21 13z m612 -23 c10 -9
18 -21 18 -27 0 -6 -5 -5 -12 2 -30 30 -74 -1 -48 -33 7 -9 10 -18 6 -22 -3
-4 -14 3 -22 16 l-16 22 -24 -22 c-23 -22 -24 -22 -4 -36 11 -8 20 -19 20 -24
0 -6 -14 0 -32 12 l-32 23 59 53 c32 29 61 53 63 53 3 0 14 -7 24 -17z m78
-94 c0 -22 -37 -50 -56 -42 -9 3 -18 -6 -25 -26 -6 -17 -16 -31 -21 -31 -7 0
-7 4 -1 13 16 19 22 56 11 63 -5 3 -18 -2 -29 -12 -10 -9 -22 -15 -25 -12 -3
4 14 20 38 36 24 17 50 38 58 46 12 15 14 15 31 0 11 -10 19 -25 19 -35z
m-1255 21 c16 -7 13 -9 -17 -9 -45 -1 -48 -13 -18 -71 11 -22 18 -40 15 -40
-11 0 -56 110 -50 120 7 12 42 12 70 0z m5395 -57 c0 -3 -7 -3 -15 1 -8 3 -15
1 -15 -4 0 -16 -27 -11 -34 6 -10 27 3 33 34 17 17 -8 30 -17 30 -20z m-4113
-11 c-10 -10 -38 -33 -65 -51 -46 -32 -46 -32 13 22 56 52 89 70 52 29z m78
-50 c-3 -3 -11 3 -18 12 -11 15 -17 17 -35 7 -26 -14 -28 -24 -7 -41 9 -7 13
-15 10 -18 -3 -3 -13 2 -24 12 -17 16 -20 15 -42 -3 -23 -18 -23 -20 -6 -38 9
-11 17 -23 17 -28 0 -12 -40 26 -40 39 0 6 23 32 52 58 l53 47 22 -21 c13 -12
21 -24 18 -26z m-1240 18 c-3 -5 -18 -10 -32 -10 -23 0 -25 -3 -19 -32 4 -22
3 -28 -3 -18 -20 33 -17 54 9 61 37 10 52 10 45 -1z m2415 -37 c-18 -20 -45
-64 -61 -97 -16 -34 -29 -55 -29 -48 0 34 95 182 117 182 3 0 -9 -17 -27 -37z
m297 -20 c7 -18 13 -52 13 -76 0 -42 -27 -153 -35 -145 -2 2 2 26 10 53 25 81
17 155 -20 191 -21 21 -19 40 2 23 9 -8 22 -28 30 -46z m-577 -95 c-62 -67
-122 -136 -134 -155 -11 -18 -25 -33 -30 -33 -4 0 9 21 30 48 46 56 234 262
241 262 2 0 -46 -55 -107 -122z m-2230 62 c11 -22 18 -40 15 -40 -2 0 -14 18
-25 40 -11 22 -18 40 -15 40 2 0 14 -18 25 -40z m1390 36 c0 -2 3 -11 6 -20 3
-9 1 -16 -5 -16 -6 0 -10 6 -8 13 1 7 -8 12 -23 12 -22 0 -25 -4 -25 -37 0
-51 -25 -76 -60 -60 -14 6 -25 20 -25 29 0 15 4 14 19 -6 27 -35 55 -22 48 22
-7 45 8 67 43 67 17 0 30 -2 30 -4z m-840 -60 c0 -2 3 -11 6 -20 4 -11 1 -16
-10 -16 -9 0 -57 -13 -108 -30 -137 -44 -127 -27 22 37 74 32 90 37 90 29z
m924 -42 c9 -3 16 -16 15 -28 0 -21 0 -21 -9 2 -5 12 -15 22 -21 22 -21 0 -48
-31 -42 -48 4 -10 2 -13 -5 -8 -19 11 -14 33 10 50 25 18 30 19 52 10z m-834
-44 c0 -5 -4 -10 -10 -10 -5 0 -10 5 -10 10 0 6 5 10 10 10 6 0 10 -4 10 -10z
m-320 -10 c0 -5 -11 -10 -24 -10 -15 0 -26 -7 -28 -17 -3 -17 -4 -17 -11 0 -5
13 -1 20 16 27 30 12 47 12 47 0z m2097 -12 c-3 -8 -6 -5 -6 6 -1 11 2 17 5
13 3 -3 4 -12 1 -19z m-957 -8 c-32 -25 -88 -36 -103 -21 -9 9 -4 10 18 6 20
-4 42 1 65 14 45 25 52 26 20 1z m-792 -16 c-6 -5 -220 -74 -231 -74 -18 1 58
39 138 71 51 20 73 25 83 17 7 -6 11 -12 10 -14z m509 -6 c-3 -8 -6 -5 -6 6
-1 11 2 17 5 13 3 -3 4 -12 1 -19z m380 6 c7 -19 -52 -82 -84 -91 -57 -14 -60
41 -5 82 24 17 24 15 -6 -19 -53 -60 -11 -81 53 -25 36 32 44 54 23 62 -10 4
-10 6 0 6 7 1 15 -6 19 -15z m850 -26 c-3 -8 -6 -5 -6 6 -1 11 2 17 5 13 3 -3
4 -12 1 -19z m-1697 -22 c-6 -12 -192 -78 -198 -71 -9 8 162 85 183 82 11 -1
18 -6 15 -11z m920 -28 c0 -5 -7 -3 -15 6 -8 8 -15 18 -15 22 0 3 7 1 15 -6 8
-7 15 -17 15 -22z m1136 -5 c-8 -15 -15 -25 -16 -21 0 12 23 58 27 54 3 -2 -2
-17 -11 -33z m1934 21 c0 -2 -5 -15 -10 -30 -20 -51 -49 -168 -44 -176 3 -4 0
-8 -6 -8 -6 0 -8 -5 -4 -12 4 -7 7 -33 5 -58 -4 -65 10 -45 68 99 50 124 82
174 100 156 9 -9 -12 -76 -41 -130 -6 -10 -28 -69 -49 -130 -21 -60 -44 -125
-51 -142 -23 -59 -7 -58 208 11 109 36 258 81 329 101 72 20 134 41 139 46 6
5 1 20 -15 37 -13 15 -7 10 15 -11 21 -21 34 -42 30 -46 -5 -4 -124 -42 -264
-85 -493 -149 -551 -175 -694 -313 -90 -86 -95 -94 -86 -118 23 -61 -1 -157
-52 -201 -17 -16 -16 -12 6 22 35 54 39 98 9 102 -13 2 -96 -33 -195 -82 -221
-109 -497 -203 -678 -231 -78 -12 -37 5 71 30 248 57 494 150 682 258 90 53
99 66 76 109 -15 28 -5 33 30 15 34 -17 38 -12 16 17 -8 11 -29 21 -47 23 -32
3 -47 16 -70 56 -8 17 -7 18 14 12 12 -4 25 -12 26 -16 2 -5 9 -9 15 -9 6 0
23 -12 38 -26 l28 -27 38 33 c65 58 70 67 119 205 9 28 21 59 25 70 4 11 13
38 19 60 18 59 79 214 101 257 11 21 22 47 24 59 3 12 14 32 25 44 11 12 18
24 16 26 -3 3 4 5 14 5 11 0 20 -1 20 -2z m-2207 -18 c6 -16 -2 -28 -14 -20
-12 7 -11 34 0 34 5 0 11 -6 14 -14z m-1723 -20 c0 -8 -43 -28 -105 -48 -58
-19 -105 -32 -105 -28 0 4 39 25 88 46 48 21 91 41 96 45 12 10 26 2 26 -15z
m758 -56 c10 0 28 7 40 16 13 9 25 14 28 12 2 -3 -11 -13 -30 -23 -40 -22 -67
-15 -65 17 l2 23 4 -22 c3 -13 12 -23 21 -23z m1222 32 c0 -5 -7 -17 -15 -28
-14 -18 -14 -17 -4 9 12 27 19 34 19 19z m-1059 -19 c12 -16 12 -17 -1 -7 -8
6 -22 14 -30 17 -13 5 -12 6 1 6 9 1 23 -7 30 -16z m977 5 c-5 -16 -48 -24
-48 -10 0 11 17 20 38 21 8 1 12 -5 10 -11z m-1844 -16 c3 -5 -5 -14 -17 -19
-31 -15 -180 -63 -192 -62 -16 1 168 89 187 89 9 0 19 -4 22 -8z m771 -23
c-14 -18 -24 -38 -21 -46 3 -8 1 -11 -4 -8 -6 3 -10 10 -10 15 0 9 49 70 57
70 3 0 -7 -14 -22 -31z m76 -22 l-24 -22 19 27 c10 14 21 24 23 22 3 -3 -6
-15 -18 -27z m-1143 10 c-16 -6 -28 -18 -29 -26 0 -11 -2 -12 -6 -3 -9 24 6
42 34 41 l28 -1 -27 -11z m352 -22 c0 -8 -36 -25 -87 -43 -49 -16 -97 -33
-108 -37 -16 -6 -18 -5 -8 5 17 18 186 99 196 93 4 -2 7 -10 7 -18z m463 0 c4
0 7 -4 8 -8 2 -18 -9 -16 -27 5 -11 13 -13 18 -4 12 8 -5 18 -9 23 -9z m-83
-70 c7 -9 10 -18 7 -22 -4 -3 -9 2 -13 11 -3 9 -10 13 -15 10 -5 -3 -9 0 -9 5
0 16 16 13 30 -4z m-273 -42 c3 -7 -8 -15 -24 -18 -15 -3 -56 -17 -91 -31 -96
-37 -97 -27 -2 21 87 44 110 49 117 28z m436 -41 c20 -27 47 -60 59 -74 46
-51 92 -134 84 -154 -8 -21 -40 -17 -56 7 -52 73 -73 99 -81 99 -5 0 -22 18
-38 40 -15 21 -31 36 -35 32 -4 -3 -4 1 0 11 4 12 1 17 -10 17 -9 0 -16 7 -16
15 0 8 -7 15 -15 15 -8 0 -15 5 -15 10 0 15 15 12 43 -10 31 -24 43 -25 51 -4
4 12 2 15 -9 11 -16 -7 -29 8 -20 23 11 17 20 11 58 -38z m-660 -42 c-16 -7
-23 -18 -24 -37 0 -27 -1 -27 -11 -6 -15 32 -3 53 29 52 27 0 27 -1 6 -9z
m337 -19 c0 -10 -7 -22 -16 -25 -8 -3 -12 -2 -9 4 3 6 -1 7 -9 4 -9 -3 -13
-11 -9 -17 3 -6 1 -7 -5 -3 -6 3 -35 -5 -63 -19 -95 -46 -86 -25 11 25 52 27
96 49 98 49 1 1 2 -8 2 -18z m54 -56 c-4 -8 -10 -15 -15 -15 -5 0 -44 -16 -85
-36 -42 -20 -78 -34 -80 -31 -6 6 155 95 173 96 7 1 10 -6 7 -14z m63 -51 c3
-9 -37 -29 -170 -83 -6 -2 -7 2 -3 8 4 6 35 25 69 42 34 18 64 36 66 41 4 12
33 6 38 -8z m49 -63 c-4 -6 -14 -11 -22 -11 -8 0 -12 -4 -9 -10 3 -6 -4 -10
-17 -10 -13 0 -42 -11 -66 -25 -23 -13 -59 -27 -78 -31 -46 -8 -50 -22 -25
-80 27 -61 20 -69 -8 -9 -34 72 -32 87 10 96 38 8 185 84 195 101 4 6 10 6 16
0 6 -6 7 -15 4 -21z m328 -32 c-3 -5 -10 -7 -15 -3 -5 3 -7 10 -3 15 3 5 10 7
15 3 5 -3 7 -10 3 -15z m-266 -16 c-2 -10 -13 -19 -26 -21 -13 -2 -20 -8 -16
-14 4 -7 2 -8 -4 -4 -6 4 -38 -7 -72 -24 -33 -17 -60 -26 -60 -20 0 6 34 27
75 47 41 19 72 39 69 44 -3 5 4 9 16 9 15 0 20 -5 18 -17z m302 -32 c10 -19
10 -22 -1 -16 -9 6 -11 3 -6 -8 8 -22 4 -21 -19 4 -14 15 -15 20 -4 17 10 -2
14 4 12 17 -4 23 0 20 18 -14z m613 -252 c56 -51 109 -98 117 -106 28 -27
-154 100 -193 134 -21 19 -43 31 -48 27 -7 -4 -7 1 0 15 7 11 14 21 17 21 3 0
51 -41 107 -91z m-673 67 c0 -8 -6 -17 -12 -20 -7 -3 7 -3 32 1 68 10 83 9 87
-3 2 -7 -5 -10 -20 -7 -31 6 -187 -36 -188 -51 -1 -6 -1 -14 0 -18 0 -5 -7 -8
-16 -8 -13 0 -14 -3 -5 -12 14 -14 16 -48 3 -48 -20 0 -62 43 -56 58 3 8 1 18
-4 22 -9 5 149 97 172 99 4 1 7 -5 7 -13z m2660 -8 c0 -27 -16 -30 -27 -5 -9
19 -8 23 8 23 11 0 19 -7 19 -18z m-60 -39 c0 -5 -4 -9 -10 -9 -5 0 -10 7 -10
16 0 8 5 12 10 9 6 -3 10 -10 10 -16z m-53 -31 c-3 -8 -6 -5 -6 6 -1 11 2 17
5 13 3 -3 4 -12 1 -19z m-37 -18 c0 -5 -5 -10 -11 -10 -5 0 -7 5 -4 10 3 6 8
10 11 10 2 0 4 -4 4 -10z m-2296 -39 c-3 -3 -15 6 -27 18 l-22 24 27 -19 c14
-10 24 -21 22 -23z m2246 9 c0 -5 -4 -10 -10 -10 -5 0 -10 5 -10 10 0 6 5 10
10 10 6 0 10 -4 10 -10z m-45 -20 c3 -5 1 -10 -4 -10 -6 0 -11 5 -11 10 0 6 2
10 4 10 3 0 8 -4 11 -10z m-2164 -17 c13 -16 12 -17 -3 -4 -17 13 -22 21 -14
21 2 0 10 -8 17 -17z m169 4 c0 -2 -12 -14 -27 -28 l-28 -24 24 28 c23 25 31
32 31 24z m-115 -47 c10 -11 16 -20 13 -20 -3 0 -13 9 -23 20 -10 11 -16 20
-13 20 3 0 13 -9 23 -20z m56 -47 c13 -16 12 -17 -3 -4 -17 13 -22 21 -14 21
2 0 10 -8 17 -17z m2252 -10 c-7 -2 -19 -2 -25 0 -7 3 -2 5 12 5 14 0 19 -2
13 -5z m-2212 -20 c13 -16 12 -17 -3 -4 -17 13 -22 21 -14 21 2 0 10 -8 17
-17z m2166 11 c-3 -3 -12 -4 -19 -1 -8 3 -5 6 6 6 11 1 17 -2 13 -5z m-112
-35 c-44 -16 -153 -65 -242 -109 -90 -43 -163 -77 -163 -75 0 17 435 215 470
214 8 0 -21 -13 -65 -30z m-2235 -149 c77 -55 89 -60 122 -54 31 5 45 0 82
-25 25 -17 48 -36 52 -42 3 -6 -13 3 -36 20 -34 24 -53 31 -90 31 -39 0 -58 7
-101 37 -93 63 -154 109 -169 129 -9 10 0 7 20 -9 19 -14 73 -54 120 -87z
m1185 59 l30 -19 -32 0 c-17 0 -54 5 -82 12 -66 15 -138 -1 -217 -47 -49 -29
-54 -30 -29 -9 17 14 62 41 100 60 64 32 75 34 135 28 37 -3 78 -14 95 -25z
m-215 -56 c0 -5 -13 -22 -28 -40 -15 -17 -34 -40 -43 -51 -28 -33 -95 -6 -73
30 22 35 144 87 144 61z m850 -48 c0 -6 -177 -95 -187 -94 -6 0 174 96 185 98
1 1 2 -1 2 -4z m-591 -26 c-16 -10 -23 -4 -14 10 3 6 11 8 17 5 6 -4 5 -9 -3
-15z m1 -79 c8 -5 12 -11 9 -14 -3 -3 -14 1 -25 9 -21 16 -8 20 16 5z m360
-10 c-8 -5 -19 -10 -25 -10 -5 0 -3 5 5 10 8 5 20 10 25 10 6 0 3 -5 -5 -10z
m-630 -30 c0 -5 -2 -10 -4 -10 -3 0 -8 5 -11 10 -3 6 -1 10 4 10 6 0 11 -4 11
-10z m-90 -53 c0 -5 -4 -5 -10 -2 -5 3 -10 14 -10 23 0 15 2 15 10 2 5 -8 10
-19 10 -23z m-375 13 c3 -5 1 -10 -4 -10 -6 0 -11 5 -11 10 0 6 2 10 4 10 3 0
8 -4 11 -10z m145 -69 c-4 -25 -3 -45 4 -52 8 -9 6 -9 -6 0 -10 7 -15 17 -12
23 3 5 0 15 -6 23 -10 12 -10 18 0 30 21 25 28 17 20 -24z m200 -6 c-26 -15
-68 -19 -94 -9 -32 12 -15 19 52 21 63 3 65 2 42 -12z m-300 -10 c12 4 20 2
20 -5 0 -8 9 -10 28 -5 24 5 21 1 -23 -39 -27 -25 -67 -57 -87 -71 -35 -26
-38 -26 -70 -11 -18 9 -44 26 -58 37 -28 23 -9 15 33 -13 15 -11 31 -18 36
-16 5 2 32 25 60 51 49 46 51 49 33 65 -10 9 -12 13 -5 9 6 -5 21 -6 33 -2z
m510 -5 c-36 -27 -122 -78 -145 -85 -11 -4 3 6 30 22 28 16 68 41 90 56 45 31
62 36 25 7z m-299 -46 c29 -16 107 -18 145 -4 41 16 42 2 1 -15 -20 -8 -59
-15 -87 -15 -44 0 -56 5 -81 29 -16 16 -29 38 -29 48 1 15 3 14 14 -6 7 -13
24 -30 37 -37z m229 31 c0 -2 -10 -9 -22 -15 -22 -11 -22 -10 -4 4 21 17 26
19 26 11z m-309 -52 c13 -16 12 -17 -3 -4 -17 13 -22 21 -14 21 2 0 10 -8 17
-17z m69 -36 c13 -5 13 -6 -1 -6 -8 -1 -24 6 -35 15 -19 15 -19 15 1 6 11 -5
27 -12 35 -15z m47 -13 c-3 -3 -12 -4 -19 -1 -8 3 -5 6 6 6 11 1 17 -2 13 -5z"/>
<path d="M7615 7010 c-3 -5 -1 -10 4 -10 6 0 11 5 11 10 0 6 -2 10 -4 10 -3 0
-8 -4 -11 -10z"/>
<path d="M7767 7004 c-10 -28 -15 -29 -367 -64 -162 -17 -439 -46 -615 -66
-176 -19 -358 -35 -405 -36 -83 -1 -84 -1 -34 -10 39 -7 120 -2 340 22 159 17
440 46 624 65 184 19 358 37 386 40 61 7 88 24 82 51 -4 18 -5 18 -11 -2z"/>
<path d="M8208 6813 c7 -3 16 -2 19 1 4 3 -2 6 -13 5 -11 0 -14 -3 -6 -6z"/>
<path d="M4486 6708 c-20 -34 -50 -118 -43 -124 13 -13 43 8 45 31 1 14 9 41
17 61 8 20 15 40 15 45 0 17 -20 9 -34 -13z"/>
<path d="M4531 6688 c-39 -83 -37 -123 3 -82 14 13 17 23 16 49 0 3 6 18 15
35 19 36 19 40 1 40 -8 0 -23 -19 -35 -42z"/>
<path d="M4426 6697 c-13 -19 -46 -101 -46 -113 0 -2 10 -4 23 -4 20 0 25 8
36 58 7 31 15 63 18 70 8 21 -16 13 -31 -11z"/>
<path d="M4576 6673 c-20 -59 -20 -73 0 -73 14 0 29 29 24 46 -1 4 3 10 8 13
6 3 14 19 17 34 6 23 4 27 -13 27 -15 0 -24 -12 -36 -47z"/>
<path d="M4297 6657 c-14 -24 -29 -56 -33 -71 -6 -25 -4 -27 16 -24 14 2 24
11 26 24 2 12 9 34 15 50 15 36 18 64 8 64 -4 0 -18 -19 -32 -43z"/>
<path d="M4686 6676 c-3 -13 -9 -31 -12 -40 -5 -12 0 -16 21 -16 19 0 26 4 22
13 -3 8 -1 20 4 28 7 11 9 9 9 -8 0 -24 33 -33 46 -12 8 14 -3 25 -47 43 -36
15 -37 15 -43 -8z"/>
<path d="M4252 6675 c-11 -13 -52 -100 -52 -111 0 -13 42 -1 46 14 3 9 13 38
24 65 18 47 10 63 -18 32z"/>
<path d="M5498 6683 c7 -3 16 -2 19 1 4 3 -2 6 -13 5 -11 0 -14 -3 -6 -6z"/>
<path d="M4194 6663 c-36 -58 -62 -112 -57 -117 4 -3 14 -6 24 -6 12 0 22 15
34 53 9 28 20 60 26 70 6 12 6 17 -4 17 -6 0 -17 -8 -23 -17z"/>
<path d="M5398 6673 c12 -2 32 -2 45 0 12 2 2 4 -23 4 -25 0 -35 -2 -22 -4z"/>
<path d="M4860 6662 c38 -24 125 -34 215 -23 l90 10 -75 -3 c-70 -4 -144 3
-215 19 -21 4 -25 3 -15 -3z"/>
<path d="M5293 6663 c15 -2 39 -2 55 0 15 2 2 4 -28 4 -30 0 -43 -2 -27 -4z"/>
<path d="M5188 6653 c12 -2 32 -2 45 0 12 2 2 4 -23 4 -25 0 -35 -2 -22 -4z"/>
<path d="M4858 6613 c6 -2 18 -2 25 0 6 3 1 5 -13 5 -14 0 -19 -2 -12 -5z"/>
<path d="M8681 6476 c-9 -11 -9 -25 -1 -57 16 -59 83 -198 113 -234 23 -28 25
-28 31 -8 8 26 36 39 36 17 0 -8 -7 -25 -16 -38 -23 -37 3 -46 33 -12 32 38
31 113 -2 184 -30 65 -52 94 -101 133 -40 32 -75 37 -93 15z"/>
<path d="M8998 6069 c3 -59 -1 -94 -13 -126 -10 -24 -16 -45 -14 -46 2 -1 24
-12 47 -25 40 -22 45 -22 61 -8 17 15 21 14 55 -24 23 -25 44 -40 54 -37 13 3
6 14 -30 50 -45 43 -61 66 -38 52 6 -4 10 7 10 24 0 26 4 31 24 31 30 0 92
-69 102 -114 4 -17 13 -40 20 -51 34 -53 19 -113 -41 -154 -30 -20 -166 -65
-238 -78 -27 -5 -28 -6 -7 -20 18 -13 32 -11 123 12 172 44 277 110 277 176 0
13 -14 53 -30 87 -35 75 -154 204 -215 233 -22 10 -51 29 -65 41 -14 13 -32
24 -39 26 -7 1 -20 9 -28 17 -8 8 -15 15 -16 15 -1 0 -1 -37 1 -81z"/>
<path d="M8766 5925 c-3 -9 0 -15 9 -15 16 0 20 16 6 24 -5 3 -11 -1 -15 -9z"/>
<path d="M8942 5833 c-46 -111 -47 -117 -27 -182 10 -34 21 -61 24 -61 3 0 51
13 105 30 134 39 145 59 74 137 -45 48 -134 123 -148 123 -4 0 -17 -21 -28
-47z"/>
<path d="M7678 6773 c7 -3 16 -2 19 1 4 3 -2 6 -13 5 -11 0 -14 -3 -6 -6z"/>
<path d="M7690 6739 c0 -5 5 -7 10 -4 6 3 10 8 10 11 0 2 -4 4 -10 4 -5 0 -10
-5 -10 -11z"/>
<path d="M3995 6613 c-29 -43 -31 -58 -10 -67 17 -6 40 38 31 61 -3 7 0 12 6
10 5 -1 12 6 13 16 5 28 -13 19 -40 -20z"/>
<path d="M2794 6231 c3 -4 -1 -17 -9 -27 -8 -10 -15 -25 -15 -32 0 -16 -25
-42 -40 -42 -7 0 -9 15 -6 45 4 32 2 45 -7 45 -18 0 -105 -61 -157 -110 -25
-23 -37 -36 -27 -29 15 10 20 10 26 0 5 -7 11 -12 15 -12 22 3 27 -2 7 -8 -33
-9 -37 -25 -12 -50 22 -22 20 -24 -17 -21 -16 1 -25 -5 -29 -19 -7 -28 -27
-27 -41 2 l-11 22 0 -22 c-1 -12 -4 -28 -7 -37 -12 -32 34 -15 127 46 100 67
213 171 228 209 10 29 4 49 -16 49 -8 0 -12 -4 -9 -9z"/>
<path d="M2460 5865 c-7 -8 -17 -12 -23 -8 -5 3 -7 1 -4 -4 4 -6 -2 -21 -12
-34 -10 -14 -22 -45 -25 -71 -5 -38 -3 -47 11 -52 14 -6 15 -4 6 4 -16 17 -1
62 41 121 20 27 36 51 36 54 0 10 -18 4 -30 -10z"/>
<path d="M5980 6495 c-10 -12 -9 -20 4 -40 33 -51 136 -78 160 -42 33 50 -124
130 -164 82z"/>
<path d="M5792 6471 c-22 -13 40 -60 72 -54 37 7 43 23 16 45 -23 19 -66 24
-88 9z"/>
<path d="M5620 6441 c0 -5 16 -21 35 -35 25 -19 41 -25 60 -20 31 8 32 28 3
48 -24 17 -98 22 -98 7z"/>
<path d="M3345 6230 c-3 -5 -8 -19 -10 -31 -4 -18 -2 -19 12 -7 12 9 15 9 9 1
-4 -7 -2 -13 3 -13 6 0 11 7 11 15 0 8 -5 15 -11 15 -6 0 -9 7 -5 15 6 17 0
20 -9 5z"/>
<path d="M3256 6145 c-3 -8 -1 -15 3 -15 5 0 11 7 15 15 3 8 1 15 -3 15 -5 0
-11 -7 -15 -15z"/>
<path d="M3298 6153 c7 -3 16 -2 19 1 4 3 -2 6 -13 5 -11 0 -14 -3 -6 -6z"/>
<path d="M3182 6108 c-14 -14 -16 -42 -3 -34 7 5 23 46 17 46 -1 0 -7 -5 -14
-12z"/>
<path d="M3225 6100 c-24 -27 -14 -35 15 -12 14 11 19 21 13 25 -6 4 -18 -2
-28 -13z"/>
<path d="M3096 6064 c-5 -14 -4 -15 9 -4 17 14 19 20 6 20 -5 0 -12 -7 -15
-16z"/>
<path d="M3054 6045 c-4 -9 -15 -12 -32 -9 -16 3 -35 -1 -47 -10 -20 -15 -20
-15 3 -16 13 0 20 4 17 10 -3 6 -1 10 4 10 6 0 11 -4 11 -9 0 -19 39 -6 49 16
6 13 8 23 5 23 -2 0 -7 -7 -10 -15z"/>
<path d="M4780 6276 c0 -2 5 -17 11 -35 11 -31 26 -37 63 -22 17 6 13 11 -27
34 -26 14 -47 24 -47 23z"/>
<path d="M4200 6166 c0 -2 7 -19 15 -39 14 -35 15 -35 50 -24 19 5 35 13 35
16 0 3 -21 16 -45 29 -45 22 -55 25 -55 18z"/>
<path d="M3270 6060 c0 -5 5 -10 10 -10 6 0 10 5 10 10 0 6 -4 10 -10 10 -5 0
-10 -4 -10 -10z"/>
<path d="M2125 5352 c3 -8 5 -18 5 -23 0 -5 9 -9 20 -9 15 0 20 7 20 25 0 20
-4 24 -25 23 -17 -2 -24 -7 -20 -16z"/>
<path d="M960 5376 c0 -2 8 -10 18 -17 15 -13 16 -12 3 4 -13 16 -21 21 -21
13z"/>
<path d="M1617 4483 c-14 -14 -6 -22 23 -21 24 1 28 4 19 15 -12 14 -32 17
-42 6z"/>
<path d="M1662 4423 c14 -18 32 -49 39 -70 14 -43 32 -73 103 -160 49 -62 76
-79 76 -47 0 14 3 14 15 4 8 -7 15 -11 16 -9 14 66 1 96 -87 194 -61 68 -150
133 -138 100 8 -20 -5 -19 -30 3 -13 11 -11 5 6 -15z"/>
<path d="M1650 4330 c6 -11 16 -20 22 -20 6 0 3 9 -7 20 -10 11 -20 20 -22 20
-2 0 1 -9 7 -20z"/>
<path d="M2061 4045 c28 -38 65 -79 119 -131 91 -88 67 -53 -37 52 -53 55 -90
90 -82 79z"/>
<path d="M2255 3840 c7 -11 45 -33 45 -26 0 2 -7 12 -16 20 -17 18 -39 22 -29
6z"/>
<path d="M2326 3765 c9 -14 19 -24 21 -21 6 6 -20 46 -30 46 -4 0 0 -11 9 -25z"/>
<path d="M2527 3663 c-13 -12 -7 -22 16 -28 24 -8 67 -44 67 -56 0 -5 -8 -5
-17 -2 -15 6 -16 4 -6 -8 6 -8 20 -37 30 -66 36 -101 183 -250 183 -185 0 13
2 14 9 3 15 -24 33 -2 25 32 -14 66 -145 227 -184 227 -9 0 -39 20 -66 45 -27
25 -49 45 -50 45 0 0 -4 -3 -7 -7z"/>
<path d="M2322 5272 c-18 -14 -20 -20 -10 -30 16 -16 33 -15 48 4 11 12 11 18
-1 29 -12 12 -17 12 -37 -3z"/>
<path d="M2588 4003 c7 -3 16 -2 19 1 4 3 -2 6 -13 5 -11 0 -14 -3 -6 -6z"/>
</g>
</svg>
