<?xml version="1.0" standalone="no"?>
<!DOCTYPE svg PUBLIC "-//W3C//DTD SVG 20010904//EN"
 "http://www.w3.org/TR/2001/REC-SVG-20010904/DTD/svg10.dtd">
<svg version="1.0" xmlns="http://www.w3.org/2000/svg"
 width="1024.000000pt" height="1024.000000pt" viewBox="0 0 1024.000000 1024.000000"
 preserveAspectRatio="xMidYMid meet">

<g transform="translate(0.000000,1024.000000) scale(0.100000,-0.100000)"
fill="#000000" stroke="none">
<path d="M0 5120 l0 -5120 5120 0 5120 0 0 5120 0 5120 -5120 0 -5120 0 0
-5120z m1660 1836 c0 -4 -26 -16 -139 -67 -93 -41 -152 -133 -177 -274 -4 -22
-11 -43 -17 -46 -5 -4 -6 -13 -1 -20 18 -29 13 -48 -15 -60 -32 -14 -65 -80
-55 -111 4 -13 2 -18 -4 -14 -5 3 -13 -6 -17 -21 -4 -17 -2 -29 4 -31 18 -6
12 -23 -6 -20 -21 4 -52 -69 -52 -124 -1 -20 -5 -40 -11 -43 -5 -3 -10 -15
-10 -26 0 -10 -4 -19 -8 -19 -11 0 -42 -66 -42 -89 0 -11 -9 -50 -20 -87 -11
-38 -27 -91 -35 -119 -8 -27 -22 -79 -30 -115 -15 -59 -35 -102 -35 -72 0 15
55 262 81 364 10 42 21 96 24 120 5 48 115 380 170 515 41 97 124 231 176 280
56 53 118 83 172 83 26 0 47 -2 47 -4z m412 -61 c73 -24 311 -101 528 -170
810 -259 2552 -835 2913 -963 105 -37 107 -39 82 -52 -24 -13 -49 -7 -333 88
-169 55 -579 190 -912 297 -333 108 -681 222 -775 252 -407 132 -1270 410
-1449 465 -120 38 -130 39 -142 24 -11 -16 -13 -16 -19 3 -3 11 -18 26 -32 33
-15 7 -28 18 -30 24 -3 10 22 44 32 44 3 0 64 -20 137 -45z m-186 14 c3 -6 0
-15 -7 -20 -20 -12 -23 -11 -37 11 -11 18 -10 20 12 20 14 0 28 -5 32 -11z
m924 -686 c1212 -404 1391 -467 1509 -529 82 -44 267 -169 291 -199 7 -8 17
-12 23 -8 6 4 7 1 2 -7 -6 -10 -4 -12 8 -7 10 4 16 2 14 -6 -1 -7 6 -11 15
-11 10 1 16 -2 13 -6 -3 -5 11 -18 30 -30 19 -12 35 -24 35 -26 0 -9 -88 49
-250 165 -190 137 -286 177 -920 381 -168 53 -557 180 -864 280 -492 161 -562
181 -580 170 -19 -12 -20 -11 -8 3 12 14 -15 24 -237 97 -222 73 -273 95 -254
113 8 8 39 -2 1173 -380z m-1109 294 c-10 -9 -11 -8 -5 6 3 10 9 15 12 12 3
-3 0 -11 -7 -18z m-259 -278 c-76 -156 -170 -355 -207 -441 -38 -86 -71 -156
-73 -154 -1 2 16 48 39 102 23 55 59 142 81 194 37 90 290 591 296 586 1 -2
-60 -131 -136 -287z m209 174 c-12 -20 -14 -14 -5 12 4 9 9 14 11 11 3 -2 0
-13 -6 -23z m-374 -5 c-3 -8 -6 -5 -6 6 -1 11 2 17 5 13 3 -3 4 -12 1 -19z
m491 -3 c-6 -14 -13 -23 -15 -21 -5 5 15 46 22 46 3 0 -1 -11 -7 -25z m115
-20 c-3 -9 -8 -14 -10 -11 -3 3 -2 9 2 15 9 16 15 13 8 -4z m107 -34 c-28 -56
-35 -52 -8 4 12 24 23 43 26 41 2 -2 -6 -22 -18 -45z m-454 -167 c-52 -104
-95 -185 -95 -180 -1 12 182 377 186 372 2 -2 -39 -89 -91 -192z m131 14
c-101 -194 -161 -324 -258 -553 -71 -169 -110 -244 -68 -130 74 203 391 866
406 851 3 -2 -33 -78 -80 -168z m353 -35 c-57 -109 -109 -208 -117 -220 -8
-12 -12 -26 -9 -31 3 -5 -1 -9 -9 -9 -11 0 -2 24 29 81 24 45 79 150 121 234
43 84 80 150 82 148 3 -3 -41 -94 -97 -203z m-246 5 c-53 -106 -119 -244 -145
-306 -73 -169 -191 -423 -196 -419 -2 3 44 109 102 237 58 128 105 237 105
242 0 6 35 79 79 162 43 83 93 179 110 214 17 34 33 62 36 62 3 0 -38 -87 -91
-192z m292 -155 c-75 -148 -136 -272 -136 -275 0 -4 -34 -80 -76 -170 -42 -90
-83 -178 -91 -197 -8 -18 -16 -31 -19 -28 -8 8 211 479 334 719 64 124 118
225 120 223 2 -2 -57 -124 -132 -272z m-239 16 c-115 -227 -216 -447 -269
-584 -12 -32 -24 -53 -26 -47 -7 21 105 274 256 575 84 170 156 306 158 304 3
-3 -51 -114 -119 -248z m387 34 c-59 -114 -118 -225 -131 -245 -25 -41 -29
-53 -13 -43 6 4 0 -14 -12 -39 -12 -25 -24 -44 -26 -42 -2 2 4 18 12 35 19 36
20 45 4 35 -6 -4 2 17 19 47 47 85 210 390 229 431 10 21 19 36 22 34 2 -3
-44 -98 -104 -213z m191 138 c-21 -43 -29 -39 -8 4 9 19 18 33 21 31 2 -2 -4
-18 -13 -35z m222 -53 c-11 -28 -23 -46 -25 -40 -3 10 34 92 43 92 2 0 -6 -23
-18 -52z m-185 -124 c-44 -88 -99 -203 -122 -257 -24 -53 -45 -96 -46 -94 -7
6 63 162 151 339 49 98 90 176 92 174 2 -2 -31 -75 -75 -162z m-167 -76 c-58
-113 -103 -208 -100 -211 3 -4 0 -3 -6 2 -8 7 11 52 64 153 117 222 142 267
145 264 1 -2 -45 -96 -103 -208z m450 148 c-72 -163 -288 -576 -302 -576 -2 0
15 37 40 83 25 45 97 187 161 315 113 223 151 291 101 178z m113 -21 c-6 -14
-13 -23 -15 -21 -5 5 15 46 22 46 3 0 -1 -11 -7 -25z m-272 -52 c-154 -317
-328 -643 -343 -643 -2 0 17 37 42 83 25 45 73 136 106 202 99 195 220 425
224 425 2 0 -11 -30 -29 -67z m377 10 c-26 -64 -251 -507 -268 -528 -9 -11 50
112 130 273 136 271 176 346 138 255z m-209 -174 c-88 -178 -233 -449 -240
-449 -2 0 50 105 117 233 66 127 138 269 161 314 23 46 43 81 45 79 2 -2 -35
-82 -83 -177z m322 146 c-17 -41 -35 -73 -36 -63 0 11 39 98 45 98 3 0 -1 -16
-9 -35z m108 -32 c-26 -62 -263 -529 -280 -549 -8 -11 53 117 136 284 140 280
182 357 144 265z m-1778 -104 c-25 -52 -45 -91 -45 -87 -1 11 81 189 86 185 2
-2 -17 -46 -41 -98z m1746 -221 c-83 -166 -158 -312 -167 -323 -8 -11 57 127
147 307 89 180 164 325 166 323 2 -2 -64 -140 -146 -307z m-157 190 c-87 -183
-242 -478 -251 -478 -5 0 265 540 278 558 21 25 16 10 -27 -80z m290 -174
c-120 -243 -305 -587 -328 -609 -5 -5 4 15 20 45 111 201 163 300 259 490 59
118 121 243 138 277 16 35 32 61 34 58 2 -2 -53 -119 -123 -261z m199 149
c-59 -127 -242 -485 -255 -498 -10 -10 8 40 22 60 4 6 66 128 138 273 135 267
177 340 95 165z m-1591 42 c-9 -19 -18 -33 -21 -31 -4 5 26 66 33 66 3 0 -3
-16 -12 -35z m1671 -141 c-66 -138 -282 -554 -296 -569 -6 -5 70 148 169 341
98 194 179 351 181 350 1 -2 -23 -56 -54 -122z m1214 74 c7 -7 12 -17 12 -22
0 -6 -5 -3 -11 7 -14 24 -55 21 -73 -5 -9 -12 -16 -18 -16 -14 0 35 63 59 88
34z m-2942 -55 c-14 -26 -25 -45 -26 -41 0 12 43 98 48 94 2 -2 -8 -26 -22
-53z m1870 20 c-8 -15 -15 -25 -16 -21 0 12 23 58 27 54 3 -2 -2 -17 -11 -33z
m120 -15 c-99 -221 -445 -880 -479 -913 -10 -10 11 31 145 275 37 69 132 252
210 408 135 268 176 345 124 230z m11 -242 c-149 -302 -371 -716 -384 -716 -3
0 14 35 38 78 84 153 256 484 359 690 58 116 107 209 109 207 2 -2 -53 -119
-122 -259z m1023 225 c0 -22 -6 -43 -12 -47 -7 -4 -10 -4 -6 1 4 4 3 14 -3 22
-9 9 -8 13 0 13 6 0 11 7 11 15 0 20 -9 19 -34 -2 -15 -13 -14 -10 3 10 33 37
41 34 41 -12z m-3529 -18 c-11 -21 -20 -35 -21 -31 0 12 33 78 38 74 2 -2 -6
-21 -17 -43z m3639 -8 c-7 -8 -20 -15 -29 -14 -10 0 -8 4 8 10 16 6 21 14 16
27 -5 13 -4 14 6 5 10 -10 9 -15 -1 -28z m-2797 -10 c-9 -19 -18 -33 -21 -31
-4 5 26 66 33 66 3 0 -3 -16 -12 -35z m1416 -171 c-103 -210 -234 -462 -250
-478 -8 -9 176 361 292 587 85 165 63 107 -42 -109z m477 197 c-3 -4 -10 -21
-16 -36 -6 -15 -13 -25 -16 -22 -6 6 23 67 32 67 3 0 3 -4 0 -9z m681 -7 c-3
-3 -12 -4 -19 -1 -8 3 -5 6 6 6 11 1 17 -2 13 -5z m156 -19 c-3 -9 -8 -14 -10
-11 -3 3 -2 9 2 15 9 16 15 13 8 -4z m165 -16 c-3 -8 -7 -3 -11 10 -4 17 -3
21 5 13 5 -5 8 -16 6 -23z m-1041 -301 c-156 -313 -357 -691 -364 -685 -2 2
50 105 116 228 65 123 181 349 257 501 76 152 141 275 143 273 2 -3 -66 -145
-152 -317z m-1991 275 c-8 -15 -15 -25 -16 -21 0 12 23 58 27 54 3 -2 -2 -17
-11 -33z m3109 20 c-11 -3 -29 -12 -40 -22 -20 -16 -20 -16 -1 7 11 12 29 21
40 21 20 -1 20 -2 1 -6z m-2874 -50 c-11 -21 -20 -35 -21 -31 0 12 33 78 38
74 2 -2 -6 -21 -17 -43z m-135 -10 c-8 -15 -15 -25 -16 -21 0 12 23 58 27 54
3 -2 -2 -17 -11 -33z m1811 -144 c-85 -176 -361 -696 -379 -714 -6 -5 22 51
61 125 39 74 144 278 232 453 89 175 163 317 165 314 2 -2 -33 -82 -79 -178z
m319 144 c-8 -15 -15 -25 -16 -21 0 12 23 58 27 54 3 -2 -2 -17 -11 -33z m804
33 c0 -2 -8 -10 -17 -17 -16 -13 -17 -12 -4 4 13 16 21 21 21 13z m143 -41
c-13 -25 -27 -45 -29 -45 -5 0 24 60 38 78 20 24 16 12 -9 -33z m-3932 -2
c-12 -20 -14 -14 -5 12 4 9 9 14 11 11 3 -2 0 -13 -6 -23z m443 -107 c-32 -69
-59 -124 -61 -122 -2 2 21 61 53 130 31 70 58 125 61 123 2 -2 -22 -61 -53
-131z m3441 104 c-10 -11 -28 -19 -39 -19 -20 2 -20 2 1 6 12 2 27 11 33 19 7
8 15 14 18 14 3 0 -3 -9 -13 -20z m91 -18 c3 -9 12 -4 29 15 25 27 24 27 -2
-15 -26 -42 -28 -43 -34 -20 -4 12 -7 32 -7 43 0 19 1 17 14 -23z m585 1 c18
-20 25 -31 14 -23 -32 24 -67 60 -57 60 4 0 24 -17 43 -37z m-3893 -126 c-28
-65 -53 -115 -55 -113 -2 2 19 56 48 120 28 64 53 115 55 113 2 -2 -19 -56
-48 -120z m265 35 c-20 -45 -38 -80 -40 -78 -2 2 13 40 33 85 20 45 39 80 41
78 1 -2 -13 -40 -34 -85z m-117 31 c-8 -15 -15 -25 -16 -21 0 12 23 58 27 54
3 -2 -2 -17 -11 -33z m2000 -264 c-143 -289 -288 -564 -308 -584 -6 -5 31 69
81 165 50 96 153 298 227 448 75 151 138 272 140 269 3 -3 -60 -137 -140 -298z
m377 246 c-15 -30 -29 -53 -31 -51 -4 5 46 106 53 106 3 0 -7 -25 -22 -55z
m1031 30 c-9 -14 -18 -25 -20 -25 -2 0 2 11 8 25 6 14 15 25 20 25 5 0 1 -11
-8 -25z m116 -9 c0 -3 -4 -8 -10 -11 -5 -3 -10 -1 -10 4 0 6 5 11 10 11 6 0
10 -2 10 -4z m-1384 -247 c-127 -258 -336 -652 -343 -645 -3 2 22 53 55 113
33 59 135 258 227 441 92 183 169 331 171 329 3 -2 -47 -110 -110 -238z
m-2170 174 c-8 -15 -15 -25 -16 -21 0 12 23 58 27 54 3 -2 -2 -17 -11 -33z
m584 -23 c-11 -22 -23 -40 -25 -40 -3 0 4 18 15 40 11 22 23 40 25 40 3 0 -4
-18 -15 -40z m1753 -327 c-176 -351 -275 -538 -295 -558 -5 -5 25 55 67 135
71 136 317 620 373 737 14 29 28 51 30 48 3 -2 -76 -165 -175 -362z m1182 329
c-3 -3 -11 0 -18 7 -9 10 -8 11 6 5 10 -3 15 -9 12 -12z m-1170 -43 c-14 -28
-43 -91 -65 -140 -38 -88 -338 -659 -346 -659 -5 0 66 143 179 355 49 94 118
233 153 309 62 135 89 186 99 186 3 0 -6 -23 -20 -51z m-2394 -35 c-16 -33
-30 -56 -31 -53 0 12 52 120 57 116 2 -3 -9 -31 -26 -63z m2543 -190 c-123
-250 -318 -622 -336 -639 -6 -5 27 60 72 145 45 85 135 265 201 400 66 134
124 247 128 250 5 3 17 24 26 48 10 24 19 41 22 39 2 -3 -49 -112 -113 -243z
m-2413 189 c-11 -21 -20 -35 -21 -31 0 12 33 78 38 74 2 -2 -6 -21 -17 -43z
m339 17 c-6 -11 -13 -20 -16 -20 -2 0 0 9 6 20 6 11 13 20 16 20 2 0 0 -9 -6
-20z m2370 -6 c0 -2 -9 0 -20 6 -11 6 -20 13 -20 16 0 2 9 0 20 -6 11 -6 20
-13 20 -16z m96 -52 c-5 -4 -86 36 -86 43 0 3 20 -5 45 -17 24 -12 43 -23 41
-26z m1691 32 c-3 -3 -12 -4 -19 -1 -8 3 -5 6 6 6 11 1 17 -2 13 -5z m-4136
-51 c-12 -20 -14 -14 -5 12 4 9 9 14 11 11 3 -2 0 -13 -6 -23z m199 7 c-6 -11
-13 -20 -16 -20 -2 0 0 9 6 20 6 11 13 20 16 20 2 0 0 -9 -6 -20z m-589 -17
c-12 -20 -14 -14 -5 12 4 9 9 14 11 11 3 -2 0 -13 -6 -23z m834 -3 c-9 -16
-18 -30 -21 -30 -2 0 2 14 11 30 9 17 18 30 21 30 2 0 -2 -13 -11 -30z m240
-20 c-14 -27 -28 -50 -30 -50 -3 0 6 23 20 50 14 28 28 50 30 50 3 0 -6 -22
-20 -50z m1541 -5 c-15 -24 -51 -99 -81 -167 -57 -125 -269 -535 -287 -553 -6
-5 42 91 105 215 63 124 143 286 178 360 34 74 66 137 69 140 4 3 12 15 19 28
6 12 14 22 17 22 3 0 -6 -20 -20 -45z m284 35 c8 -5 11 -10 5 -10 -5 0 -17 5
-25 10 -8 5 -10 10 -5 10 6 0 17 -5 25 -10z m-2399 -27 c-12 -20 -14 -14 -5
12 4 9 9 14 11 11 3 -2 0 -13 -6 -23z m2250 0 c-12 -20 -14 -14 -5 12 4 9 9
14 11 11 3 -2 0 -13 -6 -23z m-2390 -40 c-12 -20 -14 -14 -5 12 4 9 9 14 11
11 3 -2 0 -13 -6 -23z m2424 -159 c-119 -249 -319 -634 -330 -634 -2 0 90 184
203 410 113 225 207 408 209 407 2 -2 -35 -84 -82 -183z m2059 177 c4 -5 -3
-7 -14 -4 -23 6 -26 13 -6 13 8 0 17 -4 20 -9z m-4363 -28 c-12 -20 -14 -14
-5 12 4 9 9 14 11 11 3 -2 0 -13 -6 -23z m2153 -193 c-110 -224 -295 -573
-301 -567 -1 2 29 64 69 138 39 74 120 234 180 356 95 195 148 294 155 289 1
-1 -45 -98 -103 -216z m-2043 163 c-12 -20 -14 -14 -5 12 4 9 9 14 11 11 3 -2
0 -13 -6 -23z m-250 -10 c-12 -20 -14 -14 -5 12 4 9 9 14 11 11 3 -2 0 -13 -6
-23z m120 -10 c-12 -20 -14 -14 -5 12 4 9 9 14 11 11 3 -2 0 -13 -6 -23z
m2490 -20 c-12 -20 -14 -14 -5 12 4 9 9 14 11 11 3 -2 0 -13 -6 -23z m-2380
-10 c-12 -20 -14 -14 -5 12 4 9 9 14 11 11 3 -2 0 -13 -6 -23z m2500 -10 c-12
-20 -14 -14 -5 12 4 9 9 14 11 11 3 -2 0 -13 -6 -23z m-1946 -13 c-9 -16 -18
-30 -21 -30 -2 0 2 14 11 30 9 17 18 30 21 30 2 0 -2 -13 -11 -30z m-194 -7
c-12 -20 -14 -14 -5 12 4 9 9 14 11 11 3 -2 0 -13 -6 -23z m2179 -162 c-77
-151 -102 -195 -80 -136 14 37 154 304 158 300 2 -1 -34 -75 -78 -164z m-245
22 c-69 -149 -211 -422 -227 -438 -6 -5 30 69 79 165 49 96 114 228 144 292
30 65 57 118 61 118 3 0 -23 -62 -57 -137z m630 127 c13 -5 14 -9 5 -9 -8 0
-24 4 -35 9 -13 5 -14 9 -5 9 8 0 24 -4 35 -9z m-2604 -88 c-15 -40 -31 -75
-35 -79 -4 -5 3 21 17 57 37 95 39 101 43 97 2 -2 -9 -35 -25 -75z m2098 -61
c-29 -61 -54 -110 -56 -107 -2 2 20 53 48 115 29 61 54 110 56 107 2 -2 -20
-53 -48 -115z m626 109 c13 -6 15 -9 5 -9 -8 0 -22 4 -30 9 -18 12 -2 12 25 0z
m-2854 -47 c-12 -20 -14 -14 -5 12 4 9 9 14 11 11 3 -2 0 -13 -6 -23z m240
-20 c-12 -20 -14 -14 -5 12 4 9 9 14 11 11 3 -2 0 -13 -6 -23z m184 -3 c-9
-16 -18 -30 -21 -30 -2 0 2 14 11 30 9 17 18 30 21 30 2 0 -2 -13 -11 -30z
m2793 -40 c267 -80 575 -180 569 -186 -3 -4 -92 23 -587 178 -205 64 -246 78
-226 78 3 0 113 -32 244 -70z m-648 20 c-6 -11 -13 -20 -16 -20 -2 0 0 9 6 20
6 11 13 20 16 20 2 0 0 -9 -6 -20z m-2349 -27 c-12 -20 -14 -14 -5 12 4 9 9
14 11 11 3 -2 0 -13 -6 -23z m750 0 c-12 -20 -14 -14 -5 12 4 9 9 14 11 11 3
-2 0 -13 -6 -23z m1880 -49 c-16 -33 -30 -56 -31 -52 0 11 53 118 58 114 2 -2
-10 -30 -27 -62z m-2471 16 c-6 -11 -13 -20 -16 -20 -2 0 0 9 6 20 6 11 13 20
16 20 2 0 0 -9 -6 -20z m2561 -76 c-16 -33 -30 -56 -31 -52 0 11 53 118 58
114 2 -2 -10 -30 -27 -62z m215 -40 c-19 -38 -35 -66 -36 -62 0 11 63 138 68
134 2 -2 -13 -35 -32 -72z m-763 31 c-3 -9 -8 -14 -10 -11 -3 3 -2 9 2 15 9
16 15 13 8 -4z m-254 -44 c-12 -23 -24 -39 -26 -38 -2 2 7 22 19 45 13 22 24
39 26 37 2 -2 -6 -22 -19 -44z m1122 -17 c-16 -33 -30 -56 -31 -52 0 11 53
118 58 114 2 -2 -10 -30 -27 -62z m-1980 19 c-12 -20 -14 -14 -5 12 4 9 9 14
11 11 3 -2 0 -13 -6 -23z m1500 -39 c-16 -33 -30 -56 -31 -52 0 11 53 118 58
114 2 -2 -10 -30 -27 -62z m245 19 c-8 -15 -15 -25 -16 -21 0 12 23 58 27 54
3 -2 -2 -17 -11 -33z m350 -10 c-8 -15 -15 -25 -16 -21 0 12 23 58 27 54 3 -2
-2 -17 -11 -33z m-2605 0 c-12 -20 -14 -14 -5 12 4 9 9 14 11 11 3 -2 0 -13
-6 -23z m1379 -193 c-61 -121 -112 -220 -115 -220 -3 0 44 99 105 220 61 121
112 220 115 220 3 0 -44 -99 -105 -220z m1304 96 c-26 -58 -49 -105 -51 -103
-2 2 17 51 42 108 25 57 45 106 45 108 0 2 2 2 5 -1 3 -2 -16 -53 -41 -112z
m440 78 c26 -9 45 -18 43 -20 -2 -2 -28 5 -58 15 -30 11 -49 20 -43 20 6 1 32
-6 58 -15z m-548 -51 c-8 -15 -15 -25 -16 -21 0 12 23 58 27 54 3 -2 -2 -17
-11 -33z m-480 -10 c-8 -15 -15 -25 -16 -21 0 12 23 58 27 54 3 -2 -2 -17 -11
-33z m705 -10 c-11 -21 -20 -35 -21 -31 0 12 33 78 38 74 2 -2 -6 -21 -17 -43z
m127 12 c-6 -14 -13 -23 -15 -21 -5 5 15 46 22 46 3 0 -1 -11 -7 -25z m352 5
c18 -12 2 -12 -25 0 -13 6 -15 9 -5 9 8 0 22 -4 30 -9z m-964 -37 c-8 -15 -15
-25 -16 -21 0 12 23 58 27 54 3 -2 -2 -17 -11 -33z m110 -20 c-14 -26 -25 -45
-26 -41 0 12 43 98 48 94 2 -2 -8 -26 -22 -53z m-475 -10 c-11 -21 -20 -35
-21 -31 0 12 33 78 38 74 2 -2 -6 -21 -17 -43z m-1500 10 c-12 -20 -14 -14 -5
12 4 9 9 14 11 11 3 -2 0 -13 -6 -23z m1170 4 c-10 -9 -11 -8 -5 6 3 10 9 15
12 12 3 -3 0 -11 -7 -18z m1480 -83 c-27 -55 -50 -96 -50 -92 -1 11 93 198 97
194 2 -2 -19 -48 -47 -102z m-560 59 c-12 -20 -14 -14 -5 12 4 9 9 14 11 11 3
-2 0 -13 -6 -23z m445 -49 c-19 -38 -35 -66 -36 -62 0 11 63 138 68 134 2 -2
-13 -35 -32 -72z m-810 29 c-8 -15 -15 -25 -16 -21 0 12 23 58 27 54 3 -2 -2
-17 -11 -33z m585 -10 c-11 -21 -20 -35 -21 -31 0 12 33 78 38 74 2 -2 -6 -21
-17 -43z m-1501 -3 c-11 -22 -23 -40 -25 -40 -3 0 4 18 15 40 11 22 23 40 25
40 3 0 -4 -18 -15 -40z m786 -7 c-8 -15 -15 -25 -16 -21 0 12 23 58 27 54 3
-2 -2 -17 -11 -33z m835 10 c-12 -20 -14 -14 -5 12 4 9 9 14 11 11 3 -2 0 -13
-6 -23z m-518 -91 c-20 -45 -38 -80 -40 -78 -2 2 13 40 33 85 20 45 39 80 41
78 1 -2 -13 -40 -34 -85z m823 -18 c-25 -49 -45 -86 -45 -82 -1 11 83 178 87
174 2 -2 -17 -44 -42 -92z m-925 59 c-12 -20 -14 -14 -5 12 4 9 9 14 11 11 3
-2 0 -13 -6 -23z m1072 -8 c-9 -19 -18 -33 -21 -31 -4 5 26 66 33 66 3 0 -3
-16 -12 -35z m-1557 -12 c-8 -15 -15 -25 -16 -21 0 12 23 58 27 54 3 -2 -2
-17 -11 -33z m840 0 c-8 -15 -15 -25 -16 -21 0 12 23 58 27 54 3 -2 -2 -17
-11 -33z m-720 -10 c-8 -15 -15 -25 -16 -21 0 12 23 58 27 54 3 -2 -2 -17 -11
-33z m97 -51 c-14 -34 -28 -60 -30 -58 -2 2 8 31 23 65 15 34 28 60 30 58 2
-2 -8 -31 -23 -65z m498 41 c-12 -20 -14 -14 -5 12 4 9 9 14 11 11 3 -2 0 -13
-6 -23z m345 -10 c-8 -15 -15 -25 -16 -21 0 12 23 58 27 54 3 -2 -2 -17 -11
-33z m-2065 0 c-12 -20 -14 -14 -5 12 4 9 9 14 11 11 3 -2 0 -13 -6 -23z
m2767 -58 c-23 -46 -44 -83 -46 -81 -4 5 76 166 83 166 3 0 -14 -38 -37 -85z
m-2478 25 c-11 -22 -23 -40 -25 -40 -3 0 4 18 15 40 11 22 23 40 25 40 3 0 -4
-18 -15 -40z m1871 -7 c-11 -21 -20 -35 -21 -31 0 12 33 78 38 74 2 -2 -6 -21
-17 -43z m-1178 22 c-3 -9 -8 -14 -10 -11 -3 3 -2 9 2 15 9 16 15 13 8 -4z
m838 -12 c-12 -20 -14 -14 -5 12 4 9 9 14 11 11 3 -2 0 -13 -6 -23z m665 -89
c-30 -60 -55 -106 -55 -102 -1 11 103 218 107 214 2 -2 -22 -53 -52 -112z
m390 15 c-25 -52 -45 -90 -45 -86 -1 12 81 188 86 184 2 -2 -17 -46 -41 -98z
m-2466 51 c-11 -22 -23 -40 -25 -40 -3 0 4 18 15 40 11 22 23 40 25 40 3 0 -4
-18 -15 -40z m1621 -27 c-11 -21 -20 -35 -21 -31 0 12 33 78 38 74 2 -2 -6
-21 -17 -43z m195 -69 c-30 -60 -55 -106 -55 -102 -1 11 103 218 107 214 2 -2
-22 -53 -52 -112z m385 30 c-22 -44 -40 -76 -41 -72 0 11 73 158 78 154 2 -2
-15 -39 -37 -82z m-1648 61 c-3 -9 -8 -14 -10 -11 -3 3 -2 9 2 15 9 16 15 13
8 -4z m838 -22 c-12 -20 -14 -14 -5 12 4 9 9 14 11 11 3 -2 0 -13 -6 -23z
m-1181 -3 c-6 -11 -13 -20 -16 -20 -2 0 0 9 6 20 6 11 13 20 16 20 2 0 0 -9
-6 -20z m791 -37 c-11 -21 -20 -35 -21 -31 0 12 33 78 38 74 2 -2 -6 -21 -17
-43z m3359 -77 c18 -105 2 -189 -61 -320 -16 -33 -29 -64 -29 -69 0 -35 -287
-476 -326 -501 -16 -10 -24 -13 -17 -6 6 7 9 18 7 24 -3 7 35 77 84 157 49 79
116 192 147 249 32 58 63 110 70 115 7 6 31 57 55 115 40 97 43 112 44 200 1
52 -2 111 -6 130 l-7 35 14 -30 c7 -16 19 -61 25 -99z m-1654 67 c-8 -15 -15
-25 -16 -21 0 12 23 58 27 54 3 -2 -2 -17 -11 -33z m-1585 0 c-12 -20 -14 -14
-5 12 4 9 9 14 11 11 3 -2 0 -13 -6 -23z m1455 -10 c-8 -15 -15 -25 -16 -21 0
12 23 58 27 54 3 -2 -2 -17 -11 -33z m-1825 -30 c-11 -21 -20 -35 -21 -31 0
12 33 78 38 74 2 -2 -6 -21 -17 -43z m830 0 c-11 -21 -20 -35 -21 -31 0 12 33
78 38 74 2 -2 -6 -21 -17 -43z m-490 -30 c-11 -21 -20 -35 -21 -31 0 12 33 78
38 74 2 -2 -6 -21 -17 -43z m-730 10 c-12 -20 -14 -14 -5 12 4 9 9 14 11 11 3
-2 0 -13 -6 -23z m2315 -10 c-8 -15 -15 -25 -16 -21 0 12 23 58 27 54 3 -2 -2
-17 -11 -33z m-400 -30 c-14 -26 -25 -45 -26 -41 0 12 43 98 48 94 2 -2 -8
-26 -22 -53z m649 18 c-21 -43 -29 -39 -8 4 9 19 18 33 21 31 2 -2 -4 -18 -13
-35z m-124 2 c-12 -20 -14 -14 -5 12 4 9 9 14 11 11 3 -2 0 -13 -6 -23z m-260
-10 c-12 -20 -14 -14 -5 12 4 9 9 14 11 11 3 -2 0 -13 -6 -23z m-1000 -40
c-11 -21 -20 -35 -21 -31 0 12 33 78 38 74 2 -2 -6 -21 -17 -43z m855 0 c-8
-15 -15 -25 -16 -21 0 12 23 58 27 54 3 -2 -2 -17 -11 -33z m558 -189 c-109
-237 -285 -589 -309 -619 -9 -11 30 72 87 185 96 190 170 344 271 563 22 48
42 86 44 84 2 -2 -40 -98 -93 -213z m-833 159 c-11 -21 -20 -35 -21 -31 0 12
33 78 38 74 2 -2 -6 -21 -17 -43z m400 20 c-12 -20 -14 -14 -5 12 4 9 9 14 11
11 3 -2 0 -13 -6 -23z m120 -10 c-12 -20 -14 -14 -5 12 4 9 9 14 11 11 3 -2 0
-13 -6 -23z m148 -214 c-110 -232 -244 -496 -273 -534 -8 -11 74 158 182 376
108 218 198 395 200 394 1 -1 -48 -107 -109 -236z m-1068 144 c-11 -21 -20
-35 -21 -31 0 12 33 78 38 74 2 -2 -6 -21 -17 -43z m510 20 c-12 -20 -14 -14
-5 12 4 9 9 14 11 11 3 -2 0 -13 -6 -23z m-735 -30 c-8 -15 -15 -25 -16 -21 0
12 23 58 27 54 3 -2 -2 -17 -11 -33z m1115 10 c-12 -20 -14 -14 -5 12 4 9 9
14 11 11 3 -2 0 -13 -6 -23z m-1150 -90 c-11 -21 -20 -35 -21 -31 0 12 33 78
38 74 2 -2 -6 -21 -17 -43z m730 20 c-12 -20 -14 -14 -5 12 4 9 9 14 11 11 3
-2 0 -13 -6 -23z m390 0 c-12 -20 -14 -14 -5 12 4 9 9 14 11 11 3 -2 0 -13 -6
-23z m1309 6 c0 -11 -4 -17 -10 -14 -5 3 -10 13 -10 21 0 8 5 14 10 14 6 0 10
-9 10 -21z m-1969 -22 c-10 -9 -11 -8 -5 6 3 10 9 15 12 12 3 -3 0 -11 -7 -18z
m710 -83 c-22 -44 -40 -76 -41 -72 0 11 73 158 78 154 2 -2 -15 -39 -37 -82z
m770 59 c-12 -20 -14 -14 -5 12 4 9 9 14 11 11 3 -2 0 -13 -6 -23z m-1365 -20
c-8 -15 -15 -25 -16 -21 0 12 23 58 27 54 3 -2 -2 -17 -11 -33z m-380 -10 c-8
-15 -15 -25 -16 -21 0 12 23 58 27 54 3 -2 -2 -17 -11 -33z m225 -29 c-16 -33
-30 -56 -31 -52 0 11 53 118 58 114 2 -2 -10 -30 -27 -62z m2026 4 c-3 -8 -6
-5 -6 6 -1 11 2 17 5 13 3 -3 4 -12 1 -19z m-276 -25 c-12 -20 -14 -14 -5 12
4 9 9 14 11 11 3 -2 0 -13 -6 -23z m-1998 2 c-3 -9 -8 -14 -10 -11 -3 3 -2 9
2 15 9 16 15 13 8 -4z m2572 5 c11 -18 -269 -500 -290 -500 -28 0 -20 30 30
111 30 48 88 149 131 225 94 171 112 192 129 164z m-2204 -27 c-12 -20 -14
-14 -5 12 4 9 9 14 11 11 3 -2 0 -13 -6 -23z m919 -262 c-73 -143 -139 -269
-146 -278 -23 -29 34 96 80 177 24 41 76 141 117 222 41 80 75 145 77 143 2
-2 -56 -121 -128 -264z m-1307 244 c-3 -9 -8 -14 -10 -11 -3 3 -2 9 2 15 9 16
15 13 8 -4z m2205 -173 c-39 -100 -73 -180 -75 -178 -2 2 28 85 68 185 39 100
73 181 75 179 2 -2 -29 -86 -68 -186z m-217 141 c-12 -20 -14 -14 -5 12 4 9 9
14 11 11 3 -2 0 -13 -6 -23z m-1081 -133 c-33 -66 -62 -120 -65 -120 -3 0 22
54 55 120 33 66 62 120 65 120 3 0 -22 -54 -55 -120z m-709 73 c-12 -20 -14
-14 -5 12 4 9 9 14 11 11 3 -2 0 -13 -6 -23z m-130 -10 c-12 -20 -14 -14 -5
12 4 9 9 14 11 11 3 -2 0 -13 -6 -23z m1890 0 c-12 -20 -14 -14 -5 12 4 9 9
14 11 11 3 -2 0 -13 -6 -23z m-238 -138 c-3 -9 -8 -14 -10 -11 -3 3 -2 9 2 15
9 16 15 13 8 -4z m-983 -3 c0 -5 -7 -17 -15 -28 -14 -18 -14 -17 -4 9 12 27
19 34 19 19z m734 -212 c-47 -94 -88 -169 -91 -166 -2 2 14 37 35 77 22 41 60
116 86 167 25 50 49 92 52 92 3 0 -34 -77 -82 -170z m219 155 c-3 -9 -8 -14
-10 -11 -3 3 -2 9 2 15 9 16 15 13 8 -4z m-990 -10 c-3 -9 -8 -14 -10 -11 -3
3 -2 9 2 15 9 16 15 13 8 -4z m102 -55 c-14 -27 -28 -50 -30 -50 -3 0 6 23 20
50 14 28 28 50 30 50 3 0 -6 -22 -20 -50z m844 -27 c-36 -79 -128 -253 -135
-253 -3 0 -1 8 4 18 5 9 20 40 34 67 71 143 119 235 123 235 2 0 -9 -30 -26
-67z m-966 42 c-3 -9 -8 -14 -10 -11 -3 3 -2 9 2 15 9 16 15 13 8 -4z m637
-153 c0 -5 -7 -17 -15 -28 -14 -18 -14 -17 -4 9 12 27 19 34 19 19z m371 -49
c-11 -21 -20 -35 -21 -31 0 12 33 78 38 74 2 -2 -6 -21 -17 -43z"/>
</g>
</svg>
