<?xml version="1.0" standalone="no"?>
<!DOCTYPE svg PUBLIC "-//W3C//DTD SVG 20010904//EN"
 "http://www.w3.org/TR/2001/REC-SVG-20010904/DTD/svg10.dtd">
<svg version="1.0" xmlns="http://www.w3.org/2000/svg"
 width="1024.000000pt" height="1024.000000pt" viewBox="0 0 1024.000000 1024.000000"
 preserveAspectRatio="xMidYMid meet">

<g transform="translate(0.000000,1024.000000) scale(0.100000,-0.100000)"
fill="#000000" stroke="none">
<path d=" m9385 2658 c33 -15 55 -56 55 -101 0 -19 5 -48 10 -64 9 -24 6 -53 -15
-141 -38 -166 -77 -264 -197 -500 -166 -326 -330 -601 -431 -727 -151 -187
-288 -265 -439 -251 -95 9 -168 35 -343 123 -168 85 -230 109 -322 123 -66 11
-176 2 -303 -24 -58 -12 -66 -12 -78 3 -7 9 -11 10 -7 3 4 -8 -6 -18 -29 -27
-50 -21 -63 -19 -75 13 -11 27 -11 27 -5 -5 4 -25 1 -34 -16 -43 -20 -11 -21
-10 -10 10 10 18 8 26 -11 46 -20 22 -21 24 -4 24 10 0 16 2 14 4 -2 3 -29 1
-59 -4 -30 -4 -45 -8 -32 -9 12 0 22 -7 22 -13 0 -9 3 -9 9 1 8 12 13 12 35
-3 14 -9 26 -20 26 -25 0 -14 -28 -33 -39 -27 -5 4 -11 -2 -13 -11 -3 -14 -9
-9 -28 19 -14 21 -28 38 -32 38 -5 0 -8 -22 -8 -50 0 -42 -2 -48 -17 -43 -11
4 -14 3 -9 -5 4 -7 3 -12 -2 -12 -4 0 -16 15 -26 33 -16 31 -17 27 -2 -19 8
-26 -33 -50 -54 -31 -10 9 -12 8 -7 -5 7 -19 -21 -40 -45 -36 -7 2 -12 -3 -10
-9 4 -22 -16 -14 -23 8 -5 13 -2 25 6 31 11 8 10 9 -3 4 -25 -8 -34 15 -13 31
22 15 12 17 -15 3 -19 -10 -19 -11 0 -43 11 -17 20 -37 20 -43 0 -7 -35 -35
-77 -64 -219 -149 -330 -267 -509 -540 -145 -223 -240 -353 -293 -403 -54 -51
-233 -142 -424 -216 -263 -102 -1357 -468 -1917 -641 -617 -190 -1455 -429
-1466 -417 -3 2 24 12 58 22 536 149 1333 425 1733 598 116 50 311 143 435
205 240 122 354 172 392 172 16 0 34 -13 55 -41 31 -40 32 -40 44 -18 16 31 7
113 -30 280 -37 163 -40 238 -11 264 10 9 56 37 102 61 46 24 80 44 77 44 -10
0 -116 -47 -182 -81 -37 -19 -65 -28 -75 -23 -10 4 -21 6 -25 5 -5 -1 -6 3 -2
9 8 14 -81 53 -106 47 -17 -4 -19 1 -19 38 0 65 -17 63 -30 -2 -6 -32 -13 -64
-15 -70 -5 -16 17 -17 31 -3 21 21 173 -327 174 -396 0 -7 -19 -12 -44 -12
-43 -1 -144 -37 -191 -68 -13 -8 -75 -39 -139 -68 -64 -30 -128 -61 -142 -71
-24 -16 -356 -187 -504 -261 -370 -183 -587 -271 -1035 -419 -164 -54 -226
-73 -640 -202 -286 -88 -773 -225 -867 -243 -67 -13 -68 -13 -125 16 -32 16
-59 37 -61 45 -5 27 883 475 1675 845 339 158 448 206 353 154 -71 -39 -17
-18 147 56 92 42 218 98 278 124 157 68 305 138 305 144 0 3 -11 1 -24 -3 -16
-7 -76 0 -202 24 -372 71 -974 197 -1379 289 -627 144 -645 148 -645 166 0 13
-2 13 -9 1 -8 -12 -17 -12 -53 -3 -23 7 -108 27 -188 46 -80 19 -158 40 -175
47 -16 7 -33 13 -37 14 -5 2 -9 3 -10 4 -2 1 -19 3 -38 5 -66 5 -150 35 -151
54 0 14 -2 14 -9 -3 -9 -19 -9 -19 -16 3 -7 24 -20 29 -27 10 -3 -7 -6 -2 -6
12 -1 19 -3 22 -10 10 -6 -8 -7 -18 -4 -24 4 -5 -1 -7 -11 -3 -10 4 -27 7 -38
7 -14 0 -18 5 -15 15 4 8 2 17 -3 20 -6 4 -10 -1 -10 -9 0 -9 -4 -16 -10 -16
-26 0 10 100 49 134 29 26 152 35 531 35 966 2 2103 -66 3235 -194 121 -13
292 -29 380 -35 251 -17 247 -14 113 -70 -119 -49 -178 -77 -178 -85 0 -3 24
5 53 16 129 52 443 164 649 233 381 127 524 191 714 318 60 40 150 111 199
159 127 122 187 175 210 183 11 4 88 11 170 16 83 4 179 16 214 25 166 43 280
129 399 303 41 59 87 124 104 146 45 56 70 129 67 195 -3 54 -2 57 30 73 53
26 48 29 -13 8 -69 -23 -72 -6 -5 27 l44 22 -35 -6 c-28 -4 -33 -3 -23 7 6 7
29 21 50 31 34 16 35 18 8 12 l-30 -6 32 31 c17 18 49 36 70 41 36 9 36 9 8
10 l-30 2 25 14 c14 8 38 14 53 15 16 0 26 4 23 9 -3 4 -18 6 -33 4 -23 -3
-25 -2 -11 7 10 6 33 11 53 12 38 1 49 17 13 19 -21 1 -21 2 -3 6 11 2 30 6
43 9 13 2 20 9 17 14 -3 6 5 10 19 10 13 0 26 5 28 11 2 6 15 13 28 15 14 2
45 11 70 21 35 14 74 18 175 18 116 0 139 -3 214 -28 107 -36 200 -83 279
-141 34 -25 66 -46 71 -46 5 0 30 -10 57 -22 57 -25 138 -27 182 -4 35 18 92
81 92 101 0 49 37 115 100 180 71 74 103 126 114 188 9 47 -8 103 -41 138 -24
26 -24 28 -6 38 24 14 56 14 88 -1z m-2291 -1617 c14 -26 14 -30 0 -35 -24 -9
-24 -9 -24 29 0 43 5 44 24 6z m756 -8 c30 -8 109 -40 175 -70 66 -30 167 -75
225 -99 l105 -43 -40 -17 c-66 -27 -121 -12 -441 120 -62 26 -161 59 -220 74
-119 29 -120 29 -112 38 3 3 59 -2 124 -11 125 -17 187 -38 406 -135 67 -29
127 -50 140 -47 18 3 9 10 -44 35 -73 34 -83 37 -73 22 3 -6 -1 -7 -9 -4 -9 3
-14 10 -11 14 3 4 -2 11 -11 14 -8 3 -12 2 -9 -4 9 -15 -1 -12 -45 10 -39 20
-56 38 -24 26 9 -3 12 -2 9 5 -4 5 -16 7 -27 3 -13 -4 -18 -2 -14 4 3 5 -1 13
-10 16 -9 4 -12 2 -8 -5 4 -7 -1 -9 -12 -7 -11 2 -18 10 -16 17 2 9 -4 10 -19
6 -14 -5 -19 -3 -15 3 7 11 -29 27 -42 18 -5 -3 -49 3 -98 13 -56 12 -80 20
-64 23 40 6 120 -2 180 -19z m-365 -3 c-27 -5 -70 -8 -95 -7 -45 0 -45 0 10 7
30 4 73 7 95 7 38 0 37 0 -10 -7z m-1453 -1185 c-7 -57 5 -99 33 -111 22 -11
25 -9 35 21 12 35 32 50 65 46 16 -3 17 -1 6 12 -7 9 -20 13 -29 10 -14 -4
-14 -3 -3 5 17 12 38 3 65 -27 11 -12 22 -21 26 -21 4 0 40 -22 81 -49 41 -26
116 -69 167 -95 86 -43 172 -110 159 -123 -3 -3 61 -39 144 -79 90 -45 149
-80 149 -89 0 -8 6 -12 13 -10 24 9 39 -11 32 -44 -8 -36 -17 -44 -40 -35 -12
5 -15 15 -10 38 5 29 4 29 -5 6 -6 -13 -13 -26 -14 -28 -5 -4 -307 117 -323
130 -10 8 -9 18 2 45 l15 36 -32 -27 c-126 -103 -225 -122 -305 -58 -22 17
-22 18 -6 87 8 39 24 91 35 117 21 46 18 92 -3 71 -10 -10 -58 -132 -102 -261
l-22 -62 -50 5 c-32 3 -21 -1 30 -11 60 -11 119 -14 233 -10 l153 6 112 -36
c274 -88 540 -195 669 -267 118 -66 236 -183 271 -268 14 -34 13 -36 -7 -49
-18 -12 -19 -11 -9 2 17 20 6 29 -24 17 -36 -13 -39 -11 -15 10 27 23 28 31 2
31 -11 0 -19 6 -18 13 2 6 -5 11 -14 9 -13 -2 -16 2 -11 14 5 14 2 16 -16 11
-18 -4 -21 -2 -16 14 5 15 1 19 -19 19 -18 0 -24 4 -20 15 5 11 -1 15 -21 15
-22 0 -25 3 -20 21 5 16 3 20 -12 19 -34 -4 -42 0 -36 16 4 10 1 15 -8 14 -27
-4 -40 0 -34 10 3 6 -1 10 -10 10 -9 0 -13 5 -9 11 4 7 0 9 -14 5 -14 -5 -21
-1 -25 13 -3 14 -11 18 -32 13 -24 -4 -27 -2 -20 17 6 20 5 22 -13 12 -30 -16
-43 -14 -40 7 2 13 -3 16 -24 14 -20 -2 -28 1 -28 12 0 12 -7 14 -32 9 -26 -5
-30 -4 -25 10 5 14 1 15 -23 10 -22 -4 -30 -2 -30 8 0 8 -12 15 -27 16 -15 0
-29 6 -31 12 -2 6 -17 11 -33 11 -19 0 -27 4 -23 13 3 10 -5 12 -31 9 -29 -4
-34 -1 -29 12 5 13 1 15 -25 10 -20 -4 -31 -3 -31 5 0 6 -13 11 -30 11 -22 0
-28 4 -23 16 4 12 0 14 -23 8 -40 -11 -52 -9 -141 20 -44 15 -169 39 -288 56
-115 17 -244 40 -285 51 -61 17 -330 55 -415 60 -17 1 -16 2 5 9 16 6 -4 7
-55 5 -59 -3 -72 -2 -50 5 22 7 12 8 -40 4 -52 -3 -66 -1 -55 6 11 8 4 10 -30
6 l-45 -6 35 16 c98 44 257 108 270 109 8 1 82 30 164 66 110 47 161 75 197
107 27 24 47 47 44 52 -3 6 60 70 70 70 0 0 -1 -16 -3 -35z m-77 -45 c-7 -11
-79 -50 -92 -50 -7 0 86 58 95 59 2 1 0 -4 -3 -9z m2405 -267 c0 -10 -4 -24
-9 -31 -7 -11 -9 -11 -14 2 -7 19 1 46 14 46 5 0 9 -8 9 -17z m-3185 -32 c-22
-10 -58 -23 -80 -30 -22 -7 -88 -30 -146 -52 -65 -24 -113 -37 -124 -33 -12 5
-16 4 -12 -3 10 -16 -211 -89 -225 -75 -8 8 -5 9 8 6 11 -3 44 8 74 24 31 17
134 55 230 87 96 31 200 65 230 75 72 24 96 24 45 1z m3358 -36 c30 -4 45 -10
41 -17 -4 -6 -1 -9 7 -6 15 5 28 -3 74 -49 27 -26 37 -48 50 -110 26 -116 46
-183 70 -233 34 -67 123 -331 151 -445 80 -321 -27 -652 -243 -753 -141 -65
-340 -15 -522 132 -140 113 -257 295 -341 531 -71 201 -117 279 -223 382 -51
49 -118 104 -150 123 -38 23 -56 40 -54 50 3 8 8 24 11 35 4 11 -1 5 -12 -14
-24 -42 -38 -25 -21 24 11 28 11 37 0 47 -10 11 -11 10 -5 -5 9 -25 -14 -77
-32 -70 -18 7 -18 21 1 57 9 16 13 31 10 34 -2 3 -13 -13 -22 -35 -20 -44 -42
-46 -44 -5 -2 25 -2 25 -6 4 -8 -40 -28 -18 -26 29 l1 44 -10 -38 c-11 -41
-29 -44 -39 -6 -7 23 -7 23 -8 2 -1 -29 -31 -19 -31 11 -1 19 -2 19 -11 4 -8
-15 -14 -15 -37 -6 -41 18 -47 25 -32 43 16 20 27 19 33 -2 4 -14 5 -13 6 4 2
35 -20 39 -44 9 -21 -26 -57 -28 -51 -3 1 7 1 9 -1 5 -6 -10 -25 -10 -41 0
-10 7 -10 16 -1 43 15 43 13 41 33 33 9 -3 17 -18 17 -33 1 -17 3 -20 6 -8 2
9 11 17 18 17 22 0 88 -33 106 -52 18 -20 34 -24 23 -7 -4 7 -1 10 7 7 7 -2
16 -15 20 -29 l7 -24 1 24 c1 18 5 22 19 16 9 -4 24 -9 32 -10 8 -1 22 -5 30
-8 135 -50 261 -72 405 -71 117 0 123 1 245 46 220 81 312 129 432 229 88 73
54 59 -43 -18 -100 -79 -233 -145 -419 -207 -141 -48 -196 -54 -315 -37 -42 6
-31 8 70 12 105 5 133 10 230 43 150 52 301 127 352 176 61 59 148 102 193 96
19 -3 56 -8 83 -11z m-3983 -180 c0 -9 -191 -65 -201 -59 -7 4 -9 3 -6 -3 8
-12 -99 -47 -115 -37 -7 4 -8 3 -4 -5 6 -9 0 -10 -21 -6 -22 5 -25 4 -13 -5
12 -9 10 -10 -9 -5 -15 5 -21 3 -17 -3 4 -6 -3 -8 -16 -5 -19 4 -20 3 -8 -7
12 -9 11 -10 -8 -5 -26 7 -125 -22 -117 -35 6 -9 -50 -30 -75 -28 -32 3 -51
-2 -45 -12 3 -5 0 -7 -8 -4 -8 2 -79 -16 -158 -41 -79 -26 -189 -59 -244 -75
-55 -15 -192 -56 -305 -89 -500 -150 -863 -249 -1275 -349 -479 -116 -633
-151 -700 -156 -80 -7 -48 2 180 55 219 50 672 162 930 230 392 104 730 201
1245 356 118 35 289 87 380 114 91 28 247 77 347 109 107 36 188 57 199 53 12
-5 15 -3 9 6 -6 10 -2 11 15 6 15 -5 20 -4 16 4 -5 7 -1 9 8 5 9 -3 16 -8 16
-9z m2993 -122 c-7 -2 -19 -2 -25 0 -7 3 -2 5 12 5 14 0 19 -2 13 -5z m-220
-280 c-7 -2 -21 -2 -30 0 -10 3 -4 5 12 5 17 0 24 -2 18 -5z m-4078 -23 c-27
-12 -43 -12 -25 0 8 5 22 9 30 9 10 0 8 -3 -5 -9z m4118 -7 c-7 -2 -21 -2 -30
0 -10 3 -4 5 12 5 17 0 24 -2 18 -5z m75 -60 c-10 -2 -28 -2 -40 0 -13 2 -5 4
17 4 22 1 32 -1 23 -4z m18 -51 c-10 -2 -22 0 -28 6 -6 6 0 7 19 4 21 -5 23
-7 9 -10z m54 -42 c0 -13 -30 -13 -50 0 -11 7 -7 10 18 10 17 0 32 -4 32 -10z
m80 -35 c-16 -20 -78 -31 -93 -16 -8 8 -2 11 24 11 18 0 41 5 49 10 23 15 34
12 20 -5z m31 -55 c-24 -21 -85 -27 -96 -10 -4 6 11 10 37 10 24 0 50 5 58 10
25 16 26 10 1 -10z m-5464 4 c-3 -3 -12 -4 -19 -1 -8 3 -5 6 6 6 11 1 17 -2
13 -5z m5508 -54 c-25 -28 -82 -37 -103 -16 -16 15 -15 16 14 10 18 -3 44 0
64 9 46 20 46 20 25 -3z m26 -61 c-29 -24 -65 -34 -88 -24 -13 6 -2 12 40 22
31 9 57 20 57 26 0 6 3 7 8 3 4 -4 -4 -16 -17 -27z m44 -49 c-17 -27 -115 -53
-115 -30 0 6 8 10 18 10 10 0 28 8 41 17 14 9 21 11 17 5 -10 -17 10 -15 26 2
15 16 24 13 13 -4z m-20 -40 c-3 -5 -11 -10 -16 -10 -6 0 -7 5 -4 10 3 6 11
10 16 10 6 0 7 -4 4 -10z m51 -29 c-9 -14 -84 -34 -102 -27 -25 10 -15 23 15
18 16 -2 41 3 57 11 30 16 40 15 30 -2z m24 -55 c-19 -23 -76 -39 -97 -27 -16
9 -15 10 7 11 14 1 39 7 55 15 40 18 50 18 35 1z m10 -66 c-19 -11 -48 -19
-65 -19 -24 0 -20 4 25 19 72 24 83 24 40 0z m42 -56 c-29 -20 -87 -29 -96
-15 -5 7 4 11 26 12 18 0 42 4 53 9 33 14 41 11 17 -6z m23 -55 c-22 -10 -51
-18 -65 -18 -18 1 -13 4 15 10 22 5 44 14 49 19 6 6 17 10 26 9 8 0 -3 -9 -25
-20z m173 -103 c81 -78 139 -122 228 -172 80 -45 136 -63 237 -78 l82 -13 -60
-7 c-33 -4 -73 -9 -88 -11 -19 -3 -26 -1 -21 7 5 8 -1 9 -20 4 -20 -5 -26 -4
-20 5 5 9 -1 10 -20 5 -20 -5 -26 -3 -21 5 6 8 -2 9 -25 4 -23 -5 -30 -4 -26
4 5 8 -5 10 -36 6 -43 -6 -43 -6 -13 8 40 18 17 31 -32 18 -20 -6 -39 -8 -42
-5 -3 2 5 7 17 11 41 10 24 25 -20 18 l-43 -7 25 21 25 22 -42 -6 c-42 -7 -60
6 -27 19 28 11 4 25 -34 20 l-37 -6 23 19 c29 24 20 33 -26 27 l-37 -5 23 19
c32 29 28 35 -20 27 -42 -7 -42 -6 -20 10 32 23 27 35 -15 35 -34 0 -35 1 -20
18 22 24 11 34 -30 26 -39 -7 -44 2 -7 16 20 8 25 15 21 30 -5 19 -4 19 22 -3
15 -12 59 -53 99 -91z m-185 37 c-7 -2 -19 -2 -25 0 -7 3 -2 5 12 5 14 0 19
-2 13 -5z m34 -49 c-3 -3 -12 -4 -19 -1 -8 3 -5 6 6 6 11 1 17 -2 13 -5z"/>
<path d="M8220 7304 c-289 -56 -475 -318 -457 -643 6 -122 34 -208 96 -302 84
-129 198 -221 311 -253 124 -34 230 -26 304 25 63 42 137 135 214 267 63 107
82 96 37 -23 -29 -77 -73 -145 -129 -199 -23 -21 -31 -34 -19 -27 35 18 120
107 148 155 14 23 41 92 60 153 40 128 57 150 86 113 22 -29 23 -70 4 -125
-20 -56 -12 -54 13 3 31 72 42 133 43 232 1 127 -22 204 -92 315 -76 120 -218
232 -357 281 -68 23 -207 38 -262 28z m210 -82 c34 -16 77 -49 113 -86 32 -34
55 -53 51 -43 -8 23 8 22 23 -2 9 -14 9 -21 1 -23 -8 -3 -7 -11 2 -27 12 -23
11 -24 -17 -18 -33 6 -71 36 -148 113 -69 69 -119 104 -150 104 -16 0 -24 4
-20 11 10 15 81 2 145 -29z m120 -12 c54 -28 110 -78 110 -100 0 -10 6 -21 13
-23 6 -3 2 -6 -10 -6 -13 -1 -30 11 -43 30 -12 16 -40 42 -62 57 -23 15 -52
35 -67 44 -26 18 -26 18 -3 18 12 0 40 -9 62 -20z m120 -377 c0 -7 6 -10 14
-7 18 7 63 -70 78 -135 10 -47 10 -55 -10 -90 -12 -21 -22 -46 -22 -55 0 -9
-7 -19 -15 -22 -8 -4 -15 -12 -15 -20 0 -8 -6 -14 -13 -14 -11 0 -16 26 -20
103 -4 61 -16 138 -32 192 -32 117 -32 125 5 90 17 -16 30 -35 30 -42z"/>
<path d="M9259 7173 c-13 -16 -12 -17 4 -4 9 7 17 15 17 17 0 8 -8 3 -21 -13z"/>
<path d="M7720 7146 c0 -9 40 -13 46 -5 3 5 -6 9 -20 9 -14 0 -26 -2 -26 -4z"/>
<path d="M9220 7129 c-45 -37 -113 -61 -172 -63 -60 -1 -58 -16 3 -16 53 0
122 27 166 65 41 37 44 47 3 14z"/>
<path d="M8890 7102 c8 -5 26 -13 40 -16 17 -5 20 -4 10 2 -8 5 -26 13 -40 16
-17 5 -20 4 -10 -2z"/>
<path d="M7691 6768 c-47 -164 -91 -249 -177 -335 -57 -57 -91 -81 -167 -118
-68 -33 -94 -51 -90 -61 3 -8 9 -14 14 -14 4 0 5 8 2 17 -5 13 -3 15 12 9 11
-4 16 -4 12 0 -4 5 28 25 71 45 170 82 267 212 332 447 18 62 30 115 28 118
-3 2 -19 -47 -37 -108z"/>
<path d="M7670 6535 c-16 -20 -4 -65 17 -65 15 0 15 1 -1 13 -29 21 -16 52 21
52 17 0 29 3 26 7 -8 14 -50 9 -63 -7z"/>
<path d="M7740 6512 c0 -6 -7 -18 -16 -26 -8 -9 -11 -16 -5 -16 13 0 35 39 27
48 -3 3 -6 0 -6 -6z"/>
<path d="M7740 6445 c-15 -18 -40 -20 -40 -3 0 6 -2 9 -5 7 -2 -3 0 -21 5 -41
10 -36 11 -36 45 -25 19 6 35 14 35 18 0 5 -12 4 -26 -1 -35 -14 -44 -13 -44
5 0 8 6 15 14 15 15 0 42 28 34 35 -3 3 -11 -1 -18 -10z"/>
<path d="M7737 6353 c-9 -9 -8 -35 1 -51 7 -10 16 -9 45 3 40 16 49 26 18 18
-13 -3 -23 2 -30 16 -12 22 -23 26 -34 14z m25 -45 c-13 -13 -26 8 -17 30 6
16 7 16 17 -1 7 -13 7 -22 0 -29z"/>
<path d="M7208 6263 c-10 -2 -18 -8 -18 -13 0 -10 38 -1 46 11 5 9 1 10 -28 2z"/>
<path d="M7018 6223 c6 -2 18 -2 25 0 6 3 1 5 -13 5 -14 0 -19 -2 -12 -5z"/>
<path d="M6963 6213 c9 -2 23 -2 30 0 6 3 -1 5 -18 5 -16 0 -22 -2 -12 -5z"/>
<path d="M6863 6200 c-48 -11 -110 -52 -193 -126 -264 -236 -447 -329 -1033
-526 -180 -61 -326 -112 -324 -114 3 -3 144 38 432 128 208 64 470 172 581
239 110 67 242 163 377 275 95 81 129 101 197 120 49 13 18 17 -37 4z"/>
<path d="M6953 6149 c19 -11 14 -29 -9 -29 -8 0 -14 8 -14 17 0 9 -3 14 -6 10
-3 -3 -3 -15 1 -26 5 -17 10 -19 26 -11 15 9 19 7 19 -5 0 -9 5 -13 10 -10 8
5 7 11 -1 21 -6 8 -8 14 -4 14 4 0 2 7 -5 15 -7 8 -18 15 -24 15 -6 0 -3 -5 7
-11z"/>
<path d="M6770 6067 c0 -5 9 -22 21 -38 20 -29 39 -38 39 -19 0 6 -7 10 -15
10 -8 0 -15 4 -15 8 0 11 -29 49 -30 39z"/>
<path d="M6684 6015 c-14 -11 -15 -14 -3 -9 11 3 23 -6 37 -28 27 -41 28 -34
3 14 -17 34 -20 36 -37 23z"/>
<path d="M6766 5997 c3 -10 9 -15 12 -12 3 3 0 11 -7 18 -10 9 -11 8 -5 -6z"/>
<path d="M6665 5966 c10 -14 19 -26 22 -26 7 0 -17 39 -28 46 -6 3 -3 -5 6
-20z"/>
<path d="M6605 5960 c-12 -19 9 -37 35 -29 l25 7 -27 1 c-31 1 -38 17 -10 24
15 4 15 5 0 6 -9 0 -20 -3 -23 -9z"/>
<path d="M6527 5913 c-2 -5 7 -24 21 -43 18 -27 23 -29 17 -11 -7 21 -5 23 19
19 28 -6 33 1 15 19 -9 9 -15 8 -26 -3 -17 -17 -37 -8 -29 12 5 14 -10 20 -17
7z"/>
<path d="M6620 5900 c0 -6 7 -10 15 -10 8 0 15 2 15 4 0 2 -7 6 -15 10 -8 3
-15 1 -15 -4z"/>
<path d="M6474 5865 c-13 -33 43 -84 61 -55 3 5 0 7 -9 4 -27 -10 -41 7 -20
24 18 13 18 14 -3 7 -17 -4 -23 -2 -23 8 0 9 6 18 13 20 9 4 9 6 -1 6 -7 1
-15 -6 -18 -14z"/>
<path d="M6421 5826 c-9 -11 -9 -16 0 -22 7 -4 9 -3 5 4 -3 6 2 15 11 21 10 6
13 11 7 11 -6 0 -17 -6 -23 -14z"/>
<path d="M6460 5799 c24 -10 24 -11 6 -25 -16 -11 -17 -14 -4 -14 9 0 18 6 21
14 7 17 -11 36 -32 35 -9 0 -5 -5 9 -10z"/>
<path d="M5786 5524 c-3 -9 -6 -20 -6 -25 0 -12 27 -12 35 1 3 6 -1 7 -9 4
-19 -7 -21 7 -4 24 8 8 8 12 1 12 -6 0 -14 -7 -17 -16z"/>
<path d="M5820 5485 c-12 -15 -7 -45 8 -45 4 0 17 6 27 14 16 12 17 16 6 30
-17 20 -25 20 -41 1z m37 -12 c4 -11 -26 -27 -35 -19 -2 3 -2 12 2 21 6 18 27
16 33 -2z"/>
<path d="M5856 5435 c-11 -8 -16 -15 -10 -15 5 0 18 7 28 15 11 8 16 15 10 15
-5 0 -18 -7 -28 -15z"/>
<path d="M5270 5420 c-9 -6 -10 -10 -3 -10 6 0 15 5 18 10 8 12 4 12 -15 0z"/>
<path d="M5876 5415 c-11 -8 -15 -15 -9 -15 6 0 16 7 23 15 16 19 11 19 -14 0z"/>
<path d="M5900 5380 c-8 -5 -12 -11 -10 -14 3 -2 14 2 24 10 22 15 10 19 -14
4z"/>
<path d="M1607 5359 c7 -7 15 -10 18 -7 3 3 -2 9 -12 12 -14 6 -15 5 -6 -5z"/>
<path d="M5916 5359 c-15 -9 -16 -13 -5 -20 18 -11 49 -11 49 0 0 5 -10 7 -22
4 -22 -4 -23 -4 -4 11 22 18 11 21 -18 5z"/>
<path d="M5114 5340 c-23 -11 -53 -37 -69 -60 -15 -22 -30 -38 -33 -35 -3 3 5
16 18 30 13 14 20 25 15 25 -17 0 -84 -86 -104 -133 -15 -36 -20 -66 -18 -130
3 -93 23 -145 83 -216 67 -78 144 -100 283 -81 152 21 270 84 320 172 17 29
31 60 31 68 -1 8 -8 -1 -16 -20 -49 -113 -187 -161 -302 -104 -103 51 -162
151 -162 275 0 60 -3 78 -16 83 -8 3 -12 2 -9 -4 3 -6 1 -10 -4 -10 -6 0 -11
5 -11 11 0 6 -9 8 -22 3 -49 -15 -51 -14 -9 6 30 14 41 25 37 35 -3 8 -2 15 3
15 13 0 21 40 8 41 -7 0 -3 4 8 9 14 6 15 9 5 10 -8 0 -1 7 15 15 23 10 25 13
10 14 -11 0 -38 -8 -61 -19z m11 -50 c-3 -5 -14 -10 -23 -9 -14 0 -13 2 3 9
27 11 27 11 20 0z m-45 -125 c-19 -7 -42 -13 -50 -13 -8 0 1 6 20 13 19 7 42
13 50 13 8 0 -1 -6 -20 -13z m7 -41 c-3 -3 -12 -4 -19 -1 -8 3 -5 6 6 6 11 1
17 -2 13 -5z m143 -254 c0 -5 -2 -10 -4 -10 -3 0 -8 5 -11 10 -3 6 -1 10 4 10
6 0 11 -4 11 -10z m160 -53 c46 -4 63 -20 33 -31 -10 -4 -19 -2 -21 3 -3 8
-10 7 -24 0 -16 -9 -19 -8 -13 1 6 10 1 12 -19 8 -18 -4 -26 -1 -26 8 0 17 -5
17 -33 2 -19 -10 -21 -9 -9 4 16 20 1 32 -30 23 -18 -6 -19 -5 -7 7 11 13 19
12 59 -3 26 -10 66 -20 90 -22z"/>
<path d="M5313 5352 c-8 -5 -8 -14 3 -32 15 -25 15 -25 8 -1 -4 15 -1 27 7 32
8 5 10 9 4 9 -5 0 -15 -4 -22 -8z"/>
<path d="M5360 5335 c0 -30 34 -35 45 -7 5 14 4 15 -6 5 -17 -17 -29 -16 -29
1 0 8 8 17 18 19 13 4 11 5 -5 6 -18 1 -23 -4 -23 -24z"/>
<path d="M5420 5334 c0 -15 3 -24 7 -21 3 4 13 1 20 -5 12 -10 14 -7 11 17 -4
41 -38 48 -38 9z"/>
<path d="M5545 5320 c21 -22 41 -40 44 -40 3 0 -13 18 -34 40 -21 22 -41 40
-44 40 -3 0 13 -18 34 -40z"/>
<path d="M5690 5342 c-38 -18 -49 -44 -30 -67 17 -21 49 -19 88 5 35 22 40 40
16 64 -20 20 -31 20 -74 -2z m76 -14 c10 -16 -33 -48 -67 -48 -38 0 -47 19
-19 42 25 20 75 24 86 6z"/>
<path d="M4730 5330 c-8 -5 -10 -10 -5 -10 6 0 17 5 25 10 8 5 11 10 5 10 -5
0 -17 -5 -25 -10z"/>
<path d="M5476 5314 c-9 -24 -7 -31 4 -14 8 12 10 10 10 -9 0 -20 2 -21 15
-11 11 9 12 17 4 31 -12 23 -25 24 -33 3z"/>
<path d="M5240 5300 c-17 -11 -4 -41 21 -48 11 -4 12 -2 2 9 -7 7 -13 20 -13
29 1 12 4 11 15 -4 8 -11 18 -17 21 -13 7 7 -14 37 -25 37 -3 0 -13 -5 -21
-10z"/>
<path d="M5932 5294 c-11 -12 -8 -14 18 -14 16 0 30 5 30 11 0 5 -5 7 -11 3
-6 -3 -14 -2 -18 4 -4 6 -11 5 -19 -4z"/>
<path d="M5515 5270 c-4 -7 -3 -16 3 -22 14 -14 45 -2 40 15 -6 16 -34 21 -43
7z m35 -10 c0 -5 -4 -10 -10 -10 -5 0 -10 5 -10 10 0 6 5 10 10 10 6 0 10 -4
10 -10z"/>
<path d="M5218 5248 c12 -6 22 -15 22 -20 0 -5 -10 -3 -22 3 -21 11 -22 11 -9
-4 16 -20 38 -22 44 -4 4 14 -22 37 -43 36 -9 0 -6 -5 8 -11z"/>
<path d="M5940 5235 c-12 -15 -6 -35 11 -35 5 0 9 5 9 11 0 5 -4 7 -10 4 -5
-3 -10 -2 -10 4 0 15 14 21 29 11 8 -4 11 -12 7 -18 -3 -6 -2 -13 4 -17 5 -3
10 3 10 14 0 28 -34 45 -50 26z"/>
<path d="M5344 5222 c-94 -75 -24 -249 92 -228 37 7 83 56 85 89 5 94 -41 157
-116 157 -23 0 -49 -8 -61 -18z m110 -42 c40 -44 45 -77 19 -108 -34 -38 -104
2 -107 63 -1 13 -9 21 -23 23 -28 4 -29 16 -3 42 33 33 72 26 114 -20z m-15
-171 c-20 -12 -42 -11 -62 4 -15 10 -10 12 29 8 31 -2 42 -6 33 -12z"/>
<path d="M5561 5221 c-19 -12 -6 -41 19 -41 16 0 21 5 18 22 -3 25 -17 32 -37
19z m29 -21 c0 -5 -7 -10 -15 -10 -8 0 -15 5 -15 10 0 6 7 10 15 10 8 0 15 -4
15 -10z"/>
<path d="M5772 5202 c-9 -9 -24 -16 -33 -14 -25 5 -42 -23 -29 -47 11 -21 50
-29 50 -11 0 6 10 8 23 5 30 -8 51 16 43 49 -8 31 -32 40 -54 18z m43 -27 c0
-13 -8 -21 -22 -23 -17 -3 -23 2 -23 16 0 10 3 22 7 26 13 13 38 1 38 -19z
m-66 -32 c-15 -18 -34 -1 -25 22 5 14 9 15 21 5 12 -10 13 -16 4 -27z"/>
<path d="M5180 5199 c0 -5 9 -9 20 -9 11 0 20 2 20 4 0 2 -9 6 -20 9 -11 3
-20 1 -20 -4z"/>
<path d="M5190 5170 c8 -5 24 -10 34 -10 26 0 18 6 -19 14 -22 5 -26 4 -15 -4z"/>
<path d="M5940 5166 c0 -2 9 -6 20 -9 11 -3 20 -1 20 4 0 5 -9 9 -20 9 -11 0
-20 -2 -20 -4z"/>
<path d="M5203 5143 c9 -2 23 -2 30 0 6 3 -1 5 -18 5 -16 0 -22 -2 -12 -5z"/>
<path d="M5945 5133 c11 -3 23 -10 27 -17 5 -7 8 -5 8 7 0 12 -7 17 -27 16
-22 -1 -23 -2 -8 -6z"/>
<path d="M5193 5123 c-28 -11 -13 -33 22 -33 24 0 35 5 35 15 0 8 -5 15 -11
15 -5 0 -7 -4 -4 -10 3 -5 1 -10 -4 -10 -6 0 -11 7 -11 15 0 15 -6 17 -27 8z"/>
<path d="M5204 5068 c-5 -8 -2 -9 9 -5 10 3 17 2 17 -3 0 -6 -8 -10 -17 -11
-16 0 -16 -1 1 -8 14 -5 16 -10 8 -15 -17 -10 -15 -23 4 -30 8 -3 22 1 30 9
12 11 13 19 3 36 -9 17 -8 23 2 30 10 6 4 9 -18 9 -17 0 -35 -5 -39 -12z"/>
<path d="M5950 5071 c0 -8 -8 -11 -20 -8 -11 3 -18 1 -14 -4 3 -5 11 -9 19 -9
16 0 30 18 21 27 -3 4 -6 1 -6 -6z"/>
<path d="M5566 5055 c-7 -20 32 -41 48 -25 8 8 6 15 -8 26 -25 18 -32 18 -40
-1z m41 -22 c-8 -7 -37 9 -31 19 3 5 12 4 20 -3 8 -6 13 -14 11 -16z"/>
<path d="M5547 5006 c-4 -10 0 -12 14 -9 13 4 19 0 19 -11 0 -10 5 -14 10 -11
13 8 5 22 -20 35 -13 7 -19 6 -23 -4z"/>
<path d="M5246 4982 c-15 -18 -15 -20 4 -37 19 -17 21 -17 39 -1 16 15 18 21
8 37 -15 24 -29 24 -51 1z m34 -17 c-7 -8 -17 -12 -22 -9 -6 4 -5 10 3 15 22
14 33 10 19 -6z"/>
<path d="M5520 4968 c0 -6 3 -8 7 -5 3 4 13 1 22 -6 14 -11 14 -10 2 6 -15 20
-31 22 -31 5z"/>
<path d="M5300 4935 c-11 -13 -11 -19 4 -33 15 -15 18 -15 26 -2 22 33 -6 64
-30 35z m22 -17 c-7 -7 -12 -8 -12 -2 0 14 12 26 19 19 2 -3 -1 -11 -7 -17z"/>
<path d="M5520 4947 c0 -2 6 -10 14 -16 11 -9 16 -9 22 1 4 7 4 10 -1 6 -4 -4
-14 -3 -22 3 -7 6 -13 9 -13 6z"/>
<path d="M5360 4916 c-13 -16 -7 -46 9 -46 12 0 22 43 12 53 -4 4 -14 1 -21
-7z m13 -21 c-3 -9 -8 -14 -10 -11 -3 3 -2 9 2 15 9 16 15 13 8 -4z"/>
<path d="M5914 4613 c-67 -79 -58 -75 -158 -69 l-91 4 105 -9 c58 -6 116 -16
130 -24 31 -16 148 -40 157 -31 3 3 -3 6 -15 6 -23 0 -72 20 -72 29 0 3 4 23
9 44 7 30 6 37 -6 37 -11 0 -13 7 -8 30 9 42 -5 37 -51 -17z"/>
<path d="M6490 4591 c-6 -12 -7 -21 -1 -21 10 0 24 30 17 37 -2 3 -9 -5 -16
-16z"/>
<path d="M5603 4553 c9 -2 25 -2 35 0 9 3 1 5 -18 5 -19 0 -27 -2 -17 -5z"/>
<path d="M8478 4520 c-36 -28 -89 -64 -119 -80 -30 -16 -50 -30 -46 -30 18 0
108 52 158 93 30 24 63 49 74 55 11 6 15 12 9 12 -6 0 -41 -23 -76 -50z"/>
<path d="M8225 4321 c-99 -27 -151 -52 -220 -104 -138 -105 -195 -272 -161
-477 52 -321 217 -562 470 -691 103 -51 108 -53 198 -55 l93 -3 -79 9 c-109
13 -115 17 -20 17 70 0 88 3 127 26 46 27 92 78 120 132 17 34 64 205 69 250
l3 30 23 -22 c17 -18 22 -35 23 -80 2 -110 18 0 25 172 8 187 -6 285 -60 445
-62 183 -163 296 -306 344 -83 27 -219 30 -305 7z m248 -41 c125 -32 218 -99
264 -191 24 -49 33 -110 18 -116 -5 -1 -22 19 -37 45 -25 45 -167 195 -206
216 -9 6 -53 22 -97 38 -98 33 -60 39 58 8z m-37 -34 c58 -27 127 -86 186
-159 37 -48 55 -93 19 -50 -19 23 -61 22 -61 -1 -1 -6 -10 0 -21 14 -63 77
-178 183 -223 205 l-51 26 49 -5 c27 -4 73 -17 102 -30z m273 -251 c11 -25 21
-48 21 -52 0 -10 -60 89 -60 100 0 18 19 -5 39 -48z m61 -122 c0 -7 -2 -13 -5
-13 -6 0 -35 56 -35 67 1 13 40 -41 40 -54z m-40 -196 c0 -14 24 -34 36 -30
15 5 24 -20 31 -84 4 -40 2 -53 -9 -53 -11 0 -10 -2 1 -9 26 -16 4 -77 -45
-126 -24 -25 -46 -45 -48 -45 -2 0 -3 57 -2 128 0 70 -3 163 -7 207 l-8 80 26
-30 c14 -16 25 -34 25 -38z m46 -358 c-11 -68 -80 -193 -128 -232 -54 -43 -81
-57 -110 -56 -18 0 -16 3 14 15 21 9 40 24 43 34 16 50 166 279 184 280 2 0 1
-18 -3 -41z"/>
<path d="M7281 4304 c0 -11 3 -14 6 -6 3 7 2 16 -1 19 -3 4 -6 -2 -5 -13z"/>
<path d="M7427 4243 c-4 -3 -7 -18 -6 -32 1 -26 1 -25 10 3 9 31 7 41 -4 29z"/>
<path d="M7530 4240 c44 -20 159 -40 224 -40 56 0 174 25 164 35 -2 2 -26 -2
-53 -10 -60 -19 -151 -19 -235 -1 -132 28 -128 28 -100 16z"/>
<path d="M7721 4136 c-9 -11 -6 -18 15 -35 29 -23 54 -27 54 -10 0 5 -4 8 -10
4 -12 -8 -50 16 -50 32 0 17 11 16 38 -3 12 -8 22 -11 22 -6 0 7 -42 32 -54
32 -2 0 -9 -6 -15 -14z"/>
<path d="M7680 4036 c0 -17 60 -57 73 -49 5 3 4 9 -3 13 -7 4 -10 13 -6 18 7
12 -23 32 -48 32 -9 0 -16 -6 -16 -14z m40 -6 c0 -5 -4 -10 -9 -10 -6 0 -13 5
-16 10 -3 6 1 10 9 10 9 0 16 -4 16 -10z"/>
</g>
</svg>
