<?xml version="1.0" standalone="no"?>
<!DOCTYPE svg PUBLIC "-//W3C//DTD SVG 20010904//EN"
 "http://www.w3.org/TR/2001/REC-SVG-20010904/DTD/svg10.dtd">
<svg version="1.0" xmlns="http://www.w3.org/2000/svg"
 width="1080.000000pt" height="1080.000000pt" viewBox="0 0 1080.000000 1080.000000"
 preserveAspectRatio="xMidYMid meet">

<g transform="translate(0.000000,1080.000000) scale(0.100000,-0.100000)"
fill="#dca922" stroke="none">
<path fill="#0a1f14" d="M5162 10352 c-134 -152 -256 -292 -273 -310 l-29 -33 -158 107 c-86
59 -241 165 -344 236 -103 70 -190 128 -195 128 -4 0 -29 -42 -55 -93 -26 -50
-110 -211 -188 -357 -77 -146 -141 -268 -142 -272 -2 -4 -133 42 -293 103
-159 60 -332 126 -383 145 -52 20 -96 33 -99 30 -3 -2 -49 -181 -103 -396 -54
-215 -101 -394 -104 -397 -3 -3 -52 -1 -108 6 -57 6 -229 25 -383 41 -154 17
-292 33 -307 36 l-28 6 0 -416 0 -415 -32 -6 c-18 -3 -204 -28 -413 -55 -208
-28 -380 -52 -381 -53 -1 -1 38 -179 87 -395 49 -217 89 -399 89 -405 0 -7
-28 -22 -63 -35 -245 -88 -697 -267 -697 -276 0 -5 83 -169 185 -362 102 -194
185 -356 185 -361 0 -5 -19 -23 -42 -40 -73 -52 -459 -324 -528 -371 -36 -25
-73 -52 -83 -61 -19 -18 -30 -4 247 -316 35 -38 90 -101 123 -140 33 -38 83
-95 111 -125 42 -46 48 -58 38 -70 -18 -22 -329 -374 -336 -380 -43 -39 -200
-233 -194 -239 5 -5 110 -79 234 -166 124 -87 273 -192 332 -233 l106 -76 -58
-110 c-299 -564 -328 -621 -315 -628 7 -4 178 -70 379 -147 202 -76 370 -142
373 -145 4 -3 -35 -185 -85 -403 -49 -219 -87 -401 -84 -404 4 -4 190 -30 415
-60 l407 -53 0 -414 0 -414 53 6 c28 3 198 21 377 41 179 19 341 37 361 40
l37 5 97 -393 c54 -215 101 -397 104 -403 4 -8 133 36 386 132 209 79 382 144
385 144 3 0 89 -158 190 -351 102 -194 190 -358 195 -366 9 -12 14 -11 35 5
54 41 662 452 669 452 4 0 66 -66 137 -147 337 -383 406 -458 417 -458 6 0
131 136 277 302 146 166 269 302 274 302 10 1 109 -65 490 -326 115 -79 210
-142 211 -141 1 2 86 163 189 358 103 195 191 359 196 363 4 5 175 -54 380
-132 204 -78 377 -141 383 -141 8 0 50 150 111 397 55 219 100 399 101 401 2
2 690 -71 783 -83 l42 -6 0 411 c0 319 3 412 13 415 6 3 191 29 409 58 219 29
400 55 403 58 3 3 -15 95 -40 205 -25 109 -66 288 -91 398 -25 109 -43 200
-41 202 2 2 174 69 382 149 208 79 379 146 381 148 2 1 -64 131 -147 287 -208
396 -234 448 -229 453 3 2 73 51 155 109 415 291 510 360 510 367 0 5 -119
144 -265 310 -146 165 -266 305 -268 310 -2 6 45 66 105 133 346 389 433 490
428 498 -3 5 -72 55 -153 113 -81 57 -229 161 -329 232 -101 70 -183 131 -183
135 0 4 85 169 189 366 104 198 186 362 182 366 -3 4 -175 71 -381 149 -206
79 -377 144 -378 145 -2 2 37 183 88 404 50 221 90 403 88 405 -2 2 -176 26
-388 54 -212 28 -397 54 -412 57 l-28 6 0 409 0 409 -23 0 c-12 0 -186 -18
-387 -40 -201 -22 -376 -40 -390 -40 -25 0 -27 6 -124 398 -54 218 -100 399
-102 401 -1 2 -171 -60 -376 -138 -205 -77 -379 -142 -386 -143 -7 -2 -29 29
-50 67 -49 91 -159 300 -257 490 -43 83 -82 154 -86 159 -5 5 -61 -26 -131
-74 -68 -46 -224 -153 -347 -237 -123 -84 -224 -153 -225 -153 -2 0 -126 140
-276 310 -151 171 -277 310 -280 309 -3 0 -114 -125 -248 -277z"/>
<path fill="#dca922" d="m2496 7683
c-19 -55 -19 -53 -6 -53 6 0 10 6 10 13 0 6 10 17 23 23 l23 10 -10 -65 c-18
-111 -13 -588 7 -712 22 -134 58 -241 86 -254 24 -11 29 -30 6 -21 -10 4 -15
-1 -15 -14 0 -11 -4 -20 -9 -20 -15 0 -20 -39 -5 -50 26 -23 66 -102 61 -122
-4 -15 9 -34 55 -77 79 -73 91 -76 36 -10 -79 98 -91 124 -95 208 -2 42 0 96
5 121 l8 45 21 -40 c11 -22 30 -69 41 -105 35 -110 52 -141 105 -197 66 -70
105 -90 195 -98 68 -7 74 -6 107 19 19 15 33 31 30 37 -3 5 0 6 8 3 8 -3 24 5
36 17 26 28 19 39 -9 14 -21 -19 -29 -8 -8 13 17 17 2 27 -17 12 -26 -22 -42
3 -24 37 22 43 129 146 184 177 196 110 462 107 575 -7 22 -23 40 -44 40 -48
0 -12 32 -21 105 -30 39 -5 84 -11 100 -14 34 -7 80 -34 71 -42 -3 -3 -47 -10
-98 -14 -76 -6 -289 -57 -321 -76 -17 -10 5 -23 24 -13 24 13 54 -1 62 -29 3
-11 -5 -34 -19 -55 -13 -19 -24 -38 -24 -42 0 -4 -20 -29 -46 -56 -25 -26 -42
-52 -39 -58 6 -10 35 -2 35 10 0 4 7 10 15 13 11 5 12 1 6 -16 -5 -12 -14 -65
-20 -117 -16 -124 -40 -247 -56 -285 -7 -16 -19 -46 -26 -65 -7 -19 -41 -72
-75 -116 -34 -45 -69 -94 -78 -110 -8 -16 -46 -61 -83 -99 -176 -183 -341
-298 -540 -375 -87 -35 -126 -51 -197 -86 -51 -26 -75 -26 -34 -1 55 34 117
68 168 93 84 41 83 43 -18 35 -61 -5 -70 -4 -55 7 10 7 29 16 42 19 14 3 36
12 50 20 26 14 26 14 -9 8 l-35 -7 49 36 c27 20 51 38 53 40 11 11 -74 -19
-97 -34 -14 -9 -38 -22 -54 -29 -22 -9 -26 -15 -17 -21 9 -5 2 -11 -23 -20
-21 -7 -40 -9 -43 -6 -4 3 -1 6 5 6 7 0 12 5 12 11 0 7 8 18 18 26 9 8 12 13
6 11 -41 -11 -200 -170 -262 -260 -22 -32 -37 -45 -47 -41 -15 5 -83 -39 -98
-64 -4 -7 -17 -13 -27 -13 -28 0 -26 24 11 136 18 52 29 97 26 101 -9 9 -79
-48 -203 -166 -91 -87 -227 -191 -248 -191 -18 0 24 115 49 135 14 11 125 194
125 205 0 3 25 39 55 79 30 40 55 70 55 66 0 -3 7 1 16 9 8 9 13 20 10 24 -3
5 6 7 19 4 24 -4 47 10 58 38 5 13 6 13 6 0 1 -9 -6 -26 -15 -38 -8 -12 -13
-30 -11 -40 4 -14 6 -13 12 5 4 13 11 20 16 17 5 -3 9 5 10 18 0 21 1 21 8 4
5 -14 10 -16 15 -8 4 7 13 12 21 12 8 0 31 11 51 25 20 14 39 23 42 20 3 -3
19 10 36 29 17 18 49 49 70 67 35 31 38 31 31 10 -7 -22 -7 -23 12 -4 10 10
38 43 62 73 25 30 72 81 105 112 36 33 55 57 46 58 -9 0 -21 -5 -28 -12 -15
-15 -16 -3 -2 23 8 14 7 19 -1 19 -18 0 27 45 88 87 59 40 65 48 29 39 -32 -8
-39 3 -20 33 11 18 5 15 -20 -11 -56 -58 -92 -72 -180 -69 -20 1 -27 5 -23 15
7 17 -13 26 -59 26 -42 0 -44 16 -3 38 17 9 45 27 62 40 l32 23 -30 -6 c-16
-4 -42 -11 -57 -17 -15 -6 -42 -11 -60 -12 -20 -2 -32 -7 -30 -15 3 -16 -15
-48 -56 -98 -41 -51 -35 -55 20 -11 22 17 43 27 46 22 4 -6 20 -11 36 -12 16
-1 31 -4 33 -6 9 -9 -42 -98 -76 -134 -43 -46 -158 -122 -222 -146 -34 -13
-54 -15 -80 -8 l-34 9 41 21 c22 11 47 29 55 38 13 17 13 17 -11 1 -36 -25
-44 -21 -20 10 29 38 12 39 -55 6 -32 -15 -52 -29 -46 -31 17 -6 13 -29 -5
-36 -9 -4 -24 0 -34 9 -9 8 -35 15 -57 15 -22 0 -54 5 -72 11 l-31 11 105 63
c121 73 142 90 120 99 -8 3 -15 2 -15 -3 0 -10 -46 -31 -68 -31 -9 0 -33 -14
-52 -30 -39 -33 -55 -37 -67 -16 -5 8 -32 15 -73 18 -67 4 -120 23 -128 46 -2
8 10 12 40 12 30 0 65 11 109 33 93 47 94 48 77 58 -17 10 -91 -8 -135 -33
-26 -14 -33 -15 -33 -4 0 17 -16 24 -82 32 -57 7 -116 33 -138 59 -12 15 -10
16 21 14 68 -5 109 1 109 15 0 8 6 13 13 13 6 -1 32 4 56 12 41 12 42 13 24
26 -21 15 -93 10 -93 -6 0 -12 -28 -11 -32 1 -2 5 -34 18 -72 29 -71 20 -119
48 -124 73 -2 11 11 13 70 11 84 -3 168 11 217 37 l34 17 -89 7 c-58 4 -90 3
-92 -4 -2 -5 -24 -10 -49 -10 -36 0 -44 3 -39 15 3 10 -7 23 -32 39 -51 32
-108 89 -94 94 6 2 26 -1 45 -6 23 -7 39 -6 45 0 7 7 35 7 83 0 58 -7 76 -6
87 4 11 11 8 14 -15 20 -15 3 -51 12 -80 20 -28 8 -61 14 -72 14 -12 0 -21 4
-21 10 0 5 -19 22 -42 37 -65 42 -96 72 -123 118 -22 38 -49 125 -39 125 2 0
15 -18 29 -40 13 -21 35 -45 47 -52 22 -11 109 -28 153 -29 11 0 30 -6 42 -14
12 -8 28 -15 35 -14 10 0 10 2 -1 6 -9 4 -10 8 -3 12 7 4 3 12 -11 20 -20 13
-21 13 -8 -2 11 -14 11 -17 0 -17 -27 0 -167 159 -201 228 -28 57 -33 77 -33
138 0 40 3 75 7 79 4 4 26 -11 49 -34 58 -56 175 -133 195 -129 13 2 10 11
-18 45 -19 22 -52 81 -74 130 -36 82 -39 95 -39 183 0 88 15 160 34 160 4 0
33 -37 64 -82 68 -100 152 -196 163 -186 4 4 -7 38 -23 75 -44 99 -58 158 -58
248 1 56 8 100 24 147 19 58 45 99 54 87 2 -2 18 -47 37 -99 33 -96 51 -133
109 -227 31 -51 51 -67 51 -41 0 6 -10 46 -22 87 -17 59 -22 102 -23 192 0
116 0 116 40 195 38 74 68 108 60 66 -2 -10 1 -25 6 -33 6 -10 9 -6 9 15 0 48
9 25 20 -54 13 -94 71 -265 90 -265 10 0 14 28 16 127 1 70 7 151 14 180 19
79 76 193 106 213 l27 17 -7 -28 c-14 -61 -19 -157 -8 -150 18 11 23 -10 38
-137 19 -159 36 -239 52 -245 9 -3 12 28 12 130 0 184 30 308 103 422 36 56
46 47 23 -21z m1599 -1274 c-22 -5 -66 -23 -99 -40 -55 -30 -60 -31 -89 -17
l-31 15 45 17 c50 19 126 34 179 34 l35 0 -40 -9z m5153 -180 l-23 -31 -5
-536 c-5 -531 -5 -537 -27 -579 -41 -75 -120 -123 -207 -123 -44 0 -45 9 -6
43 16 15 40 46 52 69 l23 43 0 528 c0 492 -1 529 -17 541 -24 18 -23 26 5 26
12 0 56 11 97 24 41 14 88 25 103 25 l28 1 -23 -31z m-389 -5 l-24 -26 -5
-471 c-6 -465 -6 -473 -29 -540 -30 -83 -87 -147 -166 -183 -84 -39 -205 -46
-699 -42 l-441 3 -69 34 c-56 27 -72 32 -85 22 -57 -42 -107 -56 -201 -56 -85
0 -100 3 -144 28 -58 32 -60 32 -94 8 -72 -50 -237 -53 -338 -7 -31 14 -61 26
-67 26 -6 0 -40 -12 -76 -27 -59 -24 -83 -27 -225 -32 l-160 -6 -55 -99 c-43
-76 -79 -123 -151 -196 -195 -199 -445 -321 -752 -366 -143 -21 -455 -15 -598
11 -150 27 -359 90 -565 169 -365 141 -521 193 -686 226 -197 40 -517 42 -547
2 -10 -14 -14 -14 -21 -3 -5 7 -14 10 -20 7 -6 -4 -11 -3 -11 2 0 21 174 55
301 60 200 7 413 -34 714 -138 536 -184 659 -218 874 -241 135 -14 340 -7 466
16 258 46 550 196 716 367 66 67 134 162 125 176 -3 5 -34 12 -68 15 -137 11
-244 82 -296 195 -21 46 -27 76 -30 154 -5 121 19 210 75 279 84 103 169 131
389 127 l149 -3 3 -279 c1 -186 6 -284 13 -293 18 -21 264 -18 309 5 54 27 60
47 60 234 0 157 -1 169 -20 180 -30 19 -25 25 33 39 28 6 66 18 84 26 18 7 41
13 52 13 19 0 20 -8 23 -230 3 -220 4 -230 25 -251 41 -42 155 -42 197 0 20
20 21 33 24 206 3 152 0 189 -12 214 l-16 30 83 26 c98 29 103 30 111 9 3 -9
6 -116 6 -238 0 -249 2 -258 68 -275 47 -12 121 1 139 25 7 9 15 31 18 48 7
33 1 409 -6 440 -3 16 7 22 71 38 41 11 82 20 90 21 13 2 16 -34 20 -253 3
-173 9 -262 17 -276 24 -41 52 -44 388 -42 l320 3 3 114 c3 140 -12 194 -68
245 -51 46 -92 56 -232 56 -106 0 -118 2 -128 19 -14 27 -13 124 2 139 18 18
230 16 303 -3 74 -20 146 -59 182 -99 90 -99 113 -169 113 -341 0 -84 4 -126
12 -131 6 -4 53 -7 104 -7 116 1 167 24 202 93 22 44 22 48 22 481 0 421 -1
437 -20 462 -11 14 -20 27 -20 30 0 3 20 8 45 11 25 4 69 16 98 26 28 10 67
19 86 19 l34 1 -24 -26z m-4049 -214 c50 -26 70 -64 70 -136 0 -54 -2 -59 -40
-96 -37 -34 -46 -38 -93 -38 -63 0 -109 25 -133 72 -68 130 65 265 196 198z
m438 -642 c-4 -336 -5 -356 -27 -422 -34 -103 -77 -171 -158 -253 -83 -83
-167 -131 -289 -164 -111 -30 -287 -24 -394 14 -173 63 -301 197 -346 364 -18
68 -20 211 -3 280 17 70 82 191 132 246 42 45 46 47 100 47 58 0 69 -8 42 -30
-9 -7 -31 -39 -50 -71 -126 -216 -92 -455 86 -599 70 -55 132 -80 225 -87 192
-15 346 57 444 209 57 88 65 142 65 454 0 245 -2 274 -18 291 -20 23 -14 33
22 34 14 0 49 9 76 19 28 10 60 19 73 19 l24 1 -4 -352z m-1201 169 c-41 -69
-113 -159 -157 -195 -50 -41 -140 -92 -205 -116 -27 -10 -81 -33 -120 -51 -38
-18 -101 -44 -140 -59 -38 -15 -81 -31 -94 -37 -42 -17 -34 -1 11 22 156 79
323 229 383 343 16 31 31 54 33 52 6 -7 -64 -149 -92 -185 -26 -35 -34 -71
-16 -71 6 0 29 17 53 38 23 21 69 59 102 84 33 26 92 79 130 118 67 69 124
114 133 105 3 -2 -7 -24 -21 -48z m-1372 -17 c-4 -6 7 -10 24 -10 17 0 31 -3
31 -7 0 -16 -83 -114 -132 -155 -63 -54 -122 -85 -176 -94 -70 -11 -67 25 6
77 25 18 73 60 106 92 34 32 75 70 91 83 30 24 62 33 50 14z m1104 -374 c-2
-2 -45 -28 -94 -58 -141 -85 -338 -148 -510 -162 -33 -3 -51 -3 -40 1 140 39
608 203 623 218 3 3 10 5 15 5 6 0 8 -2 6 -4z m-1089 -186 c-8 -5 -22 -9 -30
-9 -10 0 -8 3 5 9 27 12 43 12 25 0z m417 -46 c-3 -3 -12 -4 -19 -1 -8 3 -5 6
6 6 11 1 17 -2 13 -5z m479 -79 c121 -19 253 -67 335 -120 81 -52 99 -75 33
-42 -167 83 -527 155 -789 158 -77 1 -120 4 -105 9 48 14 429 11 526 -5z
m-951 -35 c-3 -5 -12 -10 -18 -10 -7 0 -6 4 3 10 19 12 23 12 15 0z m-61 -59
c-8 -16 -21 -34 -29 -41 -28 -23 -17 19 11 45 34 32 36 31 18 -4z m-336 -19
c13 11 15 10 9 -4 -5 -13 -1 -18 13 -18 11 0 20 -3 20 -6 0 -24 -96 -122 -153
-157 -16 -10 -36 -25 -44 -33 -8 -8 -30 -26 -49 -40 -19 -15 -34 -30 -34 -35
0 -18 -73 -119 -86 -119 -8 0 -14 -4 -14 -10 0 -5 -4 -10 -10 -10 -20 0 -9 73
21 145 34 82 67 123 56 70 -3 -16 -9 -39 -13 -49 -16 -42 18 -3 37 43 11 25
32 63 46 84 29 42 54 50 46 15 -4 -19 -3 -20 7 -8 6 8 22 36 35 61 26 50 87
97 93 72 3 -12 6 -12 20 -1z m233 -38 c12 -14 28 -16 114 -11 151 9 225 -16
225 -77 -1 -67 -78 -160 -135 -161 -43 -2 -43 4 -2 30 33 21 61 85 40 92 -5 2
-8 14 -6 26 3 15 -4 30 -21 46 -22 21 -31 23 -78 17 -118 -14 -188 -18 -212
-12 -26 6 -26 7 -11 36 12 23 23 30 44 30 16 0 35 -7 42 -16z m-161 -85 c5 8
15 11 26 7 10 -4 21 -1 26 6 6 10 8 10 8 -1 0 -18 -83 -151 -109 -175 -19 -17
-21 -17 -27 -2 -10 27 4 106 28 155 20 42 22 43 30 20 7 -18 11 -20 18 -10z
m346 -55 c-9 -8 -16 -24 -16 -35 0 -11 -4 -17 -10 -14 -24 15 -3 65 28 65 10
0 10 -3 -2 -16z m-476 -22 c1 -14 5 -12 22 8 l21 25 -5 -48 c-4 -30 -19 -69
-41 -105 -27 -45 -37 -75 -47 -145 -7 -48 -9 -91 -6 -94 3 -4 6 1 6 10 0 9 5
17 10 17 6 0 10 -19 10 -42 l0 -43 23 27 c18 21 26 48 35 118 16 130 31 148
32 37 0 -68 3 -86 13 -80 16 10 50 4 60 -11 5 -6 6 -3 2 9 -7 20 -10 90 -7
178 3 80 19 52 25 -46 6 -88 34 -205 58 -237 9 -12 10 -11 4 5 -4 11 -10 41
-13 68 -4 40 -2 46 11 41 14 -5 15 5 10 83 -6 99 3 206 18 198 5 -4 9 -34 9
-68 0 -214 134 -458 317 -578 122 -79 274 -117 392 -98 35 5 66 7 70 4 8 -9
-25 -33 -89 -64 -49 -23 -66 -26 -160 -25 -78 0 -120 6 -163 21 -38 13 -60 17
-64 10 -10 -16 59 -70 142 -112 41 -21 72 -42 69 -46 -9 -16 -120 -31 -183
-25 -73 6 -162 44 -234 99 -80 63 -87 47 -25 -57 23 -39 63 -99 90 -133 26
-35 48 -66 48 -69 0 -4 -31 -4 -69 -2 -100 7 -187 51 -267 134 -35 36 -72 79
-81 95 -21 35 -48 40 -39 7 6 -23 21 -139 30 -235 3 -29 2 -53 -2 -53 -4 0
-30 13 -58 29 -106 61 -202 206 -210 317 -2 31 -11 85 -20 118 -23 89 -23 295
0 363 11 34 22 50 30 47 8 -3 18 8 26 26 24 59 30 40 25 -82 -3 -76 -1 -112 4
-93 5 17 9 45 10 64 1 34 38 121 51 121 4 0 15 21 24 48 10 26 21 55 26 64 6
11 6 19 -1 24 -15 9 -5 77 21 148 20 53 40 66 40 28z m-50 -28 c0 -23 -73
-155 -95 -172 -39 -31 -50 -16 -35 47 12 52 62 117 81 105 5 -3 12 2 15 10 6
15 34 23 34 10z m-295 -119 c-10 -31 -17 -73 -17 -93 0 -21 -8 -64 -18 -98
-10 -33 -21 -83 -24 -110 -6 -48 -6 -48 17 21 13 39 32 86 42 105 l18 35 10
-25 c11 -30 10 -110 -4 -200 -8 -49 -7 -70 3 -88 11 -21 10 -26 -5 -36 -23
-18 -47 -126 -47 -221 l0 -80 -25 30 c-81 100 -105 203 -94 395 8 140 41 258
95 339 16 24 36 54 44 67 22 34 23 23 5 -41z"/>
<path d="M2530 6632 c0 -29 23 -68 40 -69 28 -2 25 14 -10 49 -16 16 -30 25
-30 20z"/>
<path d="M2420 6578 c0 -8 11 -27 25 -42 39 -42 33 -58 -17 -50 -24 4 -58 6
-77 5 -19 -1 -46 6 -60 15 -14 8 -2 -6 27 -31 48 -43 70 -83 40 -72 -7 2 -24
-4 -39 -14 -17 -12 -30 -15 -40 -8 -18 11 -39 12 -39 1 0 -5 22 -19 50 -32 36
-17 47 -27 40 -35 -14 -17 -3 -43 21 -50 10 -4 19 -11 19 -17 0 -6 3 -8 7 -5
3 4 17 -3 30 -15 26 -24 31 -18 8 10 -52 58 -65 82 -65 117 l0 38 48 -42 c87
-77 88 -77 36 4 -27 43 -33 59 -24 70 16 20 42 8 107 -48 45 -40 51 -44 29
-17 -37 44 -65 107 -66 143 0 34 16 34 52 0 33 -31 41 -28 29 13 -7 21 -10 23
-10 9 -2 -19 -2 -19 -15 -2 -7 9 -18 17 -25 17 -6 0 -11 5 -11 11 0 5 -4 7
-10 4 -5 -3 -10 -1 -10 4 0 6 -8 11 -18 11 -10 0 -23 5 -30 12 -9 9 -12 9 -12
-4z"/>
<path d="M3895 6511 c-5 -9 -15 -11 -77 -11 -33 0 -35 -5 -10 -19 22 -12 104
9 110 27 4 14 -14 16 -23 3z"/>
<path d="M3938 6513 c7 -3 16 -2 19 1 4 3 -2 6 -13 5 -11 0 -14 -3 -6 -6z"/>
<path d="M3596 6476 c-41 -30 -46 -36 -30 -41 10 -4 26 -11 34 -16 53 -33 59
-33 111 -8 32 16 52 32 55 47 9 32 -2 39 -66 47 -52 6 -58 4 -104 -29z m74 -6
c0 -11 -7 -20 -15 -20 -15 0 -21 21 -8 33 12 13 23 7 23 -13z"/>
<path d="M3947 6494 c-16 -16 27 -37 75 -36 65 1 85 18 32 27 -90 14 -101 15
-107 9z"/>
<path d="M2630 6386 c0 -2 7 -9 15 -16 13 -11 14 -10 9 4 -5 14 -24 23 -24 12z"/>
<path d="M2635 6310 c3 -5 12 -10 20 -10 8 0 18 -8 24 -17 5 -10 12 -15 15
-12 9 8 -33 49 -50 49 -8 0 -12 -4 -9 -10z"/>
<path d="M2503 6265 c15 -14 32 -25 38 -25 17 0 9 8 -28 29 l-38 22 28 -26z"/>
<path d="M2175 6259 c17 -6 39 -14 50 -19 11 -5 34 -11 51 -14 28 -4 31 -3 27
14 -3 12 -14 20 -27 20 -11 0 -46 2 -76 5 -48 5 -51 4 -25 -6z"/>
<path d="M2735 6240 c10 -11 20 -20 23 -20 3 0 -3 9 -13 20 -10 11 -20 20 -23
20 -3 0 3 -9 13 -20z"/>
<path d="M2640 6224 c0 -10 42 -44 53 -44 6 0 0 11 -13 25 -22 24 -40 32 -40
19z"/>
<path d="M3035 6220 c-3 -5 -5 -10 -3 -11 26 -6 48 -7 68 -2 l25 7 -25 7 c-37
10 -58 10 -65 -1z"/>
<path d="M3187 6216 c-14 -11 -15 -15 -5 -19 10 -4 10 -8 -2 -16 -13 -10 -13
-11 0 -11 24 0 44 16 30 25 -6 4 -9 13 -6 21 7 17 6 17 -17 0z"/>
<path d="M2304 6185 c-13 -10 -15 -14 -5 -15 34 0 -6 -16 -67 -26 -37 -6 -55
-12 -41 -13 15 0 32 -7 38 -15 7 -8 21 -12 31 -9 39 10 19 -16 -25 -33 -59
-22 -52 -27 16 -12 65 14 65 14 49 33 -7 8 -9 22 -6 31 6 17 26 17 131 -1 24
-4 22 -1 -15 15 -25 12 -54 30 -66 41 -18 17 -22 17 -40 4z"/>
<path d="M2468 6113 c7 -3 16 -2 19 1 4 3 -2 6 -13 5 -11 0 -14 -3 -6 -6z"/>
<path d="M2660 6110 c0 -11 51 -39 93 -51 39 -11 33 -7 -36 30 -31 16 -57 26
-57 21z"/>
<path d="M2535 6008 l-30 -19 30 7 c34 7 51 19 38 27 -4 2 -21 -4 -38 -15z"/>
<path d="M2258 5994 c-21 -13 -38 -27 -38 -29 0 -3 25 -4 56 -3 50 3 57 1 60
-17 2 -11 -7 -30 -18 -42 -26 -28 -17 -40 18 -24 14 6 31 8 37 4 7 -3 4 3 -5
14 -25 28 -22 52 7 58 83 17 83 17 30 29 -27 6 -60 17 -72 24 -28 16 -31 15
-75 -14z"/>
<path d="M2825 5970 l-30 -8 30 -1 c17 0 37 4 45 9 13 9 13 10 0 9 -8 -1 -28
-5 -45 -9z"/>
<path d="M2574 5914 c-18 -14 -18 -15 6 -8 14 3 32 10 40 15 12 7 11 8 -6 9
-11 0 -29 -7 -40 -16z"/>
<path d="M2528 5893 c7 -3 16 -2 19 1 4 3 -2 6 -13 5 -11 0 -14 -3 -6 -6z"/>
<path d="M2488 5883 c7 -3 16 -2 19 1 4 3 -2 6 -13 5 -11 0 -14 -3 -6 -6z"/>
<path d="M2399 5851 c-6 -16 -17 -32 -25 -35 -29 -11 -13 -25 28 -23 51 2 60
-18 28 -62 -19 -27 -19 -31 -4 -39 19 -11 56 -4 49 9 -11 17 22 52 70 75 l50
24 -67 0 c-37 0 -78 4 -92 10 -35 13 -34 43 2 57 l27 11 -28 1 c-22 1 -30 -5
-38 -28z"/>
<path d="M2976 5851 c-4 -5 -2 -20 3 -33 9 -21 10 -21 10 -2 1 11 6 25 13 32
9 9 8 12 -4 12 -9 0 -19 -4 -22 -9z"/>
<path d="M2600 5810 c0 -5 7 -10 15 -10 8 0 15 5 15 10 0 6 -7 10 -15 10 -8 0
-15 -4 -15 -10z"/>
<path d="M2715 5640 c-16 -11 -25 -20 -20 -20 6 0 24 9 40 20 17 11 26 20 20
20 -5 0 -23 -9 -40 -20z"/>
<path d="M3541 5538 c-1 -10 -5 -18 -10 -18 -5 0 -12 -8 -15 -17 -20 -56 -72
-113 -101 -113 -16 0 -68 -74 -55 -78 14 -5 68 43 116 102 57 71 84 100 84 89
0 -5 -8 -18 -18 -29 -10 -10 -21 -28 -25 -38 -6 -16 -5 -17 8 -6 26 22 52 63
58 95 3 17 4 24 1 18 -3 -7 -12 -13 -19 -13 -7 0 -16 6 -18 13 -3 7 -6 5 -6
-5z"/>
<path d="M2680 5245 c-7 -9 -11 -18 -8 -20 3 -3 11 1 18 10 7 9 11 18 8 20 -3
3 -11 -1 -18 -10z"/>
<path d="M2703 5219 c-24 -17 -43 -34 -43 -40 0 -5 23 7 50 27 28 20 50 38 50
40 0 9 -18 1 -57 -27z"/>
<path d="M3070 5135 c-25 -13 -54 -27 -64 -30 -10 -3 -16 -8 -12 -12 8 -8 126
47 126 59 0 11 2 11 -50 -17z"/>
<path d="M5683 5529 c-59 -29 -86 -88 -86 -183 0 -90 15 -137 58 -175 39 -34
76 -44 155 -39 l55 3 0 205 0 205 -70 3 c-55 2 -79 -2 -112 -19z"/>
<path d="M1762 3990 c0 -19 2 -27 5 -17 2 9 2 25 0 35 -3 9 -5 1 -5 -18z"/>
<path d="M1710 3885 c0 -9 5 -15 11 -13 6 2 11 8 11 13 0 5 -5 11 -11 13 -6 2
-11 -4 -11 -13z"/>
</g>
</svg>
